<svg width="30" height="30" viewBox="0 0 30 30" fill="none" xmlns="http://www.w3.org/2000/svg">
<g clip-path="url(#clip0_0_912)">
<path d="M6.25 27.5C4.52083 27.5 3.04688 26.8906 1.82812 25.6719C0.609375 24.4531 0 22.9792 0 21.25C0 19.5208 0.609375 18.0469 1.82812 16.8281C3.04688 15.6094 4.52083 15 6.25 15C7.97917 15 9.45312 15.6094 10.6719 16.8281C11.8906 18.0469 12.5 19.5208 12.5 21.25C12.5 22.9792 11.8906 24.4531 10.6719 25.6719C9.45312 26.8906 7.97917 27.5 6.25 27.5ZM6.25 25C7.29167 25 8.17708 24.6354 8.90625 23.9062C9.63542 23.1771 10 22.2917 10 21.25C10 20.2083 9.63542 19.3229 8.90625 18.5938C8.17708 17.8646 7.29167 17.5 6.25 17.5C5.20833 17.5 4.32292 17.8646 3.59375 18.5938C2.86458 19.3229 2.5 20.2083 2.5 21.25C2.5 22.2917 2.86458 23.1771 3.59375 23.9062C4.32292 24.6354 5.20833 25 6.25 25ZM13.75 23.75V17.5L9.75 14C9.5 13.7708 9.3125 13.5052 9.1875 13.2031C9.0625 12.901 9 12.5833 9 12.25C9 11.9167 9.06771 11.599 9.20312 11.2969C9.33854 10.9948 9.52083 10.7292 9.75 10.5L13.25 7C13.5 6.75 13.7865 6.5625 14.1094 6.4375C14.4323 6.3125 14.7708 6.25 15.125 6.25C15.4792 6.25 15.8177 6.3125 16.1406 6.4375C16.4635 6.5625 16.75 6.75 17 7L19.375 9.375C19.9583 9.95833 20.625 10.4167 21.375 10.75C22.125 11.0833 22.9167 11.25 23.75 11.25V13.75C22.5625 13.75 21.4323 13.5208 20.3594 13.0625C19.2865 12.6042 18.3333 11.9583 17.5 11.125L16.5 10.125L13.5 13.125L16.25 16V23.75H13.75ZM19.375 6.875C18.6875 6.875 18.099 6.63021 17.6094 6.14062C17.1198 5.65104 16.875 5.0625 16.875 4.375C16.875 3.6875 17.1198 3.09896 17.6094 2.60938C18.099 2.11979 18.6875 1.875 19.375 1.875C20.0625 1.875 20.651 2.11979 21.1406 2.60938C21.6302 3.09896 21.875 3.6875 21.875 4.375C21.875 5.0625 21.6302 5.65104 21.1406 6.14062C20.651 6.63021 20.0625 6.875 19.375 6.875ZM23.75 27.5C22.0208 27.5 20.5469 26.8906 19.3281 25.6719C18.1094 24.4531 17.5 22.9792 17.5 21.25C17.5 19.5208 18.1094 18.0469 19.3281 16.8281C20.5469 15.6094 22.0208 15 23.75 15C25.4792 15 26.9531 15.6094 28.1719 16.8281C29.3906 18.0469 30 19.5208 30 21.25C30 22.9792 29.3906 24.4531 28.1719 25.6719C26.9531 26.8906 25.4792 27.5 23.75 27.5ZM23.75 25C24.7917 25 25.6771 24.6354 26.4062 23.9062C27.1354 23.1771 27.5 22.2917 27.5 21.25C27.5 20.2083 27.1354 19.3229 26.4062 18.5938C25.6771 17.8646 24.7917 17.5 23.75 17.5C22.7083 17.5 21.8229 17.8646 21.0938 18.5938C20.3646 19.3229 20 20.2083 20 21.25C20 22.2917 20.3646 23.1771 21.0938 23.9062C21.8229 24.6354 22.7083 25 23.75 25Z" fill="#4452FE"/>
</g>
<defs>
<clipPath id="clip0_0_912">
<rect width="30" height="30" fill="white"/>
</clipPath>
</defs>
</svg>
