<svg width="198" height="22" viewBox="0 0 198 22" fill="none" xmlns="http://www.w3.org/2000/svg">
<g clip-path="url(#clip0_0_38)">
<path d="M12.8075 21.5C11.0485 21.5 9.50025 21.3451 8.1627 21.0352C6.84347 20.707 5.70748 20.2786 4.7547 19.75C3.82025 19.2214 3.04154 18.6107 2.41858 17.918C1.81393 17.2253 1.32839 16.5052 0.961934 15.7578C0.595483 15.0104 0.338967 14.263 0.192387 13.5156C0.0641289 12.75 0 12.0299 0 11.3555V10.5352C0 9.86068 0.0641289 9.14974 0.192387 8.40234C0.338967 7.63672 0.586322 6.88932 0.93445 6.16016C1.3009 5.41276 1.78645 4.70182 2.39109 4.02734C3.01406 3.33464 3.80193 2.73307 4.7547 2.22266C5.70748 1.69401 6.84347 1.27474 8.1627 0.964844C9.48192 0.654948 11.0302 0.5 12.8075 0.5H14.0442C15.8215 0.5 17.3698 0.627604 18.689 0.882813C20.0266 1.13802 21.1626 1.48438 22.097 1.92188C23.0315 2.34115 23.7918 2.83333 24.3782 3.39844C24.9828 3.96354 25.4592 4.55599 25.8073 5.17578C26.1554 5.79557 26.3936 6.42448 26.5219 7.0625C26.6502 7.70052 26.7143 8.30208 26.7143 8.86719V9.08594H19.0463C19.028 8.95833 18.9638 8.73047 18.8539 8.40234C18.744 8.07422 18.4966 7.73698 18.1118 7.39063C17.7454 7.02604 17.1866 6.70703 16.4353 6.43359C15.7024 6.16016 14.7039 6.02344 13.4396 6.02344C12.2486 6.02344 11.2775 6.17839 10.5263 6.48828C9.79341 6.79818 9.21625 7.1901 8.79483 7.66406C8.39173 8.11979 8.11689 8.62109 7.97031 9.16797C7.82373 9.71484 7.75044 10.2344 7.75044 10.7266V11.0547C7.75044 11.5469 7.82373 12.0755 7.97031 12.6406C8.13521 13.2057 8.41921 13.7344 8.82231 14.2266C9.24373 14.7005 9.82089 15.1016 10.5538 15.4297C11.305 15.7396 12.2761 15.8945 13.4671 15.8945C14.7313 15.8945 15.7299 15.7578 16.4628 15.4844C17.1957 15.2109 17.7454 14.901 18.1118 14.5547C18.4966 14.1901 18.744 13.8438 18.8539 13.5156C18.9638 13.1875 19.028 12.9688 19.0463 12.8594H26.7143V13.0781C26.7143 13.6068 26.6502 14.181 26.5219 14.8008C26.3936 15.4206 26.1554 16.0495 25.8073 16.6875C25.4775 17.3073 25.0103 17.9089 24.4056 18.4922C23.8193 19.0573 23.0498 19.5677 22.097 20.0234C21.1626 20.4609 20.0357 20.8164 18.7165 21.0898C17.3973 21.3633 15.8398 21.5 14.0442 21.5H12.8075Z" fill="#0967AD"/>
<path d="M30.6429 0.5H54.2143V20.6923H46.8924V5.60236H37.9919V20.6923H30.6429V0.5Z" fill="white"/>
<path d="M71.724 0.5C73.5336 0.5 75.1147 0.654545 76.4673 0.963636C77.8199 1.25455 78.9806 1.65455 79.9494 2.16364C80.9364 2.67273 81.7407 3.26364 82.3621 3.93636C83.0019 4.60909 83.5045 5.31818 83.8701 6.06364C84.2357 6.80909 84.4916 7.57273 84.6378 8.35455C84.784 9.11818 84.8571 9.84545 84.8571 10.5364V11.3545C84.8571 12.0455 84.784 12.7818 84.6378 13.5636C84.4916 14.3273 84.2357 15.0818 83.8701 15.8273C83.5045 16.5727 83.0019 17.2909 82.3621 17.9818C81.7407 18.6727 80.9455 19.2818 79.9768 19.8091C79.008 20.3182 77.8382 20.7273 76.4673 21.0364C75.1147 21.3455 73.5336 21.5 71.724 21.5H70.4902C68.6807 21.5 67.0996 21.3455 65.747 21.0364C64.3944 20.7273 63.2337 20.3182 62.2649 19.8091C61.2962 19.2818 60.4919 18.6727 59.8522 17.9818C59.2124 17.2909 58.7098 16.5727 58.3442 15.8273C57.9786 15.0818 57.7227 14.3273 57.5765 13.5636C57.4303 12.7818 57.3571 12.0455 57.3571 11.3545V10.5364C57.3571 9.82727 57.4303 9.09091 57.5765 8.32727C57.7227 7.56364 57.9786 6.80909 58.3442 6.06364C58.728 5.31818 59.2307 4.60909 59.8522 3.93636C60.4919 3.26364 61.2962 2.67273 62.2649 2.16364C63.2337 1.65455 64.3944 1.25455 65.747 0.963636C67.0996 0.654545 68.6807 0.5 70.4902 0.5H71.724ZM77.1253 10.7545C77.1253 10.2636 77.0522 9.74545 76.906 9.2C76.7598 8.63636 76.4673 8.11818 76.0286 7.64545C75.6082 7.17273 75.005 6.78182 74.2191 6.47273C73.4331 6.16364 72.3912 6.00909 71.0934 6.00909C69.7957 6.00909 68.7538 6.16364 67.9678 6.47273C67.1818 6.78182 66.5786 7.17273 66.1582 7.64545C65.7378 8.11818 65.4545 8.63636 65.3083 9.2C65.1621 9.74545 65.089 10.2636 65.089 10.7545V11.0545C65.089 11.5455 65.1621 12.0727 65.3083 12.6364C65.4545 13.2 65.747 13.7273 66.1857 14.2182C66.6243 14.7091 67.2367 15.1182 68.0226 15.4455C68.8086 15.7545 69.8414 15.9091 71.1209 15.9091C72.4003 15.9091 73.4331 15.7545 74.2191 15.4455C75.005 15.1182 75.6082 14.7091 76.0286 14.2182C76.4673 13.7273 76.7598 13.2 76.906 12.6364C77.0522 12.0727 77.1253 11.5455 77.1253 11.0545V10.7545Z" fill="white"/>
<path d="M96.1584 14.6672V20.6923H88.7857V0.5H103.613C105.506 0.5 107.063 0.671888 108.282 1.01566C109.52 1.34135 110.494 1.81178 111.204 2.42695C111.932 3.02404 112.433 3.73873 112.706 4.57103C112.997 5.40333 113.143 6.31705 113.143 7.31219V7.66501C113.143 8.67825 112.997 9.61006 112.706 10.4605C112.415 11.3108 111.905 12.0527 111.177 12.686C110.449 13.3011 109.475 13.7897 108.255 14.1515C107.035 14.4953 105.488 14.6672 103.613 14.6672H96.1584ZM96.1584 9.51055H102.93C103.932 9.51055 104.605 9.32057 104.951 8.9406C105.315 8.56064 105.497 8.1083 105.497 7.58359V7.52931C105.497 7.2941 105.452 7.06793 105.361 6.85081C105.288 6.61559 105.151 6.40752 104.951 6.22658C104.769 6.04565 104.505 5.90995 104.159 5.81948C103.831 5.71092 103.422 5.65664 102.93 5.65664H96.1584V9.51055Z" fill="white"/>
<path d="M123.621 6.06374H115.5V0.5H139.071V6.06374H130.951V20.6923H123.621V6.06374Z" fill="white"/>
<path d="M160.711 8.50636L150.46 20.6923H143V0.5H150.46V12.686L160.711 0.5H168.143V20.6923H160.711V8.50636Z" fill="white"/>
<path d="M172.071 0.5H189.191C190.664 0.5 191.888 0.626654 192.864 0.879963C193.858 1.13327 194.65 1.47705 195.239 1.91129C195.828 2.34553 196.242 2.85215 196.481 3.43114C196.739 3.99204 196.868 4.58912 196.868 5.22239V5.41238C196.868 6.09993 196.73 6.68797 196.454 7.17649C196.196 7.66501 195.865 8.07212 195.46 8.3978C195.055 8.72348 194.622 8.97679 194.162 9.15772C193.702 9.33866 193.278 9.45627 192.892 9.51055C193.425 9.58292 193.987 9.71862 194.576 9.91765C195.183 10.1167 195.736 10.4152 196.233 10.8133C196.748 11.1932 197.172 11.6818 197.503 12.2788C197.834 12.8759 198 13.6087 198 14.4772V14.7486C198 15.5809 197.853 16.3589 197.558 17.0827C197.282 17.8064 196.803 18.4397 196.122 18.9825C195.441 19.5072 194.539 19.9233 193.416 20.2309C192.293 20.5385 190.894 20.6923 189.219 20.6923H172.071V0.5ZM179.527 5.22239V8.15354H187.12C187.912 8.15354 188.455 8.01784 188.75 7.74643C189.044 7.47503 189.191 7.13126 189.191 6.71511V6.66083C189.191 6.22658 189.035 5.88281 188.722 5.6295C188.428 5.3581 187.894 5.22239 187.12 5.22239H179.527ZM179.527 12.5231V15.7528H187.673C188.17 15.7528 188.566 15.7076 188.86 15.6171C189.173 15.5085 189.412 15.3819 189.578 15.2371C189.744 15.0743 189.854 14.9024 189.909 14.7215C189.965 14.5224 189.992 14.3234 189.992 14.1244V14.0158C189.992 13.8168 189.965 13.6268 189.909 13.4459C189.854 13.2649 189.744 13.1111 189.578 12.9845C189.412 12.8397 189.173 12.7312 188.86 12.6588C188.566 12.5683 188.17 12.5231 187.673 12.5231H179.527Z" fill="white"/>
</g>
<defs>
<clipPath id="clip0_0_38">
<rect width="198" height="21" fill="white" transform="translate(0 0.5)"/>
</clipPath>
</defs>
</svg>
