<svg width="240" height="25" viewBox="0 0 240 25" fill="none" xmlns="http://www.w3.org/2000/svg">
<g clip-path="url(#clip0_0_1035)">
<path d="M15.5242 25C13.3921 25 11.5154 24.8155 9.89418 24.4466C8.29512 24.056 6.91815 23.546 5.76328 22.9167C4.63061 22.2873 3.68672 21.5603 2.93161 20.7357C2.19871 19.911 1.61016 19.0538 1.16598 18.1641C0.721798 17.2743 0.410869 16.3845 0.233196 15.4948C0.077732 14.5833 0 13.7261 0 12.9232V11.9466C0 11.1437 0.077732 10.2973 0.233196 9.40755C0.410869 8.49609 0.710693 7.60634 1.13267 6.73828C1.57685 5.84852 2.16539 5.00217 2.89829 4.19922C3.65341 3.37457 4.6084 2.65842 5.76328 2.05078C6.91815 1.42144 8.29512 0.922309 9.89418 0.553386C11.4932 0.184462 13.3699 0 15.5242 0H17.0233C19.1776 0 21.0543 0.15191 22.6533 0.45573C24.2746 0.759549 25.6516 1.17188 26.7842 1.69271C27.9169 2.19184 28.8386 2.77778 29.5493 3.45052C30.2822 4.12326 30.8596 4.82856 31.2816 5.56641C31.7036 6.30425 31.9923 7.05295 32.1478 7.8125C32.3032 8.57205 32.381 9.28819 32.381 9.96094V10.2214H23.0864C23.0642 10.0694 22.9865 9.79818 22.8532 9.40755C22.72 9.01693 22.4201 8.61545 21.9538 8.20312C21.5096 7.7691 20.8322 7.38932 19.9216 7.0638C19.0332 6.73828 17.8228 6.57552 16.2904 6.57552C14.8468 6.57552 13.6697 6.75998 12.7592 7.12891C11.8708 7.49783 11.1712 7.96441 10.6604 8.52865C10.1718 9.07118 9.83866 9.66797 9.66098 10.319C9.48331 10.9701 9.39447 11.5885 9.39447 12.1745V12.5651C9.39447 13.151 9.48331 13.7804 9.66098 14.4531C9.86087 15.1259 10.2051 15.7552 10.6937 16.3411C11.2045 16.9054 11.9041 17.3828 12.7925 17.7734C13.703 18.1424 14.8801 18.3268 16.3237 18.3268C17.8562 18.3268 19.0666 18.1641 19.9549 17.8385C20.8433 17.513 21.5096 17.1441 21.9538 16.7318C22.4201 16.2977 22.72 15.8854 22.8532 15.4948C22.9865 15.1042 23.0642 14.8437 23.0864 14.7135H32.381V14.974C32.381 15.6033 32.3032 16.2869 32.1478 17.0247C31.9923 17.7626 31.7036 18.5113 31.2816 19.2708C30.8818 20.0087 30.3155 20.7248 29.5826 21.4193C28.8719 22.092 27.9391 22.6997 26.7842 23.2422C25.6516 23.763 24.2857 24.1862 22.6867 24.5117C21.0876 24.8372 19.1998 25 17.0233 25H15.5242Z" fill="#0967AD"/>
<path d="M37.1429 0H65.7143V24.0385H56.8393V6.07424H46.0508V24.0385H37.1429V0Z" fill="white"/>
<path d="M86.9382 0C89.1316 0 91.0481 0.183983 92.6876 0.551948C94.3272 0.898268 95.7341 1.37446 96.9083 1.98052C98.1047 2.58658 99.0796 3.29004 99.8329 4.09091C100.608 4.89178 101.218 5.73593 101.661 6.62338C102.104 7.51082 102.414 8.41991 102.591 9.35065C102.769 10.2597 102.857 11.1255 102.857 11.9481V12.9221C102.857 13.7446 102.769 14.6212 102.591 15.5519C102.414 16.461 102.104 17.3593 101.661 18.2468C101.218 19.1342 100.608 19.9892 99.8329 20.8117C99.0796 21.6342 98.1158 22.3593 96.9416 22.987C95.7673 23.5931 94.3493 24.0801 92.6876 24.4481C91.0481 24.816 89.1316 25 86.9382 25H85.4427C83.2493 25 81.3328 24.816 79.6933 24.4481C78.0538 24.0801 76.6469 23.5931 75.4726 22.987C74.2984 22.3593 73.3235 21.6342 72.5481 20.8117C71.7726 19.9892 71.1633 19.1342 70.7202 18.2468C70.2771 17.3593 69.9669 16.461 69.7897 15.5519C69.6124 14.6212 69.5238 13.7446 69.5238 12.9221V11.9481C69.5238 11.1039 69.6124 10.2273 69.7897 9.31818C69.9669 8.40909 70.2771 7.51082 70.7202 6.62338C71.1855 5.73593 71.7948 4.89178 72.5481 4.09091C73.3235 3.29004 74.2984 2.58658 75.4726 1.98052C76.6469 1.37446 78.0538 0.898268 79.6933 0.551948C81.3328 0.183983 83.2493 0 85.4427 0H86.9382ZM93.4853 12.2078C93.4853 11.6234 93.3966 11.0065 93.2194 10.3571C93.0421 9.68615 92.6876 9.06926 92.1559 8.50649C91.6463 7.94372 90.9152 7.47836 89.9625 7.11039C89.0098 6.74242 87.7469 6.55844 86.1739 6.55844C84.6008 6.55844 83.3379 6.74242 82.3852 7.11039C81.4325 7.47836 80.7014 7.94372 80.1918 8.50649C79.6822 9.06926 79.3388 9.68615 79.1616 10.3571C78.9843 11.0065 78.8957 11.6234 78.8957 12.2078V12.5649C78.8957 13.1494 78.9843 13.7771 79.1616 14.4481C79.3388 15.119 79.6933 15.7468 80.225 16.3312C80.7568 16.9156 81.499 17.4026 82.4517 17.7922C83.4044 18.1602 84.6562 18.3442 86.2071 18.3442C87.758 18.3442 89.0098 18.1602 89.9625 17.7922C90.9152 17.4026 91.6463 16.9156 92.1559 16.3312C92.6876 15.7468 93.0421 15.119 93.2194 14.4481C93.3966 13.7771 93.4853 13.1494 93.4853 12.5649V12.2078Z" fill="white"/>
<path d="M116.556 16.8657V24.0385H107.619V0H125.591C127.886 0 129.773 0.204629 131.251 0.613886C132.752 1.0016 133.932 1.56164 134.793 2.29399C135.675 3.00481 136.282 3.85563 136.613 4.84646C136.966 5.8373 137.143 6.92506 137.143 8.10975V8.52978C137.143 9.73601 136.966 10.8453 136.613 11.8577C136.26 12.8701 135.642 13.7532 134.76 14.5071C133.877 15.2394 132.697 15.821 131.218 16.2518C129.74 16.6611 127.864 16.8657 125.591 16.8657H116.556ZM116.556 10.7268H124.764C125.978 10.7268 126.794 10.5007 127.213 10.0483C127.655 9.596 127.875 9.0575 127.875 8.43285V8.36823C127.875 8.08821 127.82 7.81896 127.71 7.56048C127.622 7.28047 127.456 7.03276 127.213 6.81736C126.993 6.60196 126.673 6.44041 126.253 6.33271C125.856 6.20347 125.36 6.13885 124.764 6.13885H116.556V10.7268Z" fill="white"/>
<path d="M149.843 6.6235H140V0H168.571V6.6235H158.728V24.0385H149.843V6.6235Z" fill="white"/>
<path d="M194.801 9.53138L182.376 24.0385H173.333V0H182.376V14.5071L194.801 0H203.81V24.0385H194.801V9.53138Z" fill="white"/>
<path d="M208.571 0H229.323C231.108 0 232.592 0.150779 233.775 0.452337C234.979 0.753895 235.939 1.16315 236.653 1.68011C237.367 2.19706 237.869 2.80018 238.159 3.48945C238.472 4.15719 238.628 4.868 238.628 5.6219V5.84807C238.628 6.66658 238.46 7.36663 238.126 7.9482C237.813 8.52978 237.412 9.01442 236.921 9.40214C236.43 9.78986 235.905 10.0914 235.348 10.3068C234.79 10.5222 234.277 10.6622 233.808 10.7268C234.455 10.813 235.136 10.9746 235.85 11.2115C236.586 11.4484 237.255 11.8038 237.858 12.2777C238.483 12.73 238.996 13.3116 239.398 14.0224C239.799 14.7333 240 15.6056 240 16.6395V16.9626C240 17.9535 239.821 18.8797 239.464 19.7413C239.13 20.6029 238.55 21.3568 237.724 22.0029C236.898 22.6276 235.805 23.123 234.444 23.4892C233.083 23.8554 231.387 24.0385 229.356 24.0385H208.571V0ZM217.608 5.6219V9.11135H226.813C227.772 9.11135 228.43 8.9498 228.787 8.62671C229.144 8.30361 229.323 7.89435 229.323 7.39894V7.33432C229.323 6.81736 229.133 6.4081 228.754 6.10655C228.397 5.78345 227.75 5.6219 226.813 5.6219H217.608ZM217.608 14.3132V18.1581H227.482C228.085 18.1581 228.564 18.1042 228.921 17.9965C229.301 17.8673 229.591 17.7165 229.792 17.5442C229.992 17.3503 230.126 17.1457 230.193 16.9303C230.26 16.6934 230.294 16.4564 230.294 16.2195V16.0903C230.294 15.8533 230.26 15.6272 230.193 15.4118C230.126 15.1964 229.992 15.0133 229.792 14.8625C229.591 14.6902 229.301 14.5609 228.921 14.4748C228.564 14.3671 228.085 14.3132 227.482 14.3132H217.608Z" fill="white"/>
</g>
<defs>
<clipPath id="clip0_0_1035">
<rect width="240" height="25" fill="white"/>
</clipPath>
</defs>
</svg>
