<svg width="452" height="588" viewBox="0 0 452 588" fill="none" xmlns="http://www.w3.org/2000/svg">
<g clip-path="url(#clip0_2010_205)">
<rect x="62" y="17" width="343" height="165" rx="20" fill="#4452FE"/>
<rect x="57" y="248" width="353" height="185" rx="20" fill="#4452FE"/>
<path d="M107 182H110V248H107V182Z" fill="#4452FE"/>
<path d="M104 433H107V512H104V433Z" fill="#4452FE"/>
<rect x="360" y="182" width="3" height="66" fill="#4452FE"/>
<rect x="357" y="433" width="3" height="79" fill="#4452FE"/>
<rect x="-922" y="508" width="1373" height="4" fill="white"/>
<circle cx="106.5" cy="510.5" r="11.5" fill="white"/>
<circle cx="359.5" cy="510.5" r="11.5" fill="white"/>
<path d="M43.4848 570V565.476L57.9408 551.748C59.1542 550.604 60.0555 549.599 60.6448 548.732C61.2342 547.865 61.6155 547.068 61.7888 546.34C61.9968 545.577 62.1008 544.867 62.1008 544.208C62.1008 542.544 61.5288 541.261 60.3848 540.36C59.2408 539.424 57.5595 538.956 55.3408 538.956C53.5728 538.956 51.9608 539.268 50.5048 539.892C49.0835 540.516 47.8528 541.469 46.8128 542.752L42.0808 539.112C43.5022 537.205 45.4088 535.732 47.8008 534.692C50.2275 533.617 52.9315 533.08 55.9128 533.08C58.5475 533.08 60.8355 533.513 62.7768 534.38C64.7528 535.212 66.2608 536.408 67.3008 537.968C68.3755 539.528 68.9128 541.383 68.9128 543.532C68.9128 544.711 68.7568 545.889 68.4448 547.068C68.1328 548.212 67.5435 549.425 66.6768 550.708C65.8102 551.991 64.5448 553.429 62.8808 555.024L50.4528 566.828L49.0488 564.28H70.3168V570H43.4848ZM89.6025 570.52C86.7251 570.52 84.1251 569.792 81.8025 568.336C79.5145 566.88 77.7118 564.765 76.3945 561.992C75.0771 559.184 74.4185 555.787 74.4185 551.8C74.4185 547.813 75.0771 544.433 76.3945 541.66C77.7118 538.852 79.5145 536.72 81.8025 535.264C84.1251 533.808 86.7251 533.08 89.6025 533.08C92.5145 533.08 95.1145 533.808 97.4025 535.264C99.6905 536.72 101.493 538.852 102.81 541.66C104.162 544.433 104.838 547.813 104.838 551.8C104.838 555.787 104.162 559.184 102.81 561.992C101.493 564.765 99.6905 566.88 97.4025 568.336C95.1145 569.792 92.5145 570.52 89.6025 570.52ZM89.6025 564.644C91.3011 564.644 92.7745 564.193 94.0225 563.292C95.2705 562.356 96.2411 560.935 96.9345 559.028C97.6625 557.121 98.0265 554.712 98.0265 551.8C98.0265 548.853 97.6625 546.444 96.9345 544.572C96.2411 542.665 95.2705 541.261 94.0225 540.36C92.7745 539.424 91.3011 538.956 89.6025 538.956C87.9731 538.956 86.5171 539.424 85.2345 540.36C83.9865 541.261 82.9985 542.665 82.2705 544.572C81.5771 546.444 81.2305 548.853 81.2305 551.8C81.2305 554.712 81.5771 557.121 82.2705 559.028C82.9985 560.935 83.9865 562.356 85.2345 563.292C86.5171 564.193 87.9731 564.644 89.6025 564.644ZM109.088 570V565.476L123.544 551.748C124.757 550.604 125.659 549.599 126.248 548.732C126.837 547.865 127.219 547.068 127.392 546.34C127.6 545.577 127.704 544.867 127.704 544.208C127.704 542.544 127.132 541.261 125.988 540.36C124.844 539.424 123.163 538.956 120.944 538.956C119.176 538.956 117.564 539.268 116.108 539.892C114.687 540.516 113.456 541.469 112.416 542.752L107.684 539.112C109.105 537.205 111.012 535.732 113.404 534.692C115.831 533.617 118.535 533.08 121.516 533.08C124.151 533.08 126.439 533.513 128.38 534.38C130.356 535.212 131.864 536.408 132.904 537.968C133.979 539.528 134.516 541.383 134.516 543.532C134.516 544.711 134.36 545.889 134.048 547.068C133.736 548.212 133.147 549.425 132.28 550.708C131.413 551.991 130.148 553.429 128.484 555.024L116.056 566.828L114.652 564.28H135.92V570H109.088ZM155.778 570.52C152.484 570.52 149.659 569.827 147.302 568.44C144.944 567.019 143.142 564.973 141.894 562.304C140.646 559.635 140.022 556.341 140.022 552.424C140.022 548.264 140.767 544.745 142.258 541.868C143.783 538.991 145.88 536.807 148.55 535.316C151.254 533.825 154.356 533.08 157.858 533.08C159.695 533.08 161.446 533.271 163.11 533.652C164.808 534.033 166.247 534.623 167.426 535.42L164.93 540.516C163.924 539.857 162.832 539.407 161.654 539.164C160.51 538.887 159.296 538.748 158.014 538.748C154.582 538.748 151.86 539.805 149.85 541.92C147.839 544.035 146.834 547.155 146.834 551.28C146.834 551.939 146.851 552.719 146.886 553.62C146.92 554.487 147.042 555.371 147.25 556.272L145.17 553.984C145.794 552.563 146.643 551.384 147.718 550.448C148.827 549.477 150.127 548.749 151.618 548.264C153.143 547.779 154.79 547.536 156.558 547.536C158.95 547.536 161.082 548.004 162.954 548.94C164.826 549.841 166.316 551.141 167.426 552.84C168.535 554.504 169.09 556.463 169.09 558.716C169.09 561.108 168.5 563.188 167.322 564.956C166.143 566.724 164.548 568.093 162.538 569.064C160.527 570.035 158.274 570.52 155.778 570.52ZM155.414 565.216C156.8 565.216 158.031 564.973 159.106 564.488C160.18 563.968 161.012 563.24 161.602 562.304C162.226 561.368 162.538 560.276 162.538 559.028C162.538 557.121 161.879 555.613 160.562 554.504C159.244 553.395 157.476 552.84 155.258 552.84C153.802 552.84 152.519 553.117 151.41 553.672C150.335 554.192 149.468 554.92 148.81 555.856C148.186 556.792 147.874 557.867 147.874 559.08C147.874 560.189 148.168 561.212 148.758 562.148C149.347 563.084 150.196 563.829 151.306 564.384C152.45 564.939 153.819 565.216 155.414 565.216Z" fill="#4452FE"/>
<path d="M299.467 571V566.476L313.923 552.748C315.137 551.604 316.038 550.599 316.627 549.732C317.217 548.865 317.598 548.068 317.771 547.34C317.979 546.577 318.083 545.867 318.083 545.208C318.083 543.544 317.511 542.261 316.367 541.36C315.223 540.424 313.542 539.956 311.323 539.956C309.555 539.956 307.943 540.268 306.487 540.892C305.066 541.516 303.835 542.469 302.795 543.752L298.063 540.112C299.485 538.205 301.391 536.732 303.783 535.692C306.21 534.617 308.914 534.08 311.895 534.08C314.53 534.08 316.818 534.513 318.759 535.38C320.735 536.212 322.243 537.408 323.283 538.968C324.358 540.528 324.895 542.383 324.895 544.532C324.895 545.711 324.739 546.889 324.427 548.068C324.115 549.212 323.526 550.425 322.659 551.708C321.793 552.991 320.527 554.429 318.863 556.024L306.435 567.828L305.031 565.28H326.299V571H299.467ZM345.585 571.52C342.708 571.52 340.108 570.792 337.785 569.336C335.497 567.88 333.694 565.765 332.377 562.992C331.06 560.184 330.401 556.787 330.401 552.8C330.401 548.813 331.06 545.433 332.377 542.66C333.694 539.852 335.497 537.72 337.785 536.264C340.108 534.808 342.708 534.08 345.585 534.08C348.497 534.08 351.097 534.808 353.385 536.264C355.673 537.72 357.476 539.852 358.793 542.66C360.145 545.433 360.821 548.813 360.821 552.8C360.821 556.787 360.145 560.184 358.793 562.992C357.476 565.765 355.673 567.88 353.385 569.336C351.097 570.792 348.497 571.52 345.585 571.52ZM345.585 565.644C347.284 565.644 348.757 565.193 350.005 564.292C351.253 563.356 352.224 561.935 352.917 560.028C353.645 558.121 354.009 555.712 354.009 552.8C354.009 549.853 353.645 547.444 352.917 545.572C352.224 543.665 351.253 542.261 350.005 541.36C348.757 540.424 347.284 539.956 345.585 539.956C343.956 539.956 342.5 540.424 341.217 541.36C339.969 542.261 338.981 543.665 338.253 545.572C337.56 547.444 337.213 549.853 337.213 552.8C337.213 555.712 337.56 558.121 338.253 560.028C338.981 561.935 339.969 563.356 341.217 564.292C342.5 565.193 343.956 565.644 345.585 565.644ZM365.07 571V566.476L379.526 552.748C380.74 551.604 381.641 550.599 382.23 549.732C382.82 548.865 383.201 548.068 383.374 547.34C383.582 546.577 383.686 545.867 383.686 545.208C383.686 543.544 383.114 542.261 381.97 541.36C380.826 540.424 379.145 539.956 376.926 539.956C375.158 539.956 373.546 540.268 372.09 540.892C370.669 541.516 369.438 542.469 368.398 543.752L363.666 540.112C365.088 538.205 366.994 536.732 369.386 535.692C371.813 534.617 374.517 534.08 377.498 534.08C380.133 534.08 382.421 534.513 384.362 535.38C386.338 536.212 387.846 537.408 388.886 538.968C389.961 540.528 390.498 542.383 390.498 544.532C390.498 545.711 390.342 546.889 390.03 548.068C389.718 549.212 389.129 550.425 388.262 551.708C387.396 552.991 386.13 554.429 384.466 556.024L372.038 567.828L370.634 565.28H391.902V571H365.07ZM402.088 571L417.116 537.304L418.884 540.32H398.24L401.464 537.044V546.508H395.172V534.6H423.46V539.124L409.316 571H402.088Z" fill="#4452FE"/>
<path d="M123.697 47V33H135.477V47H134.017V33.88L134.397 34.28H124.777L125.157 33.88V47H123.697ZM145.481 47.1C144.574 47.1 143.754 46.8933 143.021 46.48C142.287 46.0533 141.701 45.4467 141.261 44.66C140.834 43.86 140.621 42.8867 140.621 41.74C140.621 40.5933 140.834 39.6267 141.261 38.84C141.687 38.04 142.267 37.4333 143.001 37.02C143.734 36.6067 144.561 36.4 145.481 36.4C146.481 36.4 147.374 36.6267 148.161 37.08C148.961 37.52 149.587 38.1467 150.041 38.96C150.494 39.76 150.721 40.6867 150.721 41.74C150.721 42.8067 150.494 43.74 150.041 44.54C149.587 45.34 148.961 45.9667 148.161 46.42C147.374 46.8733 146.481 47.1 145.481 47.1ZM140.061 50.88V36.5H141.421V39.66L141.281 41.76L141.481 43.88V50.88H140.061ZM145.381 45.84C146.127 45.84 146.794 45.6733 147.381 45.34C147.967 44.9933 148.434 44.5133 148.781 43.9C149.127 43.2733 149.301 42.5533 149.301 41.74C149.301 40.9267 149.127 40.2133 148.781 39.6C148.434 38.9867 147.967 38.5067 147.381 38.16C146.794 37.8133 146.127 37.64 145.381 37.64C144.634 37.64 143.961 37.8133 143.361 38.16C142.774 38.5067 142.307 38.9867 141.961 39.6C141.627 40.2133 141.461 40.9267 141.461 41.74C141.461 42.5533 141.627 43.2733 141.961 43.9C142.307 44.5133 142.774 44.9933 143.361 45.34C143.961 45.6733 144.634 45.84 145.381 45.84ZM158.292 47.1C157.278 47.1 156.365 46.8733 155.552 46.42C154.752 45.9533 154.118 45.32 153.652 44.52C153.185 43.7067 152.952 42.78 152.952 41.74C152.952 40.6867 153.185 39.76 153.652 38.96C154.118 38.16 154.752 37.5333 155.552 37.08C156.352 36.6267 157.265 36.4 158.292 36.4C159.332 36.4 160.252 36.6267 161.052 37.08C161.865 37.5333 162.498 38.16 162.952 38.96C163.418 39.76 163.652 40.6867 163.652 41.74C163.652 42.78 163.418 43.7067 162.952 44.52C162.498 45.32 161.865 45.9533 161.052 46.42C160.238 46.8733 159.318 47.1 158.292 47.1ZM158.292 45.84C159.052 45.84 159.725 45.6733 160.312 45.34C160.898 44.9933 161.358 44.5133 161.692 43.9C162.038 43.2733 162.212 42.5533 162.212 41.74C162.212 40.9133 162.038 40.1933 161.692 39.58C161.358 38.9667 160.898 38.4933 160.312 38.16C159.725 37.8133 159.058 37.64 158.312 37.64C157.565 37.64 156.898 37.8133 156.312 38.16C155.725 38.4933 155.258 38.9667 154.912 39.58C154.565 40.1933 154.392 40.9133 154.392 41.74C154.392 42.5533 154.565 43.2733 154.912 43.9C155.258 44.5133 155.725 44.9933 156.312 45.34C156.898 45.6733 157.558 45.84 158.292 45.84ZM172.306 47.1C171.4 47.1 170.58 46.8933 169.846 46.48C169.113 46.0533 168.526 45.4467 168.086 44.66C167.66 43.86 167.446 42.8867 167.446 41.74C167.446 40.5933 167.66 39.6267 168.086 38.84C168.513 38.04 169.093 37.4333 169.826 37.02C170.56 36.6067 171.386 36.4 172.306 36.4C173.306 36.4 174.2 36.6267 174.986 37.08C175.786 37.52 176.413 38.1467 176.866 38.96C177.32 39.76 177.546 40.6867 177.546 41.74C177.546 42.8067 177.32 43.74 176.866 44.54C176.413 45.34 175.786 45.9667 174.986 46.42C174.2 46.8733 173.306 47.1 172.306 47.1ZM166.886 50.88V36.5H168.246V39.66L168.106 41.76L168.306 43.88V50.88H166.886ZM172.206 45.84C172.953 45.84 173.62 45.6733 174.206 45.34C174.793 44.9933 175.26 44.5133 175.606 43.9C175.953 43.2733 176.126 42.5533 176.126 41.74C176.126 40.9267 175.953 40.2133 175.606 39.6C175.26 38.9867 174.793 38.5067 174.206 38.16C173.62 37.8133 172.953 37.64 172.206 37.64C171.46 37.64 170.786 37.8133 170.186 38.16C169.6 38.5067 169.133 38.9867 168.786 39.6C168.453 40.2133 168.286 40.9267 168.286 41.74C168.286 42.5533 168.453 43.2733 168.786 43.9C169.133 44.5133 169.6 44.9933 170.186 45.34C170.786 45.6733 171.46 45.84 172.206 45.84ZM187.259 47V44.68L187.199 44.3V40.42C187.199 39.5267 186.945 38.84 186.439 38.36C185.945 37.88 185.205 37.64 184.219 37.64C183.539 37.64 182.892 37.7533 182.279 37.98C181.665 38.2067 181.145 38.5067 180.719 38.88L180.079 37.82C180.612 37.3667 181.252 37.02 181.999 36.78C182.745 36.5267 183.532 36.4 184.359 36.4C185.719 36.4 186.765 36.74 187.499 37.42C188.245 38.0867 188.619 39.1067 188.619 40.48V47H187.259ZM183.639 47.1C182.852 47.1 182.165 46.9733 181.579 46.72C181.005 46.4533 180.565 46.0933 180.259 45.64C179.952 45.1733 179.799 44.64 179.799 44.04C179.799 43.4933 179.925 43 180.179 42.56C180.445 42.1067 180.872 41.7467 181.459 41.48C182.059 41.2 182.859 41.06 183.859 41.06H187.479V42.12H183.899C182.885 42.12 182.179 42.3 181.779 42.66C181.392 43.02 181.199 43.4667 181.199 44C181.199 44.6 181.432 45.08 181.899 45.44C182.365 45.8 183.019 45.98 183.859 45.98C184.659 45.98 185.345 45.8 185.919 45.44C186.505 45.0667 186.932 44.5333 187.199 43.84L187.519 44.82C187.252 45.5133 186.785 46.0667 186.119 46.48C185.465 46.8933 184.639 47.1 183.639 47.1ZM197.319 47.12C196.466 47.12 195.706 46.98 195.039 46.7C194.386 46.42 193.826 45.9933 193.359 45.42C192.892 44.8467 192.539 44.14 192.299 43.3C192.059 42.4467 191.939 41.46 191.939 40.34C191.939 39.34 192.032 38.4667 192.219 37.72C192.406 36.96 192.666 36.3067 192.999 35.76C193.332 35.2133 193.719 34.7533 194.159 34.38C194.612 33.9933 195.099 33.6867 195.619 33.46C196.152 33.22 196.699 33.04 197.259 32.92L201.979 31.82L202.219 33.14L197.779 34.14C197.499 34.2067 197.159 34.3 196.759 34.42C196.372 34.54 195.972 34.72 195.559 34.96C195.159 35.2 194.786 35.5333 194.439 35.96C194.092 36.3867 193.812 36.94 193.599 37.62C193.399 38.2867 193.299 39.12 193.299 40.12C193.299 40.3333 193.306 40.5067 193.319 40.64C193.332 40.76 193.346 40.8933 193.359 41.04C193.386 41.1733 193.406 41.3733 193.419 41.64L192.799 41.12C192.946 40.3067 193.246 39.6 193.699 39C194.152 38.3867 194.719 37.9133 195.399 37.58C196.092 37.2333 196.859 37.06 197.699 37.06C198.672 37.06 199.539 37.2733 200.299 37.7C201.059 38.1133 201.652 38.6933 202.079 39.44C202.519 40.1867 202.739 41.0533 202.739 42.04C202.739 43.0133 202.512 43.8867 202.059 44.66C201.619 45.4333 200.992 46.04 200.179 46.48C199.366 46.9067 198.412 47.12 197.319 47.12ZM197.479 45.94C198.226 45.94 198.886 45.7733 199.459 45.44C200.032 45.0933 200.479 44.6267 200.799 44.04C201.132 43.4533 201.299 42.7933 201.299 42.06C201.299 41.34 201.132 40.7 200.799 40.14C200.479 39.58 200.032 39.14 199.459 38.82C198.886 38.4867 198.219 38.32 197.459 38.32C196.712 38.32 196.052 38.48 195.479 38.8C194.906 39.1067 194.452 39.54 194.119 40.1C193.799 40.66 193.639 41.3067 193.639 42.04C193.639 42.7733 193.799 43.4333 194.119 44.02C194.452 44.6067 194.906 45.0733 195.479 45.42C196.066 45.7667 196.732 45.94 197.479 45.94ZM210.302 47.1C209.289 47.1 208.376 46.8733 207.562 46.42C206.762 45.9533 206.129 45.32 205.662 44.52C205.196 43.7067 204.962 42.78 204.962 41.74C204.962 40.6867 205.196 39.76 205.662 38.96C206.129 38.16 206.762 37.5333 207.562 37.08C208.362 36.6267 209.276 36.4 210.302 36.4C211.342 36.4 212.262 36.6267 213.062 37.08C213.876 37.5333 214.509 38.16 214.962 38.96C215.429 39.76 215.662 40.6867 215.662 41.74C215.662 42.78 215.429 43.7067 214.962 44.52C214.509 45.32 213.876 45.9533 213.062 46.42C212.249 46.8733 211.329 47.1 210.302 47.1ZM210.302 45.84C211.062 45.84 211.736 45.6733 212.322 45.34C212.909 44.9933 213.369 44.5133 213.702 43.9C214.049 43.2733 214.222 42.5533 214.222 41.74C214.222 40.9133 214.049 40.1933 213.702 39.58C213.369 38.9667 212.909 38.4933 212.322 38.16C211.736 37.8133 211.069 37.64 210.322 37.64C209.576 37.64 208.909 37.8133 208.322 38.16C207.736 38.4933 207.269 38.9667 206.922 39.58C206.576 40.1933 206.402 40.9133 206.402 41.74C206.402 42.5533 206.576 43.2733 206.922 43.9C207.269 44.5133 207.736 44.9933 208.322 45.34C208.909 45.6733 209.569 45.84 210.302 45.84ZM220.507 47V37.36L220.867 37.74H216.527V36.5H225.907V37.74H221.567L221.927 37.36V47H220.507ZM235.86 47L231.54 41.8L232.72 41.1L237.54 47H235.86ZM228.16 47V36.5H229.58V47H228.16ZM229.14 42.32V41.1H232.52V42.32H229.14ZM232.84 41.9L231.52 41.7L235.7 36.5H237.24L232.84 41.9ZM246.306 47V44.68L246.246 44.3V40.42C246.246 39.5267 245.992 38.84 245.486 38.36C244.992 37.88 244.252 37.64 243.266 37.64C242.586 37.64 241.939 37.7533 241.326 37.98C240.712 38.2067 240.192 38.5067 239.766 38.88L239.126 37.82C239.659 37.3667 240.299 37.02 241.046 36.78C241.792 36.5267 242.579 36.4 243.406 36.4C244.766 36.4 245.812 36.74 246.546 37.42C247.292 38.0867 247.666 39.1067 247.666 40.48V47H246.306ZM242.686 47.1C241.899 47.1 241.212 46.9733 240.626 46.72C240.052 46.4533 239.612 46.0933 239.306 45.64C238.999 45.1733 238.846 44.64 238.846 44.04C238.846 43.4933 238.972 43 239.226 42.56C239.492 42.1067 239.919 41.7467 240.506 41.48C241.106 41.2 241.906 41.06 242.906 41.06H246.526V42.12H242.946C241.932 42.12 241.226 42.3 240.826 42.66C240.439 43.02 240.246 43.4667 240.246 44C240.246 44.6 240.479 45.08 240.946 45.44C241.412 45.8 242.066 45.98 242.906 45.98C243.706 45.98 244.392 45.8 244.966 45.44C245.552 45.0667 245.979 44.5333 246.246 43.84L246.566 44.82C246.299 45.5133 245.832 46.0667 245.166 46.48C244.512 46.8933 243.686 47.1 242.686 47.1ZM259.42 38.82H266.38V40.96H259.42V38.82ZM259.62 44.82H267.52V47H257.02V33H267.24V35.18H259.62V44.82ZM270.339 47V36.32H275.559C276.852 36.32 277.865 36.56 278.599 37.04C279.345 37.52 279.719 38.2 279.719 39.08C279.719 39.9467 279.372 40.6267 278.679 41.12C277.985 41.6 277.065 41.84 275.919 41.84L276.219 41.22C277.512 41.22 278.472 41.46 279.099 41.94C279.739 42.4067 280.059 43.0933 280.059 44C280.059 44.9467 279.705 45.6867 278.999 46.22C278.292 46.74 277.219 47 275.779 47H270.339ZM272.719 45.18H275.579C276.259 45.18 276.772 45.0733 277.119 44.86C277.465 44.6333 277.639 44.2933 277.639 43.84C277.639 43.36 277.479 43.0067 277.159 42.78C276.839 42.5533 276.339 42.44 275.659 42.44H272.719V45.18ZM272.719 40.78H275.339C275.979 40.78 276.459 40.6667 276.779 40.44C277.112 40.2 277.279 39.8667 277.279 39.44C277.279 39 277.112 38.6733 276.779 38.46C276.459 38.2467 275.979 38.14 275.339 38.14H272.719V40.78ZM288.841 47.14C287.975 47.14 287.181 46.94 286.461 46.54C285.755 46.14 285.188 45.54 284.761 44.74C284.348 43.9267 284.141 42.9 284.141 41.66C284.141 40.4067 284.341 39.38 284.741 38.58C285.155 37.78 285.715 37.1867 286.421 36.8C287.128 36.4 287.935 36.2 288.841 36.2C289.895 36.2 290.821 36.4267 291.621 36.88C292.435 37.3333 293.075 37.9667 293.541 38.78C294.021 39.5933 294.261 40.5533 294.261 41.66C294.261 42.7667 294.021 43.7333 293.541 44.56C293.075 45.3733 292.435 46.0067 291.621 46.46C290.821 46.9133 289.895 47.14 288.841 47.14ZM282.921 50.88V36.32H285.301V38.84L285.221 41.68L285.421 44.52V50.88H282.921ZM288.561 45C289.161 45 289.695 44.8667 290.161 44.6C290.641 44.3333 291.021 43.9467 291.301 43.44C291.581 42.9333 291.721 42.34 291.721 41.66C291.721 40.9667 291.581 40.3733 291.301 39.88C291.021 39.3733 290.641 38.9867 290.161 38.72C289.695 38.4533 289.161 38.32 288.561 38.32C287.961 38.32 287.421 38.4533 286.941 38.72C286.461 38.9867 286.081 39.3733 285.801 39.88C285.521 40.3733 285.381 40.9667 285.381 41.66C285.381 42.34 285.521 42.9333 285.801 43.44C286.081 43.9467 286.461 44.3333 286.941 44.6C287.421 44.8667 287.961 45 288.561 45ZM301.71 47.14C300.616 47.14 299.643 46.9067 298.79 46.44C297.936 45.96 297.263 45.3067 296.77 44.48C296.276 43.6533 296.03 42.7133 296.03 41.66C296.03 40.5933 296.276 39.6533 296.77 38.84C297.263 38.0133 297.936 37.3667 298.79 36.9C299.643 36.4333 300.616 36.2 301.71 36.2C302.816 36.2 303.796 36.4333 304.65 36.9C305.516 37.3667 306.19 38.0067 306.67 38.82C307.163 39.6333 307.41 40.58 307.41 41.66C307.41 42.7133 307.163 43.6533 306.67 44.48C306.19 45.3067 305.516 45.96 304.65 46.44C303.796 46.9067 302.816 47.14 301.71 47.14ZM301.71 45C302.323 45 302.87 44.8667 303.35 44.6C303.83 44.3333 304.203 43.9467 304.47 43.44C304.75 42.9333 304.89 42.34 304.89 41.66C304.89 40.9667 304.75 40.3733 304.47 39.88C304.203 39.3733 303.83 38.9867 303.35 38.72C302.87 38.4533 302.33 38.32 301.73 38.32C301.116 38.32 300.57 38.4533 300.09 38.72C299.623 38.9867 299.25 39.3733 298.97 39.88C298.69 40.3733 298.55 40.9667 298.55 41.66C298.55 42.34 298.69 42.9333 298.97 43.44C299.25 43.9467 299.623 44.3333 300.09 44.6C300.57 44.8667 301.11 45 301.71 45ZM310.079 47V36.32H320.319V47H317.839V37.86L318.419 38.44H311.999L312.579 37.86V47H310.079ZM334.672 47V36.32H337.172V47H334.672ZM329.092 39.84C330.466 39.84 331.506 40.1467 332.212 40.76C332.932 41.3733 333.292 42.24 333.292 43.36C333.292 44.52 332.892 45.4267 332.092 46.08C331.306 46.72 330.186 47.0333 328.732 47.02L323.892 47V36.32H326.392V39.82L329.092 39.84ZM328.512 45.18C329.246 45.1933 329.806 45.04 330.192 44.72C330.579 44.4 330.772 43.9333 330.772 43.32C330.772 42.7067 330.579 42.2667 330.192 42C329.819 41.72 329.259 41.5733 328.512 41.56L326.392 41.54V45.16L328.512 45.18ZM340.033 50.02L341.193 45.6L341.533 47.08C341.066 47.08 340.673 46.94 340.353 46.66C340.046 46.3667 339.893 45.9733 339.893 45.48C339.893 44.9733 340.046 44.5733 340.353 44.28C340.673 43.9733 341.06 43.82 341.513 43.82C341.98 43.82 342.366 43.9733 342.673 44.28C342.98 44.5867 343.133 44.9867 343.133 45.48C343.133 45.6133 343.12 45.76 343.093 45.92C343.066 46.0667 343.02 46.24 342.953 46.44C342.9 46.64 342.806 46.8933 342.673 47.2L341.653 50.02H340.033ZM177.16 77.2C176.093 77.2 175.1 77.0267 174.18 76.68C173.273 76.32 172.48 75.82 171.8 75.18C171.133 74.5267 170.613 73.76 170.24 72.88C169.867 72 169.68 71.04 169.68 70C169.68 68.96 169.867 68 170.24 67.12C170.613 66.24 171.14 65.48 171.82 64.84C172.5 64.1867 173.293 63.6867 174.2 63.34C175.107 62.98 176.1 62.8 177.18 62.8C178.327 62.8 179.373 63 180.32 63.4C181.267 63.7867 182.067 64.3667 182.72 65.14L181.04 66.72C180.533 66.1733 179.967 65.7667 179.34 65.5C178.713 65.22 178.033 65.08 177.3 65.08C176.567 65.08 175.893 65.2 175.28 65.44C174.68 65.68 174.153 66.02 173.7 66.46C173.26 66.9 172.913 67.42 172.66 68.02C172.42 68.62 172.3 69.28 172.3 70C172.3 70.72 172.42 71.38 172.66 71.98C172.913 72.58 173.26 73.1 173.7 73.54C174.153 73.98 174.68 74.32 175.28 74.56C175.893 74.8 176.567 74.92 177.3 74.92C178.033 74.92 178.713 74.7867 179.34 74.52C179.967 74.24 180.533 73.82 181.04 73.26L182.72 74.86C182.067 75.62 181.267 76.2 180.32 76.6C179.373 77 178.32 77.2 177.16 77.2ZM193.654 74.8L193.074 75.44V63H195.634V75.44L195.014 74.8H201.394L200.774 75.44V63H203.334V77H185.354V63H187.914V75.44L187.314 74.8H193.654ZM205.688 77L211.988 63H214.548L220.868 77H218.148L212.728 64.38H213.768L208.368 77H205.688ZM208.588 73.76L209.288 71.72H216.848L217.548 73.76H208.588ZM228.662 77V66.32H231.162V73.36L237.062 66.32H239.342V77H236.842V69.96L230.962 77H228.662ZM247.132 77L253.432 63H255.992L262.312 77H259.592L254.172 64.38H255.212L249.812 77H247.132ZM250.032 73.76L250.732 71.72H258.292L258.992 73.76H250.032ZM267.759 77.18C266.946 77.18 266.139 77.0867 265.339 76.9C264.553 76.7 263.839 76.42 263.199 76.06L263.899 74.2C264.419 74.4933 265.006 74.72 265.659 74.88C266.313 75.04 266.966 75.12 267.619 75.12C268.179 75.12 268.659 75.0667 269.059 74.96C269.459 74.84 269.766 74.6667 269.979 74.44C270.206 74.2133 270.319 73.9533 270.319 73.66C270.319 73.2333 270.133 72.9133 269.759 72.7C269.399 72.4733 268.879 72.36 268.199 72.36H266.139V70.68H267.999C268.426 70.68 268.786 70.6333 269.079 70.54C269.386 70.4467 269.619 70.3067 269.779 70.12C269.939 69.9333 270.019 69.7133 270.019 69.46C270.019 69.2067 269.919 68.9867 269.719 68.8C269.533 68.6 269.259 68.4533 268.899 68.36C268.539 68.2533 268.106 68.2 267.599 68.2C267.066 68.2 266.513 68.2667 265.939 68.4C265.379 68.5333 264.806 68.7267 264.219 68.98L263.579 67.14C264.259 66.8333 264.919 66.6 265.559 66.44C266.213 66.2667 266.859 66.1733 267.499 66.16C268.473 66.12 269.339 66.22 270.099 66.46C270.859 66.7 271.459 67.0467 271.899 67.5C272.339 67.9533 272.559 68.4867 272.559 69.1C272.559 69.6067 272.399 70.0667 272.079 70.48C271.773 70.88 271.346 71.1933 270.799 71.42C270.266 71.6467 269.653 71.76 268.959 71.76L269.039 71.22C270.226 71.22 271.159 71.46 271.839 71.94C272.519 72.4067 272.859 73.0467 272.859 73.86C272.859 74.5133 272.639 75.0933 272.199 75.6C271.759 76.0933 271.153 76.48 270.379 76.76C269.619 77.04 268.746 77.18 267.759 77.18ZM275.634 77V66.32H278.134V73.36L284.034 66.32H286.314V77H283.814V69.96L277.934 77H275.634ZM289.877 77V66.32H292.377V73.36L298.277 66.32H300.557V77H298.057V69.96L292.177 77H289.877ZM106.583 107V93H108.043V104.6L117.003 93H118.343V107H116.883V95.42L107.923 107H106.583ZM122.927 107V96.5H124.347V101.14H130.967V96.5H132.387V107H130.967V102.36H124.347V107H122.927ZM138.623 107V97.36L138.983 97.74H134.643V96.5H144.023V97.74H139.683L140.043 97.36V107H138.623ZM150.288 107.1C149.195 107.1 148.235 106.873 147.408 106.42C146.581 105.953 145.935 105.32 145.468 104.52C145.001 103.707 144.768 102.78 144.768 101.74C144.768 100.7 144.988 99.78 145.428 98.98C145.881 98.18 146.495 97.5533 147.268 97.1C148.055 96.6333 148.935 96.4 149.908 96.4C150.895 96.4 151.768 96.6267 152.528 97.08C153.301 97.52 153.908 98.1467 154.348 98.96C154.788 99.76 155.008 100.687 155.008 101.74C155.008 101.807 155.001 101.88 154.988 101.96C154.988 102.027 154.988 102.1 154.988 102.18H145.848V101.12H154.228L153.668 101.54C153.668 100.78 153.501 100.107 153.168 99.52C152.848 98.92 152.408 98.4533 151.848 98.12C151.288 97.7867 150.641 97.62 149.908 97.62C149.188 97.62 148.541 97.7867 147.968 98.12C147.395 98.4533 146.948 98.92 146.628 99.52C146.308 100.12 146.148 100.807 146.148 101.58V101.8C146.148 102.6 146.321 103.307 146.668 103.92C147.028 104.52 147.521 104.993 148.148 105.34C148.788 105.673 149.515 105.84 150.328 105.84C150.968 105.84 151.561 105.727 152.108 105.5C152.668 105.273 153.148 104.927 153.548 104.46L154.348 105.38C153.881 105.94 153.295 106.367 152.588 106.66C151.895 106.953 151.128 107.1 150.288 107.1ZM158.351 107V96.5H165.791V97.74H159.411L159.771 97.38V107H158.351ZM173.463 107.1C172.557 107.1 171.737 106.893 171.003 106.48C170.27 106.053 169.683 105.447 169.243 104.66C168.817 103.86 168.603 102.887 168.603 101.74C168.603 100.593 168.817 99.6267 169.243 98.84C169.67 98.04 170.25 97.4333 170.983 97.02C171.717 96.6067 172.543 96.4 173.463 96.4C174.463 96.4 175.357 96.6267 176.143 97.08C176.943 97.52 177.57 98.1467 178.023 98.96C178.477 99.76 178.703 100.687 178.703 101.74C178.703 102.807 178.477 103.74 178.023 104.54C177.57 105.34 176.943 105.967 176.143 106.42C175.357 106.873 174.463 107.1 173.463 107.1ZM168.043 110.88V96.5H169.403V99.66L169.263 101.76L169.463 103.88V110.88H168.043ZM173.363 105.84C174.11 105.84 174.777 105.673 175.363 105.34C175.95 104.993 176.417 104.513 176.763 103.9C177.11 103.273 177.283 102.553 177.283 101.74C177.283 100.927 177.11 100.213 176.763 99.6C176.417 98.9867 175.95 98.5067 175.363 98.16C174.777 97.8133 174.11 97.64 173.363 97.64C172.617 97.64 171.943 97.8133 171.343 98.16C170.757 98.5067 170.29 98.9867 169.943 99.6C169.61 100.213 169.443 100.927 169.443 101.74C169.443 102.553 169.61 103.273 169.943 103.9C170.29 104.513 170.757 104.993 171.343 105.34C171.943 105.673 172.617 105.84 173.363 105.84ZM188.416 107V104.68L188.356 104.3V100.42C188.356 99.5267 188.102 98.84 187.596 98.36C187.102 97.88 186.362 97.64 185.376 97.64C184.696 97.64 184.049 97.7533 183.436 97.98C182.822 98.2067 182.302 98.5067 181.876 98.88L181.236 97.82C181.769 97.3667 182.409 97.02 183.156 96.78C183.902 96.5267 184.689 96.4 185.516 96.4C186.876 96.4 187.922 96.74 188.656 97.42C189.402 98.0867 189.776 99.1067 189.776 100.48V107H188.416ZM184.796 107.1C184.009 107.1 183.322 106.973 182.736 106.72C182.162 106.453 181.722 106.093 181.416 105.64C181.109 105.173 180.956 104.64 180.956 104.04C180.956 103.493 181.082 103 181.336 102.56C181.602 102.107 182.029 101.747 182.616 101.48C183.216 101.2 184.016 101.06 185.016 101.06H188.636V102.12H185.056C184.042 102.12 183.336 102.3 182.936 102.66C182.549 103.02 182.356 103.467 182.356 104C182.356 104.6 182.589 105.08 183.056 105.44C183.522 105.8 184.176 105.98 185.016 105.98C185.816 105.98 186.502 105.8 187.076 105.44C187.662 105.067 188.089 104.533 188.356 103.84L188.676 104.82C188.409 105.513 187.942 106.067 187.276 106.48C186.622 106.893 185.796 107.1 184.796 107.1ZM193.756 107V96.5H195.176V105.76H201.596V96.5H203.016V107H193.756ZM203.376 109.54V106.88L203.736 107H201.596V105.76H204.716V109.54H203.376ZM207.628 107V96.5H209.048V104.84L216.068 96.5H217.328V107H215.908V98.64L208.908 107H207.628ZM228.377 107V103.22L228.637 103.52H225.077C223.731 103.52 222.677 103.227 221.917 102.64C221.157 102.053 220.777 101.2 220.777 100.08C220.777 98.88 221.184 97.9867 221.997 97.4C222.811 96.8 223.897 96.5 225.257 96.5H229.677V107H228.377ZM220.697 107L223.577 102.96H225.057L222.237 107H220.697ZM228.377 102.8V97.32L228.637 97.74H225.297C224.324 97.74 223.564 97.9267 223.017 98.3C222.484 98.6733 222.217 99.28 222.217 100.12C222.217 101.68 223.211 102.46 225.197 102.46H228.637L228.377 102.8ZM239.021 107V96.32H241.521V100.66H246.901V96.32H249.401V107H246.901V102.78H241.521V107H239.021ZM257.931 107.14C256.744 107.14 255.704 106.907 254.811 106.44C253.931 105.96 253.244 105.307 252.751 104.48C252.271 103.653 252.031 102.713 252.031 101.66C252.031 100.593 252.264 99.6533 252.731 98.84C253.211 98.0133 253.864 97.3667 254.691 96.9C255.531 96.4333 256.484 96.2 257.551 96.2C258.591 96.2 259.518 96.4267 260.331 96.88C261.144 97.3333 261.784 97.9733 262.251 98.8C262.718 99.6267 262.951 100.6 262.951 101.72C262.951 101.827 262.944 101.947 262.931 102.08C262.931 102.213 262.924 102.34 262.911 102.46H254.011V100.8H261.591L260.611 101.32C260.624 100.707 260.498 100.167 260.231 99.7C259.964 99.2333 259.598 98.8667 259.131 98.6C258.678 98.3333 258.151 98.2 257.551 98.2C256.938 98.2 256.398 98.3333 255.931 98.6C255.478 98.8667 255.118 99.24 254.851 99.72C254.598 100.187 254.471 100.74 254.471 101.38V101.78C254.471 102.42 254.618 102.987 254.911 103.48C255.204 103.973 255.618 104.353 256.151 104.62C256.684 104.887 257.298 105.02 257.991 105.02C258.591 105.02 259.131 104.927 259.611 104.74C260.091 104.553 260.518 104.26 260.891 103.86L262.231 105.4C261.751 105.96 261.144 106.393 260.411 106.7C259.691 106.993 258.864 107.14 257.931 107.14ZM265.885 107V96.32H268.385V103.36L274.285 96.32H276.565V107H274.065V99.96L268.185 107H265.885ZM271.065 95.06C269.999 95.06 269.179 94.8133 268.605 94.32C268.032 93.8133 267.739 93.08 267.725 92.12H269.385C269.399 92.6 269.545 92.98 269.825 93.26C270.119 93.54 270.525 93.68 271.045 93.68C271.552 93.68 271.952 93.54 272.245 93.26C272.552 92.98 272.712 92.6 272.725 92.12H274.425C274.412 93.08 274.112 93.8133 273.525 94.32C272.952 94.8133 272.132 95.06 271.065 95.06ZM286.048 107.14C285.182 107.14 284.388 106.94 283.668 106.54C282.962 106.14 282.395 105.54 281.968 104.74C281.555 103.927 281.348 102.9 281.348 101.66C281.348 100.407 281.548 99.38 281.948 98.58C282.362 97.78 282.922 97.1867 283.628 96.8C284.335 96.4 285.142 96.2 286.048 96.2C287.102 96.2 288.028 96.4267 288.828 96.88C289.642 97.3333 290.282 97.9667 290.748 98.78C291.228 99.5933 291.468 100.553 291.468 101.66C291.468 102.767 291.228 103.733 290.748 104.56C290.282 105.373 289.642 106.007 288.828 106.46C288.028 106.913 287.102 107.14 286.048 107.14ZM280.128 110.88V96.32H282.508V98.84L282.428 101.68L282.628 104.52V110.88H280.128ZM285.768 105C286.368 105 286.902 104.867 287.368 104.6C287.848 104.333 288.228 103.947 288.508 103.44C288.788 102.933 288.928 102.34 288.928 101.66C288.928 100.967 288.788 100.373 288.508 99.88C288.228 99.3733 287.848 98.9867 287.368 98.72C286.902 98.4533 286.368 98.32 285.768 98.32C285.168 98.32 284.628 98.4533 284.148 98.72C283.668 98.9867 283.288 99.3733 283.008 99.88C282.728 100.373 282.588 100.967 282.588 101.66C282.588 102.34 282.728 102.933 283.008 103.44C283.288 103.947 283.668 104.333 284.148 104.6C284.628 104.867 285.168 105 285.768 105ZM298.917 107.14C297.823 107.14 296.85 106.907 295.997 106.44C295.143 105.96 294.47 105.307 293.977 104.48C293.483 103.653 293.237 102.713 293.237 101.66C293.237 100.593 293.483 99.6533 293.977 98.84C294.47 98.0133 295.143 97.3667 295.997 96.9C296.85 96.4333 297.823 96.2 298.917 96.2C300.023 96.2 301.003 96.4333 301.857 96.9C302.723 97.3667 303.397 98.0067 303.877 98.82C304.37 99.6333 304.617 100.58 304.617 101.66C304.617 102.713 304.37 103.653 303.877 104.48C303.397 105.307 302.723 105.96 301.857 106.44C301.003 106.907 300.023 107.14 298.917 107.14ZM298.917 105C299.53 105 300.077 104.867 300.557 104.6C301.037 104.333 301.41 103.947 301.677 103.44C301.957 102.933 302.097 102.34 302.097 101.66C302.097 100.967 301.957 100.373 301.677 99.88C301.41 99.3733 301.037 98.9867 300.557 98.72C300.077 98.4533 299.537 98.32 298.937 98.32C298.323 98.32 297.777 98.4533 297.297 98.72C296.83 98.9867 296.457 99.3733 296.177 99.88C295.897 100.373 295.757 100.967 295.757 101.66C295.757 102.34 295.897 102.933 296.177 103.44C296.457 103.947 296.83 104.333 297.297 104.6C297.777 104.867 298.317 105 298.917 105ZM312.146 107.14C311.026 107.14 310.026 106.907 309.146 106.44C308.28 105.96 307.6 105.307 307.106 104.48C306.613 103.653 306.366 102.713 306.366 101.66C306.366 100.593 306.613 99.6533 307.106 98.84C307.6 98.0133 308.28 97.3667 309.146 96.9C310.026 96.4333 311.026 96.2 312.146 96.2C313.186 96.2 314.1 96.4133 314.886 96.84C315.686 97.2533 316.293 97.8667 316.706 98.68L314.786 99.8C314.466 99.2933 314.073 98.92 313.606 98.68C313.153 98.44 312.66 98.32 312.126 98.32C311.513 98.32 310.96 98.4533 310.466 98.72C309.973 98.9867 309.586 99.3733 309.306 99.88C309.026 100.373 308.886 100.967 308.886 101.66C308.886 102.353 309.026 102.953 309.306 103.46C309.586 103.953 309.973 104.333 310.466 104.6C310.96 104.867 311.513 105 312.126 105C312.66 105 313.153 104.88 313.606 104.64C314.073 104.4 314.466 104.027 314.786 103.52L316.706 104.64C316.293 105.44 315.686 106.06 314.886 106.5C314.1 106.927 313.186 107.14 312.146 107.14ZM323.931 107.14C322.744 107.14 321.704 106.907 320.811 106.44C319.931 105.96 319.244 105.307 318.751 104.48C318.271 103.653 318.031 102.713 318.031 101.66C318.031 100.593 318.264 99.6533 318.731 98.84C319.211 98.0133 319.864 97.3667 320.691 96.9C321.531 96.4333 322.484 96.2 323.551 96.2C324.591 96.2 325.518 96.4267 326.331 96.88C327.144 97.3333 327.784 97.9733 328.251 98.8C328.718 99.6267 328.951 100.6 328.951 101.72C328.951 101.827 328.944 101.947 328.931 102.08C328.931 102.213 328.924 102.34 328.911 102.46H320.011V100.8H327.591L326.611 101.32C326.624 100.707 326.498 100.167 326.231 99.7C325.964 99.2333 325.598 98.8667 325.131 98.6C324.678 98.3333 324.151 98.2 323.551 98.2C322.938 98.2 322.398 98.3333 321.931 98.6C321.478 98.8667 321.118 99.24 320.851 99.72C320.598 100.187 320.471 100.74 320.471 101.38V101.78C320.471 102.42 320.618 102.987 320.911 103.48C321.204 103.973 321.618 104.353 322.151 104.62C322.684 104.887 323.298 105.02 323.991 105.02C324.591 105.02 325.131 104.927 325.611 104.74C326.091 104.553 326.518 104.26 326.891 103.86L328.231 105.4C327.751 105.96 327.144 106.393 326.411 106.7C325.691 106.993 324.864 107.14 323.931 107.14ZM333.695 107V97.84L334.275 98.44H329.935V96.32H339.935V98.44H335.615L336.195 97.84V107H333.695ZM346.46 107.14C345.273 107.14 344.233 106.907 343.34 106.44C342.46 105.96 341.773 105.307 341.28 104.48C340.8 103.653 340.56 102.713 340.56 101.66C340.56 100.593 340.793 99.6533 341.26 98.84C341.74 98.0133 342.393 97.3667 343.22 96.9C344.06 96.4333 345.013 96.2 346.08 96.2C347.12 96.2 348.047 96.4267 348.86 96.88C349.673 97.3333 350.313 97.9733 350.78 98.8C351.247 99.6267 351.48 100.6 351.48 101.72C351.48 101.827 351.473 101.947 351.46 102.08C351.46 102.213 351.453 102.34 351.44 102.46H342.54V100.8H350.12L349.14 101.32C349.153 100.707 349.027 100.167 348.76 99.7C348.493 99.2333 348.127 98.8667 347.66 98.6C347.207 98.3333 346.68 98.2 346.08 98.2C345.467 98.2 344.927 98.3333 344.46 98.6C344.007 98.8667 343.647 99.24 343.38 99.72C343.127 100.187 343 100.74 343 101.38V101.78C343 102.42 343.147 102.987 343.44 103.48C343.733 103.973 344.147 104.353 344.68 104.62C345.213 104.887 345.827 105.02 346.52 105.02C347.12 105.02 347.66 104.927 348.14 104.74C348.62 104.553 349.047 104.26 349.42 103.86L350.76 105.4C350.28 105.96 349.673 106.393 348.94 106.7C348.22 106.993 347.393 107.14 346.46 107.14ZM354.414 107V96.32H356.914V103.36L362.814 96.32H365.094V107H362.594V99.96L356.714 107H354.414ZM359.594 95.06C358.528 95.06 357.708 94.8133 357.134 94.32C356.561 93.8133 356.268 93.08 356.254 92.12H357.914C357.928 92.6 358.074 92.98 358.354 93.26C358.648 93.54 359.054 93.68 359.574 93.68C360.081 93.68 360.481 93.54 360.774 93.26C361.081 92.98 361.241 92.6 361.254 92.12H362.954C362.941 93.08 362.641 93.8133 362.054 94.32C361.481 94.8133 360.661 95.06 359.594 95.06ZM150.212 137V123H156.032C157.512 123 158.672 123.307 159.512 123.92C160.366 124.52 160.792 125.407 160.792 126.58C160.792 127.74 160.386 128.62 159.572 129.22C158.759 129.807 157.692 130.1 156.372 130.1L156.712 129.6C158.272 129.6 159.459 129.907 160.272 130.52C161.086 131.133 161.492 132.033 161.492 133.22C161.492 134.42 161.066 135.353 160.212 136.02C159.372 136.673 158.106 137 156.412 137H150.212ZM151.672 135.82H156.412C157.599 135.82 158.499 135.6 159.112 135.16C159.726 134.72 160.032 134.04 160.032 133.12C160.032 132.213 159.726 131.547 159.112 131.12C158.499 130.693 157.599 130.48 156.412 130.48H151.672V135.82ZM151.672 129.34H155.952C157.032 129.34 157.859 129.127 158.432 128.7C159.019 128.26 159.312 127.613 159.312 126.76C159.312 125.907 159.019 125.267 158.432 124.84C157.859 124.4 157.032 124.18 155.952 124.18H151.672V129.34ZM175.293 137V126.5H176.713V137H175.293ZM169.473 130.2C170.793 130.213 171.799 130.507 172.493 131.08C173.186 131.653 173.533 132.48 173.533 133.56C173.533 134.68 173.159 135.54 172.413 136.14C171.666 136.74 170.599 137.033 169.213 137.02L165.053 137V126.5H166.473V130.16L169.473 130.2ZM169.113 135.94C170.099 135.953 170.839 135.76 171.333 135.36C171.839 134.947 172.093 134.347 172.093 133.56C172.093 132.773 171.846 132.2 171.353 131.84C170.859 131.467 170.113 131.273 169.113 131.26L166.473 131.22V135.9L169.113 135.94ZM179.236 137L183.676 131.24L183.656 131.94L179.436 126.5H181.036L184.496 131L183.896 130.98L187.356 126.5H188.916L184.656 132L184.676 131.24L189.156 137H187.536L183.876 132.2L184.436 132.28L180.836 137H179.236ZM195.632 137.1C194.619 137.1 193.706 136.873 192.892 136.42C192.092 135.953 191.459 135.32 190.992 134.52C190.526 133.707 190.292 132.78 190.292 131.74C190.292 130.687 190.526 129.76 190.992 128.96C191.459 128.16 192.092 127.533 192.892 127.08C193.692 126.627 194.606 126.4 195.632 126.4C196.672 126.4 197.592 126.627 198.392 127.08C199.206 127.533 199.839 128.16 200.292 128.96C200.759 129.76 200.992 130.687 200.992 131.74C200.992 132.78 200.759 133.707 200.292 134.52C199.839 135.32 199.206 135.953 198.392 136.42C197.579 136.873 196.659 137.1 195.632 137.1ZM195.632 135.84C196.392 135.84 197.066 135.673 197.652 135.34C198.239 134.993 198.699 134.513 199.032 133.9C199.379 133.273 199.552 132.553 199.552 131.74C199.552 130.913 199.379 130.193 199.032 129.58C198.699 128.967 198.239 128.493 197.652 128.16C197.066 127.813 196.399 127.64 195.652 127.64C194.906 127.64 194.239 127.813 193.652 128.16C193.066 128.493 192.599 128.967 192.252 129.58C191.906 130.193 191.732 130.913 191.732 131.74C191.732 132.553 191.906 133.273 192.252 133.9C192.599 134.513 193.066 134.993 193.652 135.34C194.239 135.673 194.899 135.84 195.632 135.84ZM211.368 136.32V127.74H206.308L206.188 130.08C206.162 130.787 206.115 131.48 206.048 132.16C205.995 132.84 205.895 133.467 205.748 134.04C205.615 134.6 205.422 135.06 205.168 135.42C204.915 135.767 204.588 135.967 204.188 136.02L202.768 135.76C203.182 135.773 203.522 135.627 203.788 135.32C204.055 135 204.262 134.567 204.408 134.02C204.555 133.473 204.662 132.853 204.728 132.16C204.795 131.453 204.848 130.733 204.888 130L205.028 126.5H212.788V136.32H211.368ZM202.328 139.54V135.76H214.428V139.54H213.088V137H203.668V139.54H202.328ZM222.83 137V126.5H224.25V131.14H230.87V126.5H232.29V137H230.87V132.36H224.25V137H222.83ZM243.046 137V134.68L242.986 134.3V130.42C242.986 129.527 242.733 128.84 242.226 128.36C241.733 127.88 240.993 127.64 240.006 127.64C239.326 127.64 238.68 127.753 238.066 127.98C237.453 128.207 236.933 128.507 236.506 128.88L235.866 127.82C236.4 127.367 237.04 127.02 237.786 126.78C238.533 126.527 239.32 126.4 240.146 126.4C241.506 126.4 242.553 126.74 243.286 127.42C244.033 128.087 244.406 129.107 244.406 130.48V137H243.046ZM239.426 137.1C238.64 137.1 237.953 136.973 237.366 136.72C236.793 136.453 236.353 136.093 236.046 135.64C235.74 135.173 235.586 134.64 235.586 134.04C235.586 133.493 235.713 133 235.966 132.56C236.233 132.107 236.66 131.747 237.246 131.48C237.846 131.2 238.646 131.06 239.646 131.06H243.266V132.12H239.686C238.673 132.12 237.966 132.3 237.566 132.66C237.18 133.02 236.986 133.467 236.986 134C236.986 134.6 237.22 135.08 237.686 135.44C238.153 135.8 238.806 135.98 239.646 135.98C240.446 135.98 241.133 135.8 241.706 135.44C242.293 135.067 242.72 134.533 242.986 133.84L243.306 134.82C243.04 135.513 242.573 136.067 241.906 136.48C241.253 136.893 240.426 137.1 239.426 137.1ZM260.801 135.84V128.44H256.701L256.641 130.16C256.614 130.773 256.574 131.367 256.521 131.94C256.467 132.5 256.381 133.02 256.261 133.5C256.141 133.967 255.967 134.353 255.741 134.66C255.514 134.967 255.214 135.167 254.841 135.26L252.361 134.88C252.761 134.88 253.081 134.753 253.321 134.5C253.574 134.233 253.767 133.873 253.901 133.42C254.047 132.953 254.154 132.427 254.221 131.84C254.287 131.24 254.334 130.62 254.361 129.98L254.501 126.32H263.301V135.84H260.801ZM251.981 139.38V134.88H264.881V139.38H262.541V137H254.301V139.38H251.981ZM273.234 137.14C272.367 137.14 271.574 136.94 270.854 136.54C270.147 136.14 269.58 135.54 269.154 134.74C268.74 133.927 268.534 132.9 268.534 131.66C268.534 130.407 268.734 129.38 269.134 128.58C269.547 127.78 270.107 127.187 270.814 126.8C271.52 126.4 272.327 126.2 273.234 126.2C274.287 126.2 275.214 126.427 276.014 126.88C276.827 127.333 277.467 127.967 277.934 128.78C278.414 129.593 278.654 130.553 278.654 131.66C278.654 132.767 278.414 133.733 277.934 134.56C277.467 135.373 276.827 136.007 276.014 136.46C275.214 136.913 274.287 137.14 273.234 137.14ZM267.314 140.88V126.32H269.694V128.84L269.614 131.68L269.814 134.52V140.88H267.314ZM272.954 135C273.554 135 274.087 134.867 274.554 134.6C275.034 134.333 275.414 133.947 275.694 133.44C275.974 132.933 276.114 132.34 276.114 131.66C276.114 130.967 275.974 130.373 275.694 129.88C275.414 129.373 275.034 128.987 274.554 128.72C274.087 128.453 273.554 128.32 272.954 128.32C272.354 128.32 271.814 128.453 271.334 128.72C270.854 128.987 270.474 129.373 270.194 129.88C269.914 130.373 269.774 130.967 269.774 131.66C269.774 132.34 269.914 132.933 270.194 133.44C270.474 133.947 270.854 134.333 271.334 134.6C271.814 134.867 272.354 135 272.954 135ZM282.009 141.02C281.489 141.02 280.969 140.933 280.449 140.76C279.929 140.587 279.495 140.347 279.149 140.04L280.149 138.2C280.402 138.427 280.689 138.607 281.009 138.74C281.329 138.873 281.655 138.94 281.989 138.94C282.442 138.94 282.809 138.827 283.089 138.6C283.369 138.373 283.629 137.993 283.869 137.46L284.489 136.06L284.689 135.76L288.729 126.32H291.129L286.129 137.86C285.795 138.66 285.422 139.293 285.009 139.76C284.609 140.227 284.155 140.553 283.649 140.74C283.155 140.927 282.609 141.02 282.009 141.02ZM284.209 137.38L279.389 126.32H281.989L285.909 135.54L284.209 137.38ZM293.065 137V126.32H301.265V128.44H294.985L295.565 127.88V137H293.065ZM303.285 137V126.32H305.785V133.36L311.685 126.32H313.965V137H311.465V129.96L305.585 137H303.285ZM322.508 137.14C321.321 137.14 320.281 136.907 319.388 136.44C318.508 135.96 317.821 135.307 317.328 134.48C316.848 133.653 316.608 132.713 316.608 131.66C316.608 130.593 316.841 129.653 317.308 128.84C317.788 128.013 318.441 127.367 319.268 126.9C320.108 126.433 321.061 126.2 322.128 126.2C323.168 126.2 324.094 126.427 324.908 126.88C325.721 127.333 326.361 127.973 326.828 128.8C327.294 129.627 327.528 130.6 327.528 131.72C327.528 131.827 327.521 131.947 327.508 132.08C327.508 132.213 327.501 132.34 327.488 132.46H318.588V130.8H326.168L325.188 131.32C325.201 130.707 325.074 130.167 324.808 129.7C324.541 129.233 324.174 128.867 323.708 128.6C323.254 128.333 322.728 128.2 322.128 128.2C321.514 128.2 320.974 128.333 320.508 128.6C320.054 128.867 319.694 129.24 319.428 129.72C319.174 130.187 319.048 130.74 319.048 131.38V131.78C319.048 132.42 319.194 132.987 319.488 133.48C319.781 133.973 320.194 134.353 320.728 134.62C321.261 134.887 321.874 135.02 322.568 135.02C323.168 135.02 323.708 134.927 324.188 134.74C324.668 134.553 325.094 134.26 325.468 133.86L326.808 135.4C326.328 135.96 325.721 136.393 324.988 136.7C324.268 136.993 323.441 137.14 322.508 137.14ZM195.903 167.14C194.783 167.14 193.783 166.907 192.903 166.44C192.036 165.96 191.356 165.307 190.863 164.48C190.37 163.653 190.123 162.713 190.123 161.66C190.123 160.593 190.37 159.653 190.863 158.84C191.356 158.013 192.036 157.367 192.903 156.9C193.783 156.433 194.783 156.2 195.903 156.2C196.943 156.2 197.856 156.413 198.643 156.84C199.443 157.253 200.05 157.867 200.463 158.68L198.543 159.8C198.223 159.293 197.83 158.92 197.363 158.68C196.91 158.44 196.416 158.32 195.883 158.32C195.27 158.32 194.716 158.453 194.223 158.72C193.73 158.987 193.343 159.373 193.063 159.88C192.783 160.373 192.643 160.967 192.643 161.66C192.643 162.353 192.783 162.953 193.063 163.46C193.343 163.953 193.73 164.333 194.223 164.6C194.716 164.867 195.27 165 195.883 165C196.416 165 196.91 164.88 197.363 164.64C197.83 164.4 198.223 164.027 198.543 163.52L200.463 164.64C200.05 165.44 199.443 166.06 198.643 166.5C197.856 166.927 196.943 167.14 195.903 167.14ZM207.468 167.14C206.374 167.14 205.401 166.907 204.548 166.44C203.694 165.96 203.021 165.307 202.528 164.48C202.034 163.653 201.788 162.713 201.788 161.66C201.788 160.593 202.034 159.653 202.528 158.84C203.021 158.013 203.694 157.367 204.548 156.9C205.401 156.433 206.374 156.2 207.468 156.2C208.574 156.2 209.554 156.433 210.408 156.9C211.274 157.367 211.948 158.007 212.428 158.82C212.921 159.633 213.168 160.58 213.168 161.66C213.168 162.713 212.921 163.653 212.428 164.48C211.948 165.307 211.274 165.96 210.408 166.44C209.554 166.907 208.574 167.14 207.468 167.14ZM207.468 165C208.081 165 208.628 164.867 209.108 164.6C209.588 164.333 209.961 163.947 210.228 163.44C210.508 162.933 210.648 162.34 210.648 161.66C210.648 160.967 210.508 160.373 210.228 159.88C209.961 159.373 209.588 158.987 209.108 158.72C208.628 158.453 208.088 158.32 207.488 158.32C206.874 158.32 206.328 158.453 205.848 158.72C205.381 158.987 205.008 159.373 204.728 159.88C204.448 160.373 204.308 160.967 204.308 161.66C204.308 162.34 204.448 162.933 204.728 163.44C205.008 163.947 205.381 164.333 205.848 164.6C206.328 164.867 206.868 165 207.468 165ZM220.937 167.2C220.057 167.2 219.271 167.067 218.577 166.8C217.884 166.533 217.284 166.127 216.777 165.58C216.284 165.02 215.904 164.313 215.637 163.46C215.371 162.607 215.237 161.593 215.237 160.42C215.237 159.567 215.311 158.787 215.457 158.08C215.604 157.373 215.824 156.74 216.117 156.18C216.411 155.607 216.777 155.1 217.217 154.66C217.671 154.22 218.197 153.853 218.797 153.56C219.397 153.267 220.077 153.04 220.837 152.88L225.797 151.82L226.157 154.06L221.657 154.98C221.404 155.033 221.097 155.113 220.737 155.22C220.391 155.313 220.031 155.46 219.657 155.66C219.297 155.847 218.957 156.12 218.637 156.48C218.331 156.827 218.077 157.28 217.877 157.84C217.691 158.387 217.597 159.073 217.597 159.9C217.597 160.153 217.604 160.347 217.617 160.48C217.644 160.6 217.664 160.733 217.677 160.88C217.704 161.013 217.717 161.213 217.717 161.48L216.777 160.5C217.044 159.82 217.411 159.24 217.877 158.76C218.357 158.267 218.911 157.893 219.537 157.64C220.177 157.373 220.871 157.24 221.617 157.24C222.617 157.24 223.504 157.447 224.277 157.86C225.051 158.273 225.657 158.853 226.097 159.6C226.537 160.347 226.757 161.193 226.757 162.14C226.757 163.127 226.517 164 226.037 164.76C225.557 165.52 224.877 166.12 223.997 166.56C223.131 166.987 222.111 167.2 220.937 167.2ZM221.137 165.18C221.737 165.18 222.264 165.053 222.717 164.8C223.184 164.533 223.544 164.173 223.797 163.72C224.064 163.267 224.197 162.76 224.197 162.2C224.197 161.64 224.064 161.153 223.797 160.74C223.544 160.313 223.184 159.973 222.717 159.72C222.264 159.467 221.724 159.34 221.097 159.34C220.497 159.34 219.957 159.46 219.477 159.7C219.011 159.94 218.644 160.273 218.377 160.7C218.124 161.113 217.997 161.593 217.997 162.14C217.997 162.7 218.131 163.213 218.397 163.68C218.664 164.147 219.031 164.513 219.497 164.78C219.977 165.047 220.524 165.18 221.137 165.18ZM240.157 167V156.32H242.657V167H240.157ZM234.577 159.84C235.951 159.84 236.991 160.147 237.697 160.76C238.417 161.373 238.777 162.24 238.777 163.36C238.777 164.52 238.377 165.427 237.577 166.08C236.791 166.72 235.671 167.033 234.217 167.02L229.377 167V156.32H231.877V159.82L234.577 159.84ZM233.997 165.18C234.731 165.193 235.291 165.04 235.677 164.72C236.064 164.4 236.257 163.933 236.257 163.32C236.257 162.707 236.064 162.267 235.677 162C235.304 161.72 234.744 161.573 233.997 161.56L231.877 161.54V165.16L233.997 165.18ZM248.438 167V157.84L249.018 158.44H244.678V156.32H254.678V158.44H250.358L250.938 157.84V167H248.438ZM256.691 167V156.32H259.191V163.36L265.091 156.32H267.371V167H264.871V159.96L258.991 167H256.691ZM277.714 167V163.36L278.074 163.78H274.874C273.408 163.78 272.254 163.473 271.414 162.86C270.588 162.233 270.174 161.333 270.174 160.16C270.174 158.907 270.614 157.953 271.494 157.3C272.388 156.647 273.574 156.32 275.054 156.32H279.954V167H277.714ZM270.034 167L272.914 162.92H275.474L272.714 167H270.034ZM277.714 162.56V157.76L278.074 158.42H275.134C274.361 158.42 273.761 158.567 273.334 158.86C272.921 159.14 272.714 159.6 272.714 160.24C272.714 161.44 273.494 162.04 275.054 162.04H278.074L277.714 162.56Z" fill="white"/>
<path d="M116.64 297.66V295.58L125.08 292.42V293.58L116.64 290.42V288.34L125.86 291.92V294.08L116.64 297.66ZM136.184 300V287L137.324 288.18H133.224V286H138.784V300H136.184ZM153.329 300.2C152.222 300.2 151.222 299.92 150.329 299.36C149.449 298.8 148.755 297.987 148.249 296.92C147.742 295.84 147.489 294.533 147.489 293C147.489 291.467 147.742 290.167 148.249 289.1C148.755 288.02 149.449 287.2 150.329 286.64C151.222 286.08 152.222 285.8 153.329 285.8C154.449 285.8 155.449 286.08 156.329 286.64C157.209 287.2 157.902 288.02 158.409 289.1C158.929 290.167 159.189 291.467 159.189 293C159.189 294.533 158.929 295.84 158.409 296.92C157.902 297.987 157.209 298.8 156.329 299.36C155.449 299.92 154.449 300.2 153.329 300.2ZM153.329 297.94C153.982 297.94 154.549 297.767 155.029 297.42C155.509 297.06 155.882 296.513 156.149 295.78C156.429 295.047 156.569 294.12 156.569 293C156.569 291.867 156.429 290.94 156.149 290.22C155.882 289.487 155.509 288.947 155.029 288.6C154.549 288.24 153.982 288.06 153.329 288.06C152.702 288.06 152.142 288.24 151.649 288.6C151.169 288.947 150.789 289.487 150.509 290.22C150.242 290.94 150.109 291.867 150.109 293C150.109 294.12 150.242 295.047 150.509 295.78C150.789 296.513 151.169 297.06 151.649 297.42C152.142 297.767 152.702 297.94 153.329 297.94ZM166.986 300.2C165.879 300.2 164.879 299.92 163.986 299.36C163.106 298.8 162.412 297.987 161.906 296.92C161.399 295.84 161.146 294.533 161.146 293C161.146 291.467 161.399 290.167 161.906 289.1C162.412 288.02 163.106 287.2 163.986 286.64C164.879 286.08 165.879 285.8 166.986 285.8C168.106 285.8 169.106 286.08 169.986 286.64C170.866 287.2 171.559 288.02 172.066 289.1C172.586 290.167 172.846 291.467 172.846 293C172.846 294.533 172.586 295.84 172.066 296.92C171.559 297.987 170.866 298.8 169.986 299.36C169.106 299.92 168.106 300.2 166.986 300.2ZM166.986 297.94C167.639 297.94 168.206 297.767 168.686 297.42C169.166 297.06 169.539 296.513 169.806 295.78C170.086 295.047 170.226 294.12 170.226 293C170.226 291.867 170.086 290.94 169.806 290.22C169.539 289.487 169.166 288.947 168.686 288.6C168.206 288.24 167.639 288.06 166.986 288.06C166.359 288.06 165.799 288.24 165.306 288.6C164.826 288.947 164.446 289.487 164.166 290.22C163.899 290.94 163.766 291.867 163.766 293C163.766 294.12 163.899 295.047 164.166 295.78C164.446 296.513 164.826 297.06 165.306 297.42C165.799 297.767 166.359 297.94 166.986 297.94ZM180.643 300.2C179.536 300.2 178.536 299.92 177.643 299.36C176.763 298.8 176.069 297.987 175.563 296.92C175.056 295.84 174.803 294.533 174.803 293C174.803 291.467 175.056 290.167 175.563 289.1C176.069 288.02 176.763 287.2 177.643 286.64C178.536 286.08 179.536 285.8 180.643 285.8C181.763 285.8 182.763 286.08 183.643 286.64C184.523 287.2 185.216 288.02 185.723 289.1C186.243 290.167 186.503 291.467 186.503 293C186.503 294.533 186.243 295.84 185.723 296.92C185.216 297.987 184.523 298.8 183.643 299.36C182.763 299.92 181.763 300.2 180.643 300.2ZM180.643 297.94C181.296 297.94 181.863 297.767 182.343 297.42C182.823 297.06 183.196 296.513 183.463 295.78C183.743 295.047 183.883 294.12 183.883 293C183.883 291.867 183.743 290.94 183.463 290.22C183.196 289.487 182.823 288.947 182.343 288.6C181.863 288.24 181.296 288.06 180.643 288.06C180.016 288.06 179.456 288.24 178.963 288.6C178.483 288.947 178.103 289.487 177.823 290.22C177.556 290.94 177.423 291.867 177.423 293C177.423 294.12 177.556 295.047 177.823 295.78C178.103 296.513 178.483 297.06 178.963 297.42C179.456 297.767 180.016 297.94 180.643 297.94ZM199.354 300.1C198.341 300.1 197.427 299.873 196.614 299.42C195.814 298.953 195.181 298.32 194.714 297.52C194.247 296.707 194.014 295.78 194.014 294.74C194.014 293.687 194.247 292.76 194.714 291.96C195.181 291.16 195.814 290.533 196.614 290.08C197.414 289.627 198.327 289.4 199.354 289.4C200.394 289.4 201.314 289.627 202.114 290.08C202.927 290.533 203.561 291.16 204.014 291.96C204.481 292.76 204.714 293.687 204.714 294.74C204.714 295.78 204.481 296.707 204.014 297.52C203.561 298.32 202.927 298.953 202.114 299.42C201.301 299.873 200.381 300.1 199.354 300.1ZM199.354 298.84C200.114 298.84 200.787 298.673 201.374 298.34C201.961 297.993 202.421 297.513 202.754 296.9C203.101 296.273 203.274 295.553 203.274 294.74C203.274 293.913 203.101 293.193 202.754 292.58C202.421 291.967 201.961 291.493 201.374 291.16C200.787 290.813 200.121 290.64 199.374 290.64C198.627 290.64 197.961 290.813 197.374 291.16C196.787 291.493 196.321 291.967 195.974 292.58C195.627 293.193 195.454 293.913 195.454 294.74C195.454 295.553 195.627 296.273 195.974 296.9C196.321 297.513 196.787 297.993 197.374 298.34C197.961 298.673 198.621 298.84 199.354 298.84ZM213.369 300.1C212.462 300.1 211.642 299.893 210.909 299.48C210.176 299.053 209.589 298.447 209.149 297.66C208.722 296.86 208.509 295.887 208.509 294.74C208.509 293.593 208.722 292.627 209.149 291.84C209.576 291.04 210.156 290.433 210.889 290.02C211.622 289.607 212.449 289.4 213.369 289.4C214.369 289.4 215.262 289.627 216.049 290.08C216.849 290.52 217.476 291.147 217.929 291.96C218.382 292.76 218.609 293.687 218.609 294.74C218.609 295.807 218.382 296.74 217.929 297.54C217.476 298.34 216.849 298.967 216.049 299.42C215.262 299.873 214.369 300.1 213.369 300.1ZM207.949 303.88V289.5H209.309V292.66L209.169 294.76L209.369 296.88V303.88H207.949ZM213.269 298.84C214.016 298.84 214.682 298.673 215.269 298.34C215.856 297.993 216.322 297.513 216.669 296.9C217.016 296.273 217.189 295.553 217.189 294.74C217.189 293.927 217.016 293.213 216.669 292.6C216.322 291.987 215.856 291.507 215.269 291.16C214.682 290.813 214.016 290.64 213.269 290.64C212.522 290.64 211.849 290.813 211.249 291.16C210.662 291.507 210.196 291.987 209.849 292.6C209.516 293.213 209.349 293.927 209.349 294.74C209.349 295.553 209.516 296.273 209.849 296.9C210.196 297.513 210.662 297.993 211.249 298.34C211.849 298.673 212.522 298.84 213.269 298.84ZM221.86 300V289.5H229.3V290.74H222.92L223.28 290.38V300H221.86ZM238.072 300V297.68L238.012 297.3V293.42C238.012 292.527 237.759 291.84 237.252 291.36C236.759 290.88 236.019 290.64 235.032 290.64C234.352 290.64 233.705 290.753 233.092 290.98C232.479 291.207 231.959 291.507 231.532 291.88L230.892 290.82C231.425 290.367 232.065 290.02 232.812 289.78C233.559 289.527 234.345 289.4 235.172 289.4C236.532 289.4 237.579 289.74 238.312 290.42C239.059 291.087 239.432 292.107 239.432 293.48V300H238.072ZM234.452 300.1C233.665 300.1 232.979 299.973 232.392 299.72C231.819 299.453 231.379 299.093 231.072 298.64C230.765 298.173 230.612 297.64 230.612 297.04C230.612 296.493 230.739 296 230.992 295.56C231.259 295.107 231.685 294.747 232.272 294.48C232.872 294.2 233.672 294.06 234.672 294.06H238.292V295.12H234.712C233.699 295.12 232.992 295.3 232.592 295.66C232.205 296.02 232.012 296.467 232.012 297C232.012 297.6 232.245 298.08 232.712 298.44C233.179 298.8 233.832 298.98 234.672 298.98C235.472 298.98 236.159 298.8 236.732 298.44C237.319 298.067 237.745 297.533 238.012 296.84L238.332 297.82C238.065 298.513 237.599 299.067 236.932 299.48C236.279 299.893 235.452 300.1 234.452 300.1ZM243.412 300V289.5H244.832V294.14H251.452V289.5H252.872V300H251.452V295.36H244.832V300H243.412ZM257.108 300V289.5H258.528V297.84L265.548 289.5H266.808V300H265.388V291.64L258.388 300H257.108ZM273.683 300.12C272.923 300.12 272.17 300.013 271.423 299.8C270.676 299.587 270.016 299.26 269.443 298.82L269.903 297.76C270.41 298.133 270.996 298.42 271.663 298.62C272.33 298.807 272.99 298.9 273.643 298.9C274.296 298.887 274.863 298.793 275.343 298.62C275.823 298.447 276.196 298.207 276.463 297.9C276.73 297.593 276.863 297.247 276.863 296.86C276.863 296.3 276.61 295.867 276.103 295.56C275.596 295.24 274.903 295.08 274.023 295.08H272.223V294.04H273.923C274.443 294.04 274.903 293.973 275.303 293.84C275.703 293.707 276.01 293.513 276.223 293.26C276.45 293.007 276.563 292.707 276.563 292.36C276.563 291.987 276.43 291.667 276.163 291.4C275.91 291.133 275.556 290.933 275.103 290.8C274.65 290.667 274.136 290.6 273.563 290.6C273.043 290.613 272.503 290.693 271.943 290.84C271.383 290.973 270.83 291.18 270.283 291.46L269.883 290.36C270.496 290.04 271.103 289.8 271.703 289.64C272.316 289.467 272.93 289.38 273.543 289.38C274.383 289.353 275.136 289.453 275.803 289.68C276.483 289.907 277.023 290.233 277.423 290.66C277.823 291.073 278.023 291.573 278.023 292.16C278.023 292.68 277.863 293.133 277.543 293.52C277.223 293.907 276.796 294.207 276.263 294.42C275.73 294.633 275.123 294.74 274.443 294.74L274.503 294.36C275.703 294.36 276.636 294.593 277.303 295.06C277.983 295.527 278.323 296.16 278.323 296.96C278.323 297.587 278.116 298.14 277.703 298.62C277.29 299.087 276.73 299.453 276.023 299.72C275.33 299.987 274.55 300.12 273.683 300.12ZM288.267 300V297.68L288.207 297.3V293.42C288.207 292.527 287.953 291.84 287.447 291.36C286.953 290.88 286.213 290.64 285.227 290.64C284.547 290.64 283.9 290.753 283.287 290.98C282.673 291.207 282.153 291.507 281.727 291.88L281.087 290.82C281.62 290.367 282.26 290.02 283.007 289.78C283.753 289.527 284.54 289.4 285.367 289.4C286.727 289.4 287.773 289.74 288.507 290.42C289.253 291.087 289.627 292.107 289.627 293.48V300H288.267ZM284.647 300.1C283.86 300.1 283.173 299.973 282.587 299.72C282.013 299.453 281.573 299.093 281.267 298.64C280.96 298.173 280.807 297.64 280.807 297.04C280.807 296.493 280.933 296 281.187 295.56C281.453 295.107 281.88 294.747 282.467 294.48C283.067 294.2 283.867 294.06 284.867 294.06H288.487V295.12H284.907C283.893 295.12 283.187 295.3 282.787 295.66C282.4 296.02 282.207 296.467 282.207 297C282.207 297.6 282.44 298.08 282.907 298.44C283.373 298.8 284.027 298.98 284.867 298.98C285.667 298.98 286.353 298.8 286.927 298.44C287.513 298.067 287.94 297.533 288.207 296.84L288.527 297.82C288.26 298.513 287.793 299.067 287.127 299.48C286.473 299.893 285.647 300.1 284.647 300.1ZM295.607 300V290.36L295.967 290.74H291.627V289.5H301.007V290.74H296.667L297.027 290.36V300H295.607ZM307.092 300.1C306.078 300.1 305.165 299.873 304.352 299.42C303.552 298.953 302.918 298.32 302.452 297.52C301.985 296.707 301.752 295.78 301.752 294.74C301.752 293.687 301.985 292.76 302.452 291.96C302.918 291.16 303.552 290.533 304.352 290.08C305.152 289.627 306.065 289.4 307.092 289.4C308.132 289.4 309.052 289.627 309.852 290.08C310.665 290.533 311.298 291.16 311.752 291.96C312.218 292.76 312.452 293.687 312.452 294.74C312.452 295.78 312.218 296.707 311.752 297.52C311.298 298.32 310.665 298.953 309.852 299.42C309.038 299.873 308.118 300.1 307.092 300.1ZM307.092 298.84C307.852 298.84 308.525 298.673 309.112 298.34C309.698 297.993 310.158 297.513 310.492 296.9C310.838 296.273 311.012 295.553 311.012 294.74C311.012 293.913 310.838 293.193 310.492 292.58C310.158 291.967 309.698 291.493 309.112 291.16C308.525 290.813 307.858 290.64 307.112 290.64C306.365 290.64 305.698 290.813 305.112 291.16C304.525 291.493 304.058 291.967 303.712 292.58C303.365 293.193 303.192 293.913 303.192 294.74C303.192 295.553 303.365 296.273 303.712 296.9C304.058 297.513 304.525 297.993 305.112 298.34C305.698 298.673 306.358 298.84 307.092 298.84ZM321.106 300.1C320.2 300.1 319.38 299.893 318.646 299.48C317.913 299.053 317.326 298.447 316.886 297.66C316.46 296.86 316.246 295.887 316.246 294.74C316.246 293.593 316.46 292.627 316.886 291.84C317.313 291.04 317.893 290.433 318.626 290.02C319.36 289.607 320.186 289.4 321.106 289.4C322.106 289.4 323 289.627 323.786 290.08C324.586 290.52 325.213 291.147 325.666 291.96C326.12 292.76 326.346 293.687 326.346 294.74C326.346 295.807 326.12 296.74 325.666 297.54C325.213 298.34 324.586 298.967 323.786 299.42C323 299.873 322.106 300.1 321.106 300.1ZM315.686 303.88V289.5H317.046V292.66L316.906 294.76L317.106 296.88V303.88H315.686ZM321.006 298.84C321.753 298.84 322.42 298.673 323.006 298.34C323.593 297.993 324.06 297.513 324.406 296.9C324.753 296.273 324.926 295.553 324.926 294.74C324.926 293.927 324.753 293.213 324.406 292.6C324.06 291.987 323.593 291.507 323.006 291.16C322.42 290.813 321.753 290.64 321.006 290.64C320.26 290.64 319.586 290.813 318.986 291.16C318.4 291.507 317.933 291.987 317.586 292.6C317.253 293.213 317.086 293.927 317.086 294.74C317.086 295.553 317.253 296.273 317.586 296.9C317.933 297.513 318.4 297.993 318.986 298.34C319.586 298.673 320.26 298.84 321.006 298.84ZM333.917 300.1C332.904 300.1 331.991 299.873 331.177 299.42C330.377 298.953 329.744 298.32 329.277 297.52C328.811 296.707 328.577 295.78 328.577 294.74C328.577 293.687 328.811 292.76 329.277 291.96C329.744 291.16 330.377 290.533 331.177 290.08C331.977 289.627 332.891 289.4 333.917 289.4C334.957 289.4 335.877 289.627 336.677 290.08C337.491 290.533 338.124 291.16 338.577 291.96C339.044 292.76 339.277 293.687 339.277 294.74C339.277 295.78 339.044 296.707 338.577 297.52C338.124 298.32 337.491 298.953 336.677 299.42C335.864 299.873 334.944 300.1 333.917 300.1ZM333.917 298.84C334.677 298.84 335.351 298.673 335.937 298.34C336.524 297.993 336.984 297.513 337.317 296.9C337.664 296.273 337.837 295.553 337.837 294.74C337.837 293.913 337.664 293.193 337.317 292.58C336.984 291.967 336.524 291.493 335.937 291.16C335.351 290.813 334.684 290.64 333.937 290.64C333.191 290.64 332.524 290.813 331.937 291.16C331.351 291.493 330.884 291.967 330.537 292.58C330.191 293.193 330.017 293.913 330.017 294.74C330.017 295.553 330.191 296.273 330.537 296.9C330.884 297.513 331.351 297.993 331.937 298.34C332.524 298.673 333.184 298.84 333.917 298.84ZM342.512 300V289.5H347.152C348.339 289.5 349.272 289.727 349.952 290.18C350.646 290.633 350.992 291.3 350.992 292.18C350.992 293.033 350.666 293.693 350.012 294.16C349.359 294.613 348.499 294.84 347.432 294.84L347.712 294.42C348.966 294.42 349.886 294.653 350.472 295.12C351.059 295.587 351.352 296.26 351.352 297.14C351.352 298.047 351.019 298.753 350.352 299.26C349.699 299.753 348.679 300 347.292 300H342.512ZM343.892 298.88H347.232C348.126 298.88 348.799 298.74 349.252 298.46C349.719 298.167 349.952 297.7 349.952 297.06C349.952 296.42 349.746 295.953 349.332 295.66C348.919 295.367 348.266 295.22 347.372 295.22H343.892V298.88ZM343.892 294.16H347.052C347.866 294.16 348.486 294.007 348.912 293.7C349.352 293.393 349.572 292.947 349.572 292.36C349.572 291.773 349.352 291.333 348.912 291.04C348.486 290.747 347.866 290.6 347.052 290.6H343.892V294.16ZM198.567 330V319.5H203.207C204.394 319.5 205.327 319.727 206.007 320.18C206.7 320.633 207.047 321.3 207.047 322.18C207.047 323.033 206.72 323.693 206.067 324.16C205.414 324.613 204.554 324.84 203.487 324.84L203.767 324.42C205.02 324.42 205.94 324.653 206.527 325.12C207.114 325.587 207.407 326.26 207.407 327.14C207.407 328.047 207.074 328.753 206.407 329.26C205.754 329.753 204.734 330 203.347 330H198.567ZM199.947 328.88H203.287C204.18 328.88 204.854 328.74 205.307 328.46C205.774 328.167 206.007 327.7 206.007 327.06C206.007 326.42 205.8 325.953 205.387 325.66C204.974 325.367 204.32 325.22 203.427 325.22H199.947V328.88ZM199.947 324.16H203.107C203.92 324.16 204.54 324.007 204.967 323.7C205.407 323.393 205.627 322.947 205.627 322.36C205.627 321.773 205.407 321.333 204.967 321.04C204.54 320.747 203.92 320.6 203.107 320.6H199.947V324.16ZM218.029 322.26H225.429V323.52H218.029V322.26ZM218.189 328.72H226.609V330H216.709V316H226.309V317.28H218.189V328.72ZM228.033 330L234.433 316H235.893L242.293 330H240.733L234.853 316.86H235.453L229.573 330H228.033ZM230.553 326.26L230.993 325.06H239.133L239.573 326.26H230.553ZM247.036 323.48V322.26H254.776V323.48H247.036ZM248.796 315.88C249.796 315.88 250.716 316.06 251.556 316.42C252.396 316.767 253.129 317.26 253.756 317.9C254.396 318.54 254.889 319.293 255.236 320.16C255.582 321.027 255.756 321.973 255.756 323C255.756 324.027 255.582 324.973 255.236 325.84C254.889 326.707 254.396 327.46 253.756 328.1C253.129 328.74 252.396 329.24 251.556 329.6C250.716 329.947 249.796 330.12 248.796 330.12C247.729 330.12 246.736 329.947 245.816 329.6C244.896 329.253 244.129 328.74 243.516 328.06L244.436 327.12C245.022 327.72 245.676 328.153 246.396 328.42C247.116 328.673 247.896 328.8 248.736 328.8C249.522 328.8 250.249 328.653 250.916 328.36C251.596 328.067 252.182 327.66 252.676 327.14C253.182 326.62 253.576 326.013 253.856 325.32C254.136 324.613 254.276 323.84 254.276 323C254.276 322.16 254.136 321.393 253.856 320.7C253.576 319.993 253.182 319.38 252.676 318.86C252.182 318.34 251.596 317.933 250.916 317.64C250.249 317.347 249.522 317.2 248.736 317.2C247.896 317.2 247.116 317.333 246.396 317.6C245.676 317.867 245.022 318.293 244.436 318.88L243.516 317.94C244.129 317.26 244.896 316.747 245.816 316.4C246.736 316.053 247.729 315.88 248.796 315.88ZM265.617 330.12C264.563 330.12 263.59 329.947 262.697 329.6C261.803 329.24 261.03 328.74 260.377 328.1C259.723 327.46 259.21 326.707 258.837 325.84C258.477 324.973 258.297 324.027 258.297 323C258.297 321.973 258.477 321.027 258.837 320.16C259.21 319.293 259.723 318.54 260.377 317.9C261.043 317.26 261.823 316.767 262.717 316.42C263.61 316.06 264.583 315.88 265.637 315.88C266.65 315.88 267.603 316.053 268.497 316.4C269.39 316.733 270.143 317.24 270.757 317.92L269.817 318.86C269.243 318.273 268.61 317.853 267.917 317.6C267.223 317.333 266.477 317.2 265.677 317.2C264.837 317.2 264.057 317.347 263.337 317.64C262.617 317.92 261.99 318.327 261.457 318.86C260.923 319.38 260.503 319.993 260.197 320.7C259.903 321.393 259.757 322.16 259.757 323C259.757 323.84 259.903 324.613 260.197 325.32C260.503 326.013 260.923 326.627 261.457 327.16C261.99 327.68 262.617 328.087 263.337 328.38C264.057 328.66 264.837 328.8 265.677 328.8C266.477 328.8 267.223 328.667 267.917 328.4C268.61 328.133 269.243 327.707 269.817 327.12L270.757 328.06C270.143 328.74 269.39 329.253 268.497 329.6C267.603 329.947 266.643 330.12 265.617 330.12Z" fill="white"/>
</g>
<defs>
<clipPath id="clip0_2010_205">
<rect width="452" height="588" fill="white"/>
</clipPath>
</defs>
</svg>
