<svg width="452" height="588" viewBox="0 0 452 588" fill="none" xmlns="http://www.w3.org/2000/svg">
<g clip-path="url(#clip0_2010_46)">
<rect x="54" y="17" width="343" height="165" rx="20" fill="#407BFF"/>
<rect x="49" y="248" width="354" height="185" rx="20" fill="#407BFF"/>
<path d="M98 182H101V248H98V182Z" fill="#407BFF"/>
<path d="M95 433H98V512H95V433Z" fill="#407BFF"/>
<rect x="351" y="182" width="3" height="66" fill="#407BFF"/>
<rect x="348" y="433" width="3" height="79" fill="#407BFF"/>
<rect x="-461" y="508" width="1373" height="4" fill="white"/>
<circle cx="95.5" cy="511.5" r="11.5" fill="white"/>
<circle cx="349.5" cy="511.5" r="11.5" fill="white"/>
<path d="M164.102 571V566.476L178.558 552.748C179.771 551.604 180.673 550.599 181.262 549.732C181.851 548.865 182.233 548.068 182.406 547.34C182.614 546.577 182.718 545.867 182.718 545.208C182.718 543.544 182.146 542.261 181.002 541.36C179.858 540.424 178.177 539.956 175.958 539.956C174.19 539.956 172.578 540.268 171.122 540.892C169.701 541.516 168.47 542.469 167.43 543.752L162.698 540.112C164.119 538.205 166.026 536.732 168.418 535.692C170.845 534.617 173.549 534.08 176.53 534.08C179.165 534.08 181.453 534.513 183.394 535.38C185.37 536.212 186.878 537.408 187.918 538.968C188.993 540.528 189.53 542.383 189.53 544.532C189.53 545.711 189.374 546.889 189.062 548.068C188.75 549.212 188.161 550.425 187.294 551.708C186.427 552.991 185.162 554.429 183.498 556.024L171.07 567.828L169.666 565.28H190.934V571H164.102ZM210.22 571.52C207.342 571.52 204.742 570.792 202.42 569.336C200.132 567.88 198.329 565.765 197.012 562.992C195.694 560.184 195.036 556.787 195.036 552.8C195.036 548.813 195.694 545.433 197.012 542.66C198.329 539.852 200.132 537.72 202.42 536.264C204.742 534.808 207.342 534.08 210.22 534.08C213.132 534.08 215.732 534.808 218.02 536.264C220.308 537.72 222.11 539.852 223.428 542.66C224.78 545.433 225.456 548.813 225.456 552.8C225.456 556.787 224.78 560.184 223.428 562.992C222.11 565.765 220.308 567.88 218.02 569.336C215.732 570.792 213.132 571.52 210.22 571.52ZM210.22 565.644C211.918 565.644 213.392 565.193 214.64 564.292C215.888 563.356 216.858 561.935 217.552 560.028C218.28 558.121 218.644 555.712 218.644 552.8C218.644 549.853 218.28 547.444 217.552 545.572C216.858 543.665 215.888 542.261 214.64 541.36C213.392 540.424 211.918 539.956 210.22 539.956C208.59 539.956 207.134 540.424 205.852 541.36C204.604 542.261 203.616 543.665 202.888 545.572C202.194 547.444 201.848 549.853 201.848 552.8C201.848 555.712 202.194 558.121 202.888 560.028C203.616 561.935 204.604 563.356 205.852 564.292C207.134 565.193 208.59 565.644 210.22 565.644ZM229.705 571V566.476L244.161 552.748C245.374 551.604 246.276 550.599 246.865 549.732C247.454 548.865 247.836 548.068 248.009 547.34C248.217 546.577 248.321 545.867 248.321 545.208C248.321 543.544 247.749 542.261 246.605 541.36C245.461 540.424 243.78 539.956 241.561 539.956C239.793 539.956 238.181 540.268 236.725 540.892C235.304 541.516 234.073 542.469 233.033 543.752L228.301 540.112C229.722 538.205 231.629 536.732 234.021 535.692C236.448 534.617 239.152 534.08 242.133 534.08C244.768 534.08 247.056 534.513 248.997 535.38C250.973 536.212 252.481 537.408 253.521 538.968C254.596 540.528 255.133 542.383 255.133 544.532C255.133 545.711 254.977 546.889 254.665 548.068C254.353 549.212 253.764 550.425 252.897 551.708C252.03 552.991 250.765 554.429 249.101 556.024L236.673 567.828L235.269 565.28H256.537V571H229.705ZM272.703 571.52C270.137 571.52 267.624 571.156 265.163 570.428C262.736 569.665 260.691 568.625 259.027 567.308L261.887 562.056C263.204 563.131 264.799 563.997 266.671 564.656C268.577 565.315 270.553 565.644 272.599 565.644C274.991 565.644 276.863 565.141 278.215 564.136C279.601 563.131 280.295 561.779 280.295 560.08C280.295 558.936 280 557.931 279.411 557.064C278.856 556.197 277.851 555.539 276.395 555.088C274.973 554.637 273.015 554.412 270.519 554.412H261.731L263.603 534.6H284.975V540.268H266.099L269.635 537.044L268.231 551.864L264.695 548.692H272.027C275.632 548.692 278.527 549.177 280.711 550.148C282.929 551.084 284.541 552.401 285.547 554.1C286.587 555.764 287.107 557.671 287.107 559.82C287.107 561.935 286.587 563.876 285.547 565.644C284.507 567.412 282.912 568.833 280.763 569.908C278.648 570.983 275.961 571.52 272.703 571.52Z" fill="#407BFF"/>
<path d="M118.332 72.66V70.58L126.772 67.42V68.58L118.332 65.42V63.34L127.552 66.92V69.08L118.332 72.66ZM137.876 75V62L139.016 63.18H134.916V61H140.476V75H137.876ZM149.293 75.2C148.187 75.2 147.187 74.92 146.293 74.36C145.413 73.8 144.72 72.9867 144.213 71.92C143.707 70.84 143.453 69.5333 143.453 68C143.453 66.4667 143.707 65.1667 144.213 64.1C144.72 63.02 145.413 62.2 146.293 61.64C147.187 61.08 148.187 60.8 149.293 60.8C150.413 60.8 151.413 61.08 152.293 61.64C153.173 62.2 153.867 63.02 154.373 64.1C154.893 65.1667 155.153 66.4667 155.153 68C155.153 69.5333 154.893 70.84 154.373 71.92C153.867 72.9867 153.173 73.8 152.293 74.36C151.413 74.92 150.413 75.2 149.293 75.2ZM149.293 72.94C149.947 72.94 150.513 72.7667 150.993 72.42C151.473 72.06 151.847 71.5133 152.113 70.78C152.393 70.0467 152.533 69.12 152.533 68C152.533 66.8667 152.393 65.94 152.113 65.22C151.847 64.4867 151.473 63.9467 150.993 63.6C150.513 63.24 149.947 63.06 149.293 63.06C148.667 63.06 148.107 63.24 147.613 63.6C147.133 63.9467 146.753 64.4867 146.473 65.22C146.207 65.94 146.073 66.8667 146.073 68C146.073 69.12 146.207 70.0467 146.473 70.78C146.753 71.5133 147.133 72.06 147.613 72.42C148.107 72.7667 148.667 72.94 149.293 72.94ZM162.95 75.2C161.844 75.2 160.844 74.92 159.95 74.36C159.07 73.8 158.377 72.9867 157.87 71.92C157.364 70.84 157.11 69.5333 157.11 68C157.11 66.4667 157.364 65.1667 157.87 64.1C158.377 63.02 159.07 62.2 159.95 61.64C160.844 61.08 161.844 60.8 162.95 60.8C164.07 60.8 165.07 61.08 165.95 61.64C166.83 62.2 167.524 63.02 168.03 64.1C168.55 65.1667 168.81 66.4667 168.81 68C168.81 69.5333 168.55 70.84 168.03 71.92C167.524 72.9867 166.83 73.8 165.95 74.36C165.07 74.92 164.07 75.2 162.95 75.2ZM162.95 72.94C163.604 72.94 164.17 72.7667 164.65 72.42C165.13 72.06 165.504 71.5133 165.77 70.78C166.05 70.0467 166.19 69.12 166.19 68C166.19 66.8667 166.05 65.94 165.77 65.22C165.504 64.4867 165.13 63.9467 164.65 63.6C164.17 63.24 163.604 63.06 162.95 63.06C162.324 63.06 161.764 63.24 161.27 63.6C160.79 63.9467 160.41 64.4867 160.13 65.22C159.864 65.94 159.73 66.8667 159.73 68C159.73 69.12 159.864 70.0467 160.13 70.78C160.41 71.5133 160.79 72.06 161.27 72.42C161.764 72.7667 162.324 72.94 162.95 72.94ZM181.662 75.1C180.649 75.1 179.735 74.8733 178.922 74.42C178.122 73.9533 177.489 73.32 177.022 72.52C176.555 71.7067 176.322 70.78 176.322 69.74C176.322 68.6867 176.555 67.76 177.022 66.96C177.489 66.16 178.122 65.5333 178.922 65.08C179.722 64.6267 180.635 64.4 181.662 64.4C182.702 64.4 183.622 64.6267 184.422 65.08C185.235 65.5333 185.869 66.16 186.322 66.96C186.789 67.76 187.022 68.6867 187.022 69.74C187.022 70.78 186.789 71.7067 186.322 72.52C185.869 73.32 185.235 73.9533 184.422 74.42C183.609 74.8733 182.689 75.1 181.662 75.1ZM181.662 73.84C182.422 73.84 183.095 73.6733 183.682 73.34C184.269 72.9933 184.729 72.5133 185.062 71.9C185.409 71.2733 185.582 70.5533 185.582 69.74C185.582 68.9133 185.409 68.1933 185.062 67.58C184.729 66.9667 184.269 66.4933 183.682 66.16C183.095 65.8133 182.429 65.64 181.682 65.64C180.935 65.64 180.269 65.8133 179.682 66.16C179.095 66.4933 178.629 66.9667 178.282 67.58C177.935 68.1933 177.762 68.9133 177.762 69.74C177.762 70.5533 177.935 71.2733 178.282 71.9C178.629 72.5133 179.095 72.9933 179.682 73.34C180.269 73.6733 180.929 73.84 181.662 73.84ZM195.677 75.1C194.77 75.1 193.95 74.8933 193.217 74.48C192.483 74.0533 191.897 73.4467 191.457 72.66C191.03 71.86 190.817 70.8867 190.817 69.74C190.817 68.5933 191.03 67.6267 191.457 66.84C191.883 66.04 192.463 65.4333 193.197 65.02C193.93 64.6067 194.757 64.4 195.677 64.4C196.677 64.4 197.57 64.6267 198.357 65.08C199.157 65.52 199.783 66.1467 200.237 66.96C200.69 67.76 200.917 68.6867 200.917 69.74C200.917 70.8067 200.69 71.74 200.237 72.54C199.783 73.34 199.157 73.9667 198.357 74.42C197.57 74.8733 196.677 75.1 195.677 75.1ZM190.257 78.88V64.5H191.617V67.66L191.477 69.76L191.677 71.88V78.88H190.257ZM195.577 73.84C196.323 73.84 196.99 73.6733 197.577 73.34C198.163 72.9933 198.63 72.5133 198.977 71.9C199.323 71.2733 199.497 70.5533 199.497 69.74C199.497 68.9267 199.323 68.2133 198.977 67.6C198.63 66.9867 198.163 66.5067 197.577 66.16C196.99 65.8133 196.323 65.64 195.577 65.64C194.83 65.64 194.157 65.8133 193.557 66.16C192.97 66.5067 192.503 66.9867 192.157 67.6C191.823 68.2133 191.657 68.9267 191.657 69.74C191.657 70.5533 191.823 71.2733 192.157 71.9C192.503 72.5133 192.97 72.9933 193.557 73.34C194.157 73.6733 194.83 73.84 195.577 73.84ZM204.168 75V64.5H211.608V65.74H205.228L205.588 65.38V75H204.168ZM220.38 75V72.68L220.32 72.3V68.42C220.32 67.5267 220.067 66.84 219.56 66.36C219.067 65.88 218.327 65.64 217.34 65.64C216.66 65.64 216.013 65.7533 215.4 65.98C214.787 66.2067 214.267 66.5067 213.84 66.88L213.2 65.82C213.733 65.3667 214.373 65.02 215.12 64.78C215.867 64.5267 216.653 64.4 217.48 64.4C218.84 64.4 219.887 64.74 220.62 65.42C221.367 66.0867 221.74 67.1067 221.74 68.48V75H220.38ZM216.76 75.1C215.973 75.1 215.287 74.9733 214.7 74.72C214.127 74.4533 213.687 74.0933 213.38 73.64C213.073 73.1733 212.92 72.64 212.92 72.04C212.92 71.4933 213.047 71 213.3 70.56C213.567 70.1067 213.993 69.7467 214.58 69.48C215.18 69.2 215.98 69.06 216.98 69.06H220.6V70.12H217.02C216.007 70.12 215.3 70.3 214.9 70.66C214.513 71.02 214.32 71.4667 214.32 72C214.32 72.6 214.553 73.08 215.02 73.44C215.487 73.8 216.14 73.98 216.98 73.98C217.78 73.98 218.467 73.8 219.04 73.44C219.627 73.0667 220.053 72.5333 220.32 71.84L220.64 72.82C220.373 73.5133 219.907 74.0667 219.24 74.48C218.587 74.8933 217.76 75.1 216.76 75.1ZM225.72 75V64.5H227.14V69.14H233.76V64.5H235.18V75H233.76V70.36H227.14V75H225.72ZM239.416 75V64.5H240.836V72.84L247.856 64.5H249.116V75H247.696V66.64L240.696 75H239.416ZM255.991 75.12C255.231 75.12 254.477 75.0133 253.731 74.8C252.984 74.5867 252.324 74.26 251.751 73.82L252.211 72.76C252.717 73.1333 253.304 73.42 253.971 73.62C254.637 73.8067 255.297 73.9 255.951 73.9C256.604 73.8867 257.171 73.7933 257.651 73.62C258.131 73.4467 258.504 73.2067 258.771 72.9C259.037 72.5933 259.171 72.2467 259.171 71.86C259.171 71.3 258.917 70.8667 258.411 70.56C257.904 70.24 257.211 70.08 256.331 70.08H254.531V69.04H256.231C256.751 69.04 257.211 68.9733 257.611 68.84C258.011 68.7067 258.317 68.5133 258.531 68.26C258.757 68.0067 258.871 67.7067 258.871 67.36C258.871 66.9867 258.737 66.6667 258.471 66.4C258.217 66.1333 257.864 65.9333 257.411 65.8C256.957 65.6667 256.444 65.6 255.871 65.6C255.351 65.6133 254.811 65.6933 254.251 65.84C253.691 65.9733 253.137 66.18 252.591 66.46L252.191 65.36C252.804 65.04 253.411 64.8 254.011 64.64C254.624 64.4667 255.237 64.38 255.851 64.38C256.691 64.3533 257.444 64.4533 258.111 64.68C258.791 64.9067 259.331 65.2333 259.731 65.66C260.131 66.0733 260.331 66.5733 260.331 67.16C260.331 67.68 260.171 68.1333 259.851 68.52C259.531 68.9067 259.104 69.2067 258.571 69.42C258.037 69.6333 257.431 69.74 256.751 69.74L256.811 69.36C258.011 69.36 258.944 69.5933 259.611 70.06C260.291 70.5267 260.631 71.16 260.631 71.96C260.631 72.5867 260.424 73.14 260.011 73.62C259.597 74.0867 259.037 74.4533 258.331 74.72C257.637 74.9867 256.857 75.12 255.991 75.12ZM270.574 75V72.68L270.514 72.3V68.42C270.514 67.5267 270.261 66.84 269.754 66.36C269.261 65.88 268.521 65.64 267.534 65.64C266.854 65.64 266.208 65.7533 265.594 65.98C264.981 66.2067 264.461 66.5067 264.034 66.88L263.394 65.82C263.928 65.3667 264.568 65.02 265.314 64.78C266.061 64.5267 266.848 64.4 267.674 64.4C269.034 64.4 270.081 64.74 270.814 65.42C271.561 66.0867 271.934 67.1067 271.934 68.48V75H270.574ZM266.954 75.1C266.168 75.1 265.481 74.9733 264.894 74.72C264.321 74.4533 263.881 74.0933 263.574 73.64C263.268 73.1733 263.114 72.64 263.114 72.04C263.114 71.4933 263.241 71 263.494 70.56C263.761 70.1067 264.188 69.7467 264.774 69.48C265.374 69.2 266.174 69.06 267.174 69.06H270.794V70.12H267.214C266.201 70.12 265.494 70.3 265.094 70.66C264.708 71.02 264.514 71.4667 264.514 72C264.514 72.6 264.748 73.08 265.214 73.44C265.681 73.8 266.334 73.98 267.174 73.98C267.974 73.98 268.661 73.8 269.234 73.44C269.821 73.0667 270.248 72.5333 270.514 71.84L270.834 72.82C270.568 73.5133 270.101 74.0667 269.434 74.48C268.781 74.8933 267.954 75.1 266.954 75.1ZM277.915 75V65.36L278.275 65.74H273.935V64.5H283.315V65.74H278.975L279.335 65.36V75H277.915ZM289.399 75.1C288.386 75.1 287.473 74.8733 286.659 74.42C285.859 73.9533 285.226 73.32 284.759 72.52C284.293 71.7067 284.059 70.78 284.059 69.74C284.059 68.6867 284.293 67.76 284.759 66.96C285.226 66.16 285.859 65.5333 286.659 65.08C287.459 64.6267 288.373 64.4 289.399 64.4C290.439 64.4 291.359 64.6267 292.159 65.08C292.973 65.5333 293.606 66.16 294.059 66.96C294.526 67.76 294.759 68.6867 294.759 69.74C294.759 70.78 294.526 71.7067 294.059 72.52C293.606 73.32 292.973 73.9533 292.159 74.42C291.346 74.8733 290.426 75.1 289.399 75.1ZM289.399 73.84C290.159 73.84 290.833 73.6733 291.419 73.34C292.006 72.9933 292.466 72.5133 292.799 71.9C293.146 71.2733 293.319 70.5533 293.319 69.74C293.319 68.9133 293.146 68.1933 292.799 67.58C292.466 66.9667 292.006 66.4933 291.419 66.16C290.833 65.8133 290.166 65.64 289.419 65.64C288.673 65.64 288.006 65.8133 287.419 66.16C286.833 66.4933 286.366 66.9667 286.019 67.58C285.673 68.1933 285.499 68.9133 285.499 69.74C285.499 70.5533 285.673 71.2733 286.019 71.9C286.366 72.5133 286.833 72.9933 287.419 73.34C288.006 73.6733 288.666 73.84 289.399 73.84ZM303.414 75.1C302.508 75.1 301.688 74.8933 300.954 74.48C300.221 74.0533 299.634 73.4467 299.194 72.66C298.768 71.86 298.554 70.8867 298.554 69.74C298.554 68.5933 298.768 67.6267 299.194 66.84C299.621 66.04 300.201 65.4333 300.934 65.02C301.668 64.6067 302.494 64.4 303.414 64.4C304.414 64.4 305.308 64.6267 306.094 65.08C306.894 65.52 307.521 66.1467 307.974 66.96C308.428 67.76 308.654 68.6867 308.654 69.74C308.654 70.8067 308.428 71.74 307.974 72.54C307.521 73.34 306.894 73.9667 306.094 74.42C305.308 74.8733 304.414 75.1 303.414 75.1ZM297.994 78.88V64.5H299.354V67.66L299.214 69.76L299.414 71.88V78.88H297.994ZM303.314 73.84C304.061 73.84 304.728 73.6733 305.314 73.34C305.901 72.9933 306.368 72.5133 306.714 71.9C307.061 71.2733 307.234 70.5533 307.234 69.74C307.234 68.9267 307.061 68.2133 306.714 67.6C306.368 66.9867 305.901 66.5067 305.314 66.16C304.728 65.8133 304.061 65.64 303.314 65.64C302.568 65.64 301.894 65.8133 301.294 66.16C300.708 66.5067 300.241 66.9867 299.894 67.6C299.561 68.2133 299.394 68.9267 299.394 69.74C299.394 70.5533 299.561 71.2733 299.894 71.9C300.241 72.5133 300.708 72.9933 301.294 73.34C301.894 73.6733 302.568 73.84 303.314 73.84ZM316.225 75.1C315.212 75.1 314.298 74.8733 313.485 74.42C312.685 73.9533 312.052 73.32 311.585 72.52C311.118 71.7067 310.885 70.78 310.885 69.74C310.885 68.6867 311.118 67.76 311.585 66.96C312.052 66.16 312.685 65.5333 313.485 65.08C314.285 64.6267 315.198 64.4 316.225 64.4C317.265 64.4 318.185 64.6267 318.985 65.08C319.798 65.5333 320.432 66.16 320.885 66.96C321.352 67.76 321.585 68.6867 321.585 69.74C321.585 70.78 321.352 71.7067 320.885 72.52C320.432 73.32 319.798 73.9533 318.985 74.42C318.172 74.8733 317.252 75.1 316.225 75.1ZM316.225 73.84C316.985 73.84 317.658 73.6733 318.245 73.34C318.832 72.9933 319.292 72.5133 319.625 71.9C319.972 71.2733 320.145 70.5533 320.145 69.74C320.145 68.9133 319.972 68.1933 319.625 67.58C319.292 66.9667 318.832 66.4933 318.245 66.16C317.658 65.8133 316.992 65.64 316.245 65.64C315.498 65.64 314.832 65.8133 314.245 66.16C313.658 66.4933 313.192 66.9667 312.845 67.58C312.498 68.1933 312.325 68.9133 312.325 69.74C312.325 70.5533 312.498 71.2733 312.845 71.9C313.192 72.5133 313.658 72.9933 314.245 73.34C314.832 73.6733 315.492 73.84 316.225 73.84ZM324.82 75V64.5H329.46C330.647 64.5 331.58 64.7267 332.26 65.18C332.953 65.6333 333.3 66.3 333.3 67.18C333.3 68.0333 332.973 68.6933 332.32 69.16C331.667 69.6133 330.807 69.84 329.74 69.84L330.02 69.42C331.273 69.42 332.193 69.6533 332.78 70.12C333.367 70.5867 333.66 71.26 333.66 72.14C333.66 73.0467 333.327 73.7533 332.66 74.26C332.007 74.7533 330.987 75 329.6 75H324.82ZM326.2 73.88H329.54C330.433 73.88 331.107 73.74 331.56 73.46C332.027 73.1667 332.26 72.7 332.26 72.06C332.26 71.42 332.053 70.9533 331.64 70.66C331.227 70.3667 330.573 70.22 329.68 70.22H326.2V73.88ZM326.2 69.16H329.36C330.173 69.16 330.793 69.0067 331.22 68.7C331.66 68.3933 331.88 67.9467 331.88 67.36C331.88 66.7733 331.66 66.3333 331.22 66.04C330.793 65.7467 330.173 65.6 329.36 65.6H326.2V69.16ZM101.909 102.66V100.58L110.349 97.42V98.58L101.909 95.42V93.34L111.129 96.92V99.08L101.909 102.66ZM121.453 105V92L122.593 93.18H118.493V91H124.053V105H121.453ZM132.87 105.2C131.764 105.2 130.764 104.92 129.87 104.36C128.99 103.8 128.297 102.987 127.79 101.92C127.284 100.84 127.03 99.5333 127.03 98C127.03 96.4667 127.284 95.1667 127.79 94.1C128.297 93.02 128.99 92.2 129.87 91.64C130.764 91.08 131.764 90.8 132.87 90.8C133.99 90.8 134.99 91.08 135.87 91.64C136.75 92.2 137.444 93.02 137.95 94.1C138.47 95.1667 138.73 96.4667 138.73 98C138.73 99.5333 138.47 100.84 137.95 101.92C137.444 102.987 136.75 103.8 135.87 104.36C134.99 104.92 133.99 105.2 132.87 105.2ZM132.87 102.94C133.524 102.94 134.09 102.767 134.57 102.42C135.05 102.06 135.424 101.513 135.69 100.78C135.97 100.047 136.11 99.12 136.11 98C136.11 96.8667 135.97 95.94 135.69 95.22C135.424 94.4867 135.05 93.9467 134.57 93.6C134.09 93.24 133.524 93.06 132.87 93.06C132.244 93.06 131.684 93.24 131.19 93.6C130.71 93.9467 130.33 94.4867 130.05 95.22C129.784 95.94 129.65 96.8667 129.65 98C129.65 99.12 129.784 100.047 130.05 100.78C130.33 101.513 130.71 102.06 131.19 102.42C131.684 102.767 132.244 102.94 132.87 102.94ZM152.255 105.2C151.148 105.2 150.148 104.92 149.255 104.36C148.375 103.8 147.681 102.987 147.175 101.92C146.668 100.84 146.415 99.5333 146.415 98C146.415 96.4667 146.668 95.1667 147.175 94.1C147.681 93.02 148.375 92.2 149.255 91.64C150.148 91.08 151.148 90.8 152.255 90.8C153.375 90.8 154.375 91.08 155.255 91.64C156.135 92.2 156.828 93.02 157.335 94.1C157.855 95.1667 158.115 96.4667 158.115 98C158.115 99.5333 157.855 100.84 157.335 101.92C156.828 102.987 156.135 103.8 155.255 104.36C154.375 104.92 153.375 105.2 152.255 105.2ZM152.255 102.94C152.908 102.94 153.475 102.767 153.955 102.42C154.435 102.06 154.808 101.513 155.075 100.78C155.355 100.047 155.495 99.12 155.495 98C155.495 96.8667 155.355 95.94 155.075 95.22C154.808 94.4867 154.435 93.9467 153.955 93.6C153.475 93.24 152.908 93.06 152.255 93.06C151.628 93.06 151.068 93.24 150.575 93.6C150.095 93.9467 149.715 94.4867 149.435 95.22C149.168 95.94 149.035 96.8667 149.035 98C149.035 99.12 149.168 100.047 149.435 100.78C149.715 101.513 150.095 102.06 150.575 102.42C151.068 102.767 151.628 102.94 152.255 102.94ZM165.912 105.2C164.805 105.2 163.805 104.92 162.912 104.36C162.032 103.8 161.338 102.987 160.832 101.92C160.325 100.84 160.072 99.5333 160.072 98C160.072 96.4667 160.325 95.1667 160.832 94.1C161.338 93.02 162.032 92.2 162.912 91.64C163.805 91.08 164.805 90.8 165.912 90.8C167.032 90.8 168.032 91.08 168.912 91.64C169.792 92.2 170.485 93.02 170.992 94.1C171.512 95.1667 171.772 96.4667 171.772 98C171.772 99.5333 171.512 100.84 170.992 101.92C170.485 102.987 169.792 103.8 168.912 104.36C168.032 104.92 167.032 105.2 165.912 105.2ZM165.912 102.94C166.565 102.94 167.132 102.767 167.612 102.42C168.092 102.06 168.465 101.513 168.732 100.78C169.012 100.047 169.152 99.12 169.152 98C169.152 96.8667 169.012 95.94 168.732 95.22C168.465 94.4867 168.092 93.9467 167.612 93.6C167.132 93.24 166.565 93.06 165.912 93.06C165.285 93.06 164.725 93.24 164.232 93.6C163.752 93.9467 163.372 94.4867 163.092 95.22C162.825 95.94 162.692 96.8667 162.692 98C162.692 99.12 162.825 100.047 163.092 100.78C163.372 101.513 163.752 102.06 164.232 102.42C164.725 102.767 165.285 102.94 165.912 102.94ZM179.569 105.2C178.462 105.2 177.462 104.92 176.569 104.36C175.689 103.8 174.995 102.987 174.489 101.92C173.982 100.84 173.729 99.5333 173.729 98C173.729 96.4667 173.982 95.1667 174.489 94.1C174.995 93.02 175.689 92.2 176.569 91.64C177.462 91.08 178.462 90.8 179.569 90.8C180.689 90.8 181.689 91.08 182.569 91.64C183.449 92.2 184.142 93.02 184.649 94.1C185.169 95.1667 185.429 96.4667 185.429 98C185.429 99.5333 185.169 100.84 184.649 101.92C184.142 102.987 183.449 103.8 182.569 104.36C181.689 104.92 180.689 105.2 179.569 105.2ZM179.569 102.94C180.222 102.94 180.789 102.767 181.269 102.42C181.749 102.06 182.122 101.513 182.389 100.78C182.669 100.047 182.809 99.12 182.809 98C182.809 96.8667 182.669 95.94 182.389 95.22C182.122 94.4867 181.749 93.9467 181.269 93.6C180.789 93.24 180.222 93.06 179.569 93.06C178.942 93.06 178.382 93.24 177.889 93.6C177.409 93.9467 177.029 94.4867 176.749 95.22C176.482 95.94 176.349 96.8667 176.349 98C176.349 99.12 176.482 100.047 176.749 100.78C177.029 101.513 177.409 102.06 177.889 102.42C178.382 102.767 178.942 102.94 179.569 102.94ZM193.96 105V94.5H203.4V105H201.98V95.36L202.34 95.74H195.02L195.38 95.36V105H193.96ZM211.957 105.1C210.943 105.1 210.03 104.873 209.217 104.42C208.417 103.953 207.783 103.32 207.317 102.52C206.85 101.707 206.617 100.78 206.617 99.74C206.617 98.6867 206.85 97.76 207.317 96.96C207.783 96.16 208.417 95.5333 209.217 95.08C210.017 94.6267 210.93 94.4 211.957 94.4C212.997 94.4 213.917 94.6267 214.717 95.08C215.53 95.5333 216.163 96.16 216.617 96.96C217.083 97.76 217.317 98.6867 217.317 99.74C217.317 100.78 217.083 101.707 216.617 102.52C216.163 103.32 215.53 103.953 214.717 104.42C213.903 104.873 212.983 105.1 211.957 105.1ZM211.957 103.84C212.717 103.84 213.39 103.673 213.977 103.34C214.563 102.993 215.023 102.513 215.357 101.9C215.703 101.273 215.877 100.553 215.877 99.74C215.877 98.9133 215.703 98.1933 215.357 97.58C215.023 96.9667 214.563 96.4933 213.977 96.16C213.39 95.8133 212.723 95.64 211.977 95.64C211.23 95.64 210.563 95.8133 209.977 96.16C209.39 96.4933 208.923 96.9667 208.577 97.58C208.23 98.1933 208.057 98.9133 208.057 99.74C208.057 100.553 208.23 101.273 208.577 101.9C208.923 102.513 209.39 102.993 209.977 103.34C210.563 103.673 211.223 103.84 211.957 103.84ZM218.573 104.98L218.673 103.76C218.766 103.773 218.853 103.793 218.933 103.82C219.026 103.833 219.106 103.84 219.173 103.84C219.6 103.84 219.94 103.68 220.193 103.36C220.46 103.04 220.66 102.613 220.793 102.08C220.926 101.547 221.02 100.947 221.073 100.28C221.126 99.6 221.173 98.92 221.213 98.24L221.393 94.5H229.093V105H227.673V95.32L228.033 95.74H222.313L222.653 95.3L222.493 98.34C222.453 99.2467 222.38 100.113 222.273 100.94C222.18 101.767 222.026 102.493 221.813 103.12C221.613 103.747 221.333 104.24 220.973 104.6C220.613 104.947 220.153 105.12 219.593 105.12C219.433 105.12 219.266 105.107 219.093 105.08C218.933 105.053 218.76 105.02 218.573 104.98ZM237.85 98.2C239.17 98.2133 240.17 98.5067 240.85 99.08C241.543 99.6533 241.89 100.48 241.89 101.56C241.89 102.68 241.516 103.54 240.77 104.14C240.036 104.74 238.97 105.033 237.57 105.02L233.33 105V94.5H234.75V98.16L237.85 98.2ZM237.49 103.94C238.463 103.953 239.196 103.76 239.69 103.36C240.196 102.947 240.45 102.347 240.45 101.56C240.45 100.773 240.203 100.2 239.71 99.84C239.216 99.4667 238.476 99.2733 237.49 99.26L234.75 99.22V103.9L237.49 103.94ZM247.522 105.12C246.762 105.12 246.008 105.013 245.262 104.8C244.515 104.587 243.855 104.26 243.282 103.82L243.742 102.76C244.248 103.133 244.835 103.42 245.502 103.62C246.168 103.807 246.828 103.9 247.482 103.9C248.135 103.887 248.702 103.793 249.182 103.62C249.662 103.447 250.035 103.207 250.302 102.9C250.568 102.593 250.702 102.247 250.702 101.86C250.702 101.3 250.448 100.867 249.942 100.56C249.435 100.24 248.742 100.08 247.862 100.08H246.062V99.04H247.762C248.282 99.04 248.742 98.9733 249.142 98.84C249.542 98.7067 249.848 98.5133 250.062 98.26C250.288 98.0067 250.402 97.7067 250.402 97.36C250.402 96.9867 250.268 96.6667 250.002 96.4C249.748 96.1333 249.395 95.9333 248.942 95.8C248.488 95.6667 247.975 95.6 247.402 95.6C246.882 95.6133 246.342 95.6933 245.782 95.84C245.222 95.9733 244.668 96.18 244.122 96.46L243.722 95.36C244.335 95.04 244.942 94.8 245.542 94.64C246.155 94.4667 246.768 94.38 247.382 94.38C248.222 94.3533 248.975 94.4533 249.642 94.68C250.322 94.9067 250.862 95.2333 251.262 95.66C251.662 96.0733 251.862 96.5733 251.862 97.16C251.862 97.68 251.702 98.1333 251.382 98.52C251.062 98.9067 250.635 99.2067 250.102 99.42C249.568 99.6333 248.962 99.74 248.282 99.74L248.342 99.36C249.542 99.36 250.475 99.5933 251.142 100.06C251.822 100.527 252.162 101.16 252.162 101.96C252.162 102.587 251.955 103.14 251.542 103.62C251.128 104.087 250.568 104.453 249.862 104.72C249.168 104.987 248.388 105.12 247.522 105.12ZM259.905 105.1C258.892 105.1 257.979 104.873 257.165 104.42C256.365 103.953 255.732 103.32 255.265 102.52C254.799 101.707 254.565 100.78 254.565 99.74C254.565 98.6867 254.799 97.76 255.265 96.96C255.732 96.16 256.365 95.5333 257.165 95.08C257.965 94.6267 258.879 94.4 259.905 94.4C260.945 94.4 261.865 94.6267 262.665 95.08C263.479 95.5333 264.112 96.16 264.565 96.96C265.032 97.76 265.265 98.6867 265.265 99.74C265.265 100.78 265.032 101.707 264.565 102.52C264.112 103.32 263.479 103.953 262.665 104.42C261.852 104.873 260.932 105.1 259.905 105.1ZM259.905 103.84C260.665 103.84 261.339 103.673 261.925 103.34C262.512 102.993 262.972 102.513 263.305 101.9C263.652 101.273 263.825 100.553 263.825 99.74C263.825 98.9133 263.652 98.1933 263.305 97.58C262.972 96.9667 262.512 96.4933 261.925 96.16C261.339 95.8133 260.672 95.64 259.925 95.64C259.179 95.64 258.512 95.8133 257.925 96.16C257.339 96.4933 256.872 96.9667 256.525 97.58C256.179 98.1933 256.005 98.9133 256.005 99.74C256.005 100.553 256.179 101.273 256.525 101.9C256.872 102.513 257.339 102.993 257.925 103.34C258.512 103.673 259.172 103.84 259.905 103.84ZM268.5 105V94.5H273.14C274.327 94.5 275.26 94.7267 275.94 95.18C276.633 95.6333 276.98 96.3 276.98 97.18C276.98 98.0333 276.653 98.6933 276 99.16C275.347 99.6133 274.487 99.84 273.42 99.84L273.7 99.42C274.953 99.42 275.873 99.6533 276.46 100.12C277.047 100.587 277.34 101.26 277.34 102.14C277.34 103.047 277.007 103.753 276.34 104.26C275.687 104.753 274.667 105 273.28 105H268.5ZM269.88 103.88H273.22C274.113 103.88 274.787 103.74 275.24 103.46C275.707 103.167 275.94 102.7 275.94 102.06C275.94 101.42 275.733 100.953 275.32 100.66C274.907 100.367 274.253 100.22 273.36 100.22H269.88V103.88ZM269.88 99.16H273.04C273.853 99.16 274.473 99.0067 274.9 98.7C275.34 98.3933 275.56 97.9467 275.56 97.36C275.56 96.7733 275.34 96.3333 274.9 96.04C274.473 95.7467 273.853 95.6 273.04 95.6H269.88V99.16ZM287.388 105V102.68L287.328 102.3V98.42C287.328 97.5267 287.075 96.84 286.568 96.36C286.075 95.88 285.335 95.64 284.348 95.64C283.668 95.64 283.021 95.7533 282.408 95.98C281.795 96.2067 281.275 96.5067 280.848 96.88L280.208 95.82C280.741 95.3667 281.381 95.02 282.128 94.78C282.875 94.5267 283.661 94.4 284.488 94.4C285.848 94.4 286.895 94.74 287.628 95.42C288.375 96.0867 288.748 97.1067 288.748 98.48V105H287.388ZM283.768 105.1C282.981 105.1 282.295 104.973 281.708 104.72C281.135 104.453 280.695 104.093 280.388 103.64C280.081 103.173 279.928 102.64 279.928 102.04C279.928 101.493 280.055 101 280.308 100.56C280.575 100.107 281.001 99.7467 281.588 99.48C282.188 99.2 282.988 99.06 283.988 99.06H287.608V100.12H284.028C283.015 100.12 282.308 100.3 281.908 100.66C281.521 101.02 281.328 101.467 281.328 102C281.328 102.6 281.561 103.08 282.028 103.44C282.495 103.8 283.148 103.98 283.988 103.98C284.788 103.98 285.475 103.8 286.048 103.44C286.635 103.067 287.061 102.533 287.328 101.84L287.648 102.82C287.381 103.513 286.915 104.067 286.248 104.48C285.595 104.893 284.768 105.1 283.768 105.1ZM294.728 105V95.36L295.088 95.74H290.748V94.5H300.128V95.74H295.788L296.148 95.36V105H294.728ZM306.393 105.1C305.3 105.1 304.34 104.873 303.513 104.42C302.686 103.953 302.04 103.32 301.573 102.52C301.106 101.707 300.873 100.78 300.873 99.74C300.873 98.7 301.093 97.78 301.533 96.98C301.986 96.18 302.6 95.5533 303.373 95.1C304.16 94.6333 305.04 94.4 306.013 94.4C307 94.4 307.873 94.6267 308.633 95.08C309.406 95.52 310.013 96.1467 310.453 96.96C310.893 97.76 311.113 98.6867 311.113 99.74C311.113 99.8067 311.106 99.88 311.093 99.96C311.093 100.027 311.093 100.1 311.093 100.18H301.953V99.12H310.333L309.773 99.54C309.773 98.78 309.606 98.1067 309.273 97.52C308.953 96.92 308.513 96.4533 307.953 96.12C307.393 95.7867 306.746 95.62 306.013 95.62C305.293 95.62 304.646 95.7867 304.073 96.12C303.5 96.4533 303.053 96.92 302.733 97.52C302.413 98.12 302.253 98.8067 302.253 99.58V99.8C302.253 100.6 302.426 101.307 302.773 101.92C303.133 102.52 303.626 102.993 304.253 103.34C304.893 103.673 305.62 103.84 306.433 103.84C307.073 103.84 307.666 103.727 308.213 103.5C308.773 103.273 309.253 102.927 309.653 102.46L310.453 103.38C309.986 103.94 309.4 104.367 308.693 104.66C308 104.953 307.233 105.1 306.393 105.1ZM312.321 104.98L312.421 103.76C312.515 103.773 312.601 103.793 312.681 103.82C312.775 103.833 312.855 103.84 312.921 103.84C313.348 103.84 313.688 103.68 313.941 103.36C314.208 103.04 314.408 102.613 314.541 102.08C314.675 101.547 314.768 100.947 314.821 100.28C314.875 99.6 314.921 98.92 314.961 98.24L315.141 94.5H322.841V105H321.421V95.32L321.781 95.74H316.061L316.401 95.3L316.241 98.34C316.201 99.2467 316.128 100.113 316.021 100.94C315.928 101.767 315.775 102.493 315.561 103.12C315.361 103.747 315.081 104.24 314.721 104.6C314.361 104.947 313.901 105.12 313.341 105.12C313.181 105.12 313.015 105.107 312.841 105.08C312.681 105.053 312.508 105.02 312.321 104.98ZM331.578 105.1C330.485 105.1 329.525 104.873 328.698 104.42C327.872 103.953 327.225 103.32 326.758 102.52C326.292 101.707 326.058 100.78 326.058 99.74C326.058 98.7 326.278 97.78 326.718 96.98C327.172 96.18 327.785 95.5533 328.558 95.1C329.345 94.6333 330.225 94.4 331.198 94.4C332.185 94.4 333.058 94.6267 333.818 95.08C334.592 95.52 335.198 96.1467 335.638 96.96C336.078 97.76 336.298 98.6867 336.298 99.74C336.298 99.8067 336.292 99.88 336.278 99.96C336.278 100.027 336.278 100.1 336.278 100.18H327.138V99.12H335.518L334.958 99.54C334.958 98.78 334.792 98.1067 334.458 97.52C334.138 96.92 333.698 96.4533 333.138 96.12C332.578 95.7867 331.932 95.62 331.198 95.62C330.478 95.62 329.832 95.7867 329.258 96.12C328.685 96.4533 328.238 96.92 327.918 97.52C327.598 98.12 327.438 98.8067 327.438 99.58V99.8C327.438 100.6 327.612 101.307 327.958 101.92C328.318 102.52 328.812 102.993 329.438 103.34C330.078 103.673 330.805 103.84 331.618 103.84C332.258 103.84 332.852 103.727 333.398 103.5C333.958 103.273 334.438 102.927 334.838 102.46L335.638 103.38C335.172 103.94 334.585 104.367 333.878 104.66C333.185 104.953 332.418 105.1 331.578 105.1ZM339.641 105V94.5H341.061V102.84L348.081 94.5H349.341V105H347.921V96.64L340.921 105H339.641ZM344.401 92.98C343.521 92.98 342.808 92.76 342.261 92.32C341.728 91.8667 341.448 91.22 341.421 90.38H342.441C342.455 90.9133 342.641 91.3333 343.001 91.64C343.361 91.9467 343.828 92.1 344.401 92.1C344.975 92.1 345.441 91.9467 345.801 91.64C346.175 91.3333 346.368 90.9133 346.381 90.38H347.401C347.388 91.22 347.108 91.8667 346.561 92.32C346.015 92.76 345.295 92.98 344.401 92.98ZM100.012 135V121H101.472V132.6L110.432 121H111.772V135H110.312V123.42L101.352 135H100.012ZM116.357 135V124.5H117.777V129.14H124.397V124.5H125.817V135H124.397V130.36H117.777V135H116.357ZM132.053 135V125.36L132.413 125.74H128.073V124.5H137.453V125.74H133.113L133.473 125.36V135H132.053ZM143.718 135.1C142.624 135.1 141.664 134.873 140.838 134.42C140.011 133.953 139.364 133.32 138.898 132.52C138.431 131.707 138.198 130.78 138.198 129.74C138.198 128.7 138.418 127.78 138.858 126.98C139.311 126.18 139.924 125.553 140.698 125.1C141.484 124.633 142.364 124.4 143.338 124.4C144.324 124.4 145.198 124.627 145.958 125.08C146.731 125.52 147.338 126.147 147.778 126.96C148.218 127.76 148.438 128.687 148.438 129.74C148.438 129.807 148.431 129.88 148.418 129.96C148.418 130.027 148.418 130.1 148.418 130.18H139.278V129.12H147.658L147.098 129.54C147.098 128.78 146.931 128.107 146.598 127.52C146.278 126.92 145.838 126.453 145.278 126.12C144.718 125.787 144.071 125.62 143.338 125.62C142.618 125.62 141.971 125.787 141.398 126.12C140.824 126.453 140.378 126.92 140.058 127.52C139.738 128.12 139.578 128.807 139.578 129.58V129.8C139.578 130.6 139.751 131.307 140.098 131.92C140.458 132.52 140.951 132.993 141.578 133.34C142.218 133.673 142.944 133.84 143.758 133.84C144.398 133.84 144.991 133.727 145.538 133.5C146.098 133.273 146.578 132.927 146.978 132.46L147.778 133.38C147.311 133.94 146.724 134.367 146.018 134.66C145.324 134.953 144.558 135.1 143.718 135.1ZM151.781 135V124.5H159.221V125.74H152.841L153.201 125.38V135H151.781ZM166.893 135.1C165.986 135.1 165.166 134.893 164.433 134.48C163.7 134.053 163.113 133.447 162.673 132.66C162.246 131.86 162.033 130.887 162.033 129.74C162.033 128.593 162.246 127.627 162.673 126.84C163.1 126.04 163.68 125.433 164.413 125.02C165.146 124.607 165.973 124.4 166.893 124.4C167.893 124.4 168.786 124.627 169.573 125.08C170.373 125.52 171 126.147 171.453 126.96C171.906 127.76 172.133 128.687 172.133 129.74C172.133 130.807 171.906 131.74 171.453 132.54C171 133.34 170.373 133.967 169.573 134.42C168.786 134.873 167.893 135.1 166.893 135.1ZM161.473 138.88V124.5H162.833V127.66L162.693 129.76L162.893 131.88V138.88H161.473ZM166.793 133.84C167.54 133.84 168.206 133.673 168.793 133.34C169.38 132.993 169.846 132.513 170.193 131.9C170.54 131.273 170.713 130.553 170.713 129.74C170.713 128.927 170.54 128.213 170.193 127.6C169.846 126.987 169.38 126.507 168.793 126.16C168.206 125.813 167.54 125.64 166.793 125.64C166.046 125.64 165.373 125.813 164.773 126.16C164.186 126.507 163.72 126.987 163.373 127.6C163.04 128.213 162.873 128.927 162.873 129.74C162.873 130.553 163.04 131.273 163.373 131.9C163.72 132.513 164.186 132.993 164.773 133.34C165.373 133.673 166.046 133.84 166.793 133.84ZM181.845 135V132.68L181.785 132.3V128.42C181.785 127.527 181.532 126.84 181.025 126.36C180.532 125.88 179.792 125.64 178.805 125.64C178.125 125.64 177.479 125.753 176.865 125.98C176.252 126.207 175.732 126.507 175.305 126.88L174.665 125.82C175.199 125.367 175.839 125.02 176.585 124.78C177.332 124.527 178.119 124.4 178.945 124.4C180.305 124.4 181.352 124.74 182.085 125.42C182.832 126.087 183.205 127.107 183.205 128.48V135H181.845ZM178.225 135.1C177.439 135.1 176.752 134.973 176.165 134.72C175.592 134.453 175.152 134.093 174.845 133.64C174.539 133.173 174.385 132.64 174.385 132.04C174.385 131.493 174.512 131 174.765 130.56C175.032 130.107 175.459 129.747 176.045 129.48C176.645 129.2 177.445 129.06 178.445 129.06H182.065V130.12H178.485C177.472 130.12 176.765 130.3 176.365 130.66C175.979 131.02 175.785 131.467 175.785 132C175.785 132.6 176.019 133.08 176.485 133.44C176.952 133.8 177.605 133.98 178.445 133.98C179.245 133.98 179.932 133.8 180.505 133.44C181.092 133.067 181.519 132.533 181.785 131.84L182.105 132.82C181.839 133.513 181.372 134.067 180.705 134.48C180.052 134.893 179.225 135.1 178.225 135.1ZM187.186 135V124.5H188.606V133.76H195.026V124.5H196.446V135H187.186ZM196.806 137.54V134.88L197.166 135H195.026V133.76H198.146V137.54H196.806ZM201.057 135V124.5H202.477V132.84L209.497 124.5H210.757V135H209.337V126.64L202.337 135H201.057ZM221.807 135V131.22L222.067 131.52H218.507C217.16 131.52 216.107 131.227 215.347 130.64C214.587 130.053 214.207 129.2 214.207 128.08C214.207 126.88 214.614 125.987 215.427 125.4C216.24 124.8 217.327 124.5 218.687 124.5H223.107V135H221.807ZM214.127 135L217.007 130.96H218.487L215.667 135H214.127ZM221.807 130.8V125.32L222.067 125.74H218.727C217.754 125.74 216.994 125.927 216.447 126.3C215.914 126.673 215.647 127.28 215.647 128.12C215.647 129.68 216.64 130.46 218.627 130.46H222.067L221.807 130.8ZM237.19 135.1C236.15 135.1 235.217 134.873 234.39 134.42C233.577 133.953 232.937 133.32 232.47 132.52C232.004 131.707 231.77 130.78 231.77 129.74C231.77 128.687 232.004 127.76 232.47 126.96C232.937 126.16 233.577 125.533 234.39 125.08C235.217 124.627 236.15 124.4 237.19 124.4C238.084 124.4 238.89 124.573 239.61 124.92C240.33 125.267 240.897 125.787 241.31 126.48L240.25 127.2C239.89 126.667 239.444 126.273 238.91 126.02C238.377 125.767 237.797 125.64 237.17 125.64C236.424 125.64 235.75 125.813 235.15 126.16C234.55 126.493 234.077 126.967 233.73 127.58C233.384 128.193 233.21 128.913 233.21 129.74C233.21 130.567 233.384 131.287 233.73 131.9C234.077 132.513 234.55 132.993 235.15 133.34C235.75 133.673 236.424 133.84 237.17 133.84C237.797 133.84 238.377 133.713 238.91 133.46C239.444 133.207 239.89 132.82 240.25 132.3L241.31 133.02C240.897 133.7 240.33 134.22 239.61 134.58C238.89 134.927 238.084 135.1 237.19 135.1ZM254.454 135.2C253.574 135.2 252.788 135.067 252.094 134.8C251.401 134.533 250.801 134.127 250.294 133.58C249.801 133.02 249.421 132.313 249.154 131.46C248.888 130.607 248.754 129.593 248.754 128.42C248.754 127.567 248.828 126.787 248.974 126.08C249.121 125.373 249.341 124.74 249.634 124.18C249.928 123.607 250.294 123.1 250.734 122.66C251.188 122.22 251.714 121.853 252.314 121.56C252.914 121.267 253.594 121.04 254.354 120.88L259.314 119.82L259.674 122.06L255.174 122.98C254.921 123.033 254.614 123.113 254.254 123.22C253.908 123.313 253.548 123.46 253.174 123.66C252.814 123.847 252.474 124.12 252.154 124.48C251.848 124.827 251.594 125.28 251.394 125.84C251.208 126.387 251.114 127.073 251.114 127.9C251.114 128.153 251.121 128.347 251.134 128.48C251.161 128.6 251.181 128.733 251.194 128.88C251.221 129.013 251.234 129.213 251.234 129.48L250.294 128.5C250.561 127.82 250.928 127.24 251.394 126.76C251.874 126.267 252.428 125.893 253.054 125.64C253.694 125.373 254.388 125.24 255.134 125.24C256.134 125.24 257.021 125.447 257.794 125.86C258.568 126.273 259.174 126.853 259.614 127.6C260.054 128.347 260.274 129.193 260.274 130.14C260.274 131.127 260.034 132 259.554 132.76C259.074 133.52 258.394 134.12 257.514 134.56C256.648 134.987 255.628 135.2 254.454 135.2ZM254.654 133.18C255.254 133.18 255.781 133.053 256.234 132.8C256.701 132.533 257.061 132.173 257.314 131.72C257.581 131.267 257.714 130.76 257.714 130.2C257.714 129.64 257.581 129.153 257.314 128.74C257.061 128.313 256.701 127.973 256.234 127.72C255.781 127.467 255.241 127.34 254.614 127.34C254.014 127.34 253.474 127.46 252.994 127.7C252.528 127.94 252.161 128.273 251.894 128.7C251.641 129.113 251.514 129.593 251.514 130.14C251.514 130.7 251.648 131.213 251.914 131.68C252.181 132.147 252.548 132.513 253.014 132.78C253.494 133.047 254.041 133.18 254.654 133.18ZM262.894 135V124.32H265.394V131.36L271.294 124.32H273.574V135H271.074V127.96L265.194 135H262.894ZM280.38 135.18C279.567 135.18 278.76 135.087 277.96 134.9C277.174 134.7 276.46 134.42 275.82 134.06L276.52 132.2C277.04 132.493 277.627 132.72 278.28 132.88C278.934 133.04 279.587 133.12 280.24 133.12C280.8 133.12 281.28 133.067 281.68 132.96C282.08 132.84 282.387 132.667 282.6 132.44C282.827 132.213 282.94 131.953 282.94 131.66C282.94 131.233 282.754 130.913 282.38 130.7C282.02 130.473 281.5 130.36 280.82 130.36H278.76V128.68H280.62C281.047 128.68 281.407 128.633 281.7 128.54C282.007 128.447 282.24 128.307 282.4 128.12C282.56 127.933 282.64 127.713 282.64 127.46C282.64 127.207 282.54 126.987 282.34 126.8C282.154 126.6 281.88 126.453 281.52 126.36C281.16 126.253 280.727 126.2 280.22 126.2C279.687 126.2 279.134 126.267 278.56 126.4C278 126.533 277.427 126.727 276.84 126.98L276.2 125.14C276.88 124.833 277.54 124.6 278.18 124.44C278.834 124.267 279.48 124.173 280.12 124.16C281.094 124.12 281.96 124.22 282.72 124.46C283.48 124.7 284.08 125.047 284.52 125.5C284.96 125.953 285.18 126.487 285.18 127.1C285.18 127.607 285.02 128.067 284.7 128.48C284.394 128.88 283.967 129.193 283.42 129.42C282.887 129.647 282.274 129.76 281.58 129.76L281.66 129.22C282.847 129.22 283.78 129.46 284.46 129.94C285.14 130.407 285.48 131.047 285.48 131.86C285.48 132.513 285.26 133.093 284.82 133.6C284.38 134.093 283.774 134.48 283 134.76C282.24 135.04 281.367 135.18 280.38 135.18ZM288.255 135V124.32H290.755V128.66H296.135V124.32H298.635V135H296.135V130.78H290.755V135H288.255ZM307.165 135.14C305.979 135.14 304.939 134.907 304.045 134.44C303.165 133.96 302.479 133.307 301.985 132.48C301.505 131.653 301.265 130.713 301.265 129.66C301.265 128.593 301.499 127.653 301.965 126.84C302.445 126.013 303.099 125.367 303.925 124.9C304.765 124.433 305.719 124.2 306.785 124.2C307.825 124.2 308.752 124.427 309.565 124.88C310.379 125.333 311.019 125.973 311.485 126.8C311.952 127.627 312.185 128.6 312.185 129.72C312.185 129.827 312.179 129.947 312.165 130.08C312.165 130.213 312.159 130.34 312.145 130.46H303.245V128.8H310.825L309.845 129.32C309.859 128.707 309.732 128.167 309.465 127.7C309.199 127.233 308.832 126.867 308.365 126.6C307.912 126.333 307.385 126.2 306.785 126.2C306.172 126.2 305.632 126.333 305.165 126.6C304.712 126.867 304.352 127.24 304.085 127.72C303.832 128.187 303.705 128.74 303.705 129.38V129.78C303.705 130.42 303.852 130.987 304.145 131.48C304.439 131.973 304.852 132.353 305.385 132.62C305.919 132.887 306.532 133.02 307.225 133.02C307.825 133.02 308.365 132.927 308.845 132.74C309.325 132.553 309.752 132.26 310.125 131.86L311.465 133.4C310.985 133.96 310.379 134.393 309.645 134.7C308.925 134.993 308.099 135.14 307.165 135.14ZM319.98 135.14C318.86 135.14 317.86 134.907 316.98 134.44C316.113 133.96 315.433 133.307 314.94 132.48C314.447 131.653 314.2 130.713 314.2 129.66C314.2 128.593 314.447 127.653 314.94 126.84C315.433 126.013 316.113 125.367 316.98 124.9C317.86 124.433 318.86 124.2 319.98 124.2C321.02 124.2 321.933 124.413 322.72 124.84C323.52 125.253 324.127 125.867 324.54 126.68L322.62 127.8C322.3 127.293 321.907 126.92 321.44 126.68C320.987 126.44 320.493 126.32 319.96 126.32C319.347 126.32 318.793 126.453 318.3 126.72C317.807 126.987 317.42 127.373 317.14 127.88C316.86 128.373 316.72 128.967 316.72 129.66C316.72 130.353 316.86 130.953 317.14 131.46C317.42 131.953 317.807 132.333 318.3 132.6C318.793 132.867 319.347 133 319.96 133C320.493 133 320.987 132.88 321.44 132.64C321.907 132.4 322.3 132.027 322.62 131.52L324.54 132.64C324.127 133.44 323.52 134.06 322.72 134.5C321.933 134.927 321.02 135.14 319.98 135.14ZM331.545 135.14C330.451 135.14 329.478 134.907 328.625 134.44C327.771 133.96 327.098 133.307 326.605 132.48C326.111 131.653 325.865 130.713 325.865 129.66C325.865 128.593 326.111 127.653 326.605 126.84C327.098 126.013 327.771 125.367 328.625 124.9C329.478 124.433 330.451 124.2 331.545 124.2C332.651 124.2 333.631 124.433 334.485 124.9C335.351 125.367 336.025 126.007 336.505 126.82C336.998 127.633 337.245 128.58 337.245 129.66C337.245 130.713 336.998 131.653 336.505 132.48C336.025 133.307 335.351 133.96 334.485 134.44C333.631 134.907 332.651 135.14 331.545 135.14ZM331.545 133C332.158 133 332.705 132.867 333.185 132.6C333.665 132.333 334.038 131.947 334.305 131.44C334.585 130.933 334.725 130.34 334.725 129.66C334.725 128.967 334.585 128.373 334.305 127.88C334.038 127.373 333.665 126.987 333.185 126.72C332.705 126.453 332.165 126.32 331.565 126.32C330.951 126.32 330.405 126.453 329.925 126.72C329.458 126.987 329.085 127.373 328.805 127.88C328.525 128.373 328.385 128.967 328.385 129.66C328.385 130.34 328.525 130.933 328.805 131.44C329.085 131.947 329.458 132.333 329.925 132.6C330.405 132.867 330.945 133 331.545 133ZM339.914 135V124.32H342.534L346.834 131.9H345.794L350.314 124.32H352.654L352.674 135H350.414V127L350.814 127.26L346.814 133.88H345.734L341.714 127.08L342.194 126.96V135H339.914Z" fill="white"/>
<path d="M113.062 292V278H115.202L121.322 288.22H120.202L126.222 278H128.362L128.382 292H125.922L125.902 281.86H126.422L121.302 290.4H120.142L114.942 281.86H115.542V292H113.062ZM136.406 292L130.286 278H133.106L138.566 290.66H136.946L142.466 278H145.066L138.966 292H136.406ZM146.744 292V278H152.504C153.744 278 154.804 278.2 155.684 278.6C156.577 279 157.264 279.573 157.744 280.32C158.224 281.067 158.464 281.953 158.464 282.98C158.464 284.007 158.224 284.893 157.744 285.64C157.264 286.387 156.577 286.96 155.684 287.36C154.804 287.76 153.744 287.96 152.504 287.96H148.184L149.344 286.74V292H146.744ZM149.344 287.02L148.184 285.76H152.384C153.53 285.76 154.39 285.52 154.964 285.04C155.55 284.547 155.844 283.86 155.844 282.98C155.844 282.087 155.55 281.4 154.964 280.92C154.39 280.44 153.53 280.2 152.384 280.2H148.184L149.344 278.92V287.02ZM171.43 292.1C170.39 292.1 169.456 291.873 168.63 291.42C167.816 290.953 167.176 290.32 166.71 289.52C166.243 288.707 166.01 287.78 166.01 286.74C166.01 285.687 166.243 284.76 166.71 283.96C167.176 283.16 167.816 282.533 168.63 282.08C169.456 281.627 170.39 281.4 171.43 281.4C172.323 281.4 173.13 281.573 173.85 281.92C174.57 282.267 175.136 282.787 175.55 283.48L174.49 284.2C174.13 283.667 173.683 283.273 173.15 283.02C172.616 282.767 172.036 282.64 171.41 282.64C170.663 282.64 169.99 282.813 169.39 283.16C168.79 283.493 168.316 283.967 167.97 284.58C167.623 285.193 167.45 285.913 167.45 286.74C167.45 287.567 167.623 288.287 167.97 288.9C168.316 289.513 168.79 289.993 169.39 290.34C169.99 290.673 170.663 290.84 171.41 290.84C172.036 290.84 172.616 290.713 173.15 290.46C173.683 290.207 174.13 289.82 174.49 289.3L175.55 290.02C175.136 290.7 174.57 291.22 173.85 291.58C173.13 291.927 172.323 292.1 171.43 292.1ZM182.644 292.1C181.63 292.1 180.717 291.873 179.904 291.42C179.104 290.953 178.47 290.32 178.004 289.52C177.537 288.707 177.304 287.78 177.304 286.74C177.304 285.687 177.537 284.76 178.004 283.96C178.47 283.16 179.104 282.533 179.904 282.08C180.704 281.627 181.617 281.4 182.644 281.4C183.684 281.4 184.604 281.627 185.404 282.08C186.217 282.533 186.85 283.16 187.304 283.96C187.77 284.76 188.004 285.687 188.004 286.74C188.004 287.78 187.77 288.707 187.304 289.52C186.85 290.32 186.217 290.953 185.404 291.42C184.59 291.873 183.67 292.1 182.644 292.1ZM182.644 290.84C183.404 290.84 184.077 290.673 184.664 290.34C185.25 289.993 185.71 289.513 186.044 288.9C186.39 288.273 186.564 287.553 186.564 286.74C186.564 285.913 186.39 285.193 186.044 284.58C185.71 283.967 185.25 283.493 184.664 283.16C184.077 282.813 183.41 282.64 182.664 282.64C181.917 282.64 181.25 282.813 180.664 283.16C180.077 283.493 179.61 283.967 179.264 284.58C178.917 285.193 178.744 285.913 178.744 286.74C178.744 287.553 178.917 288.273 179.264 288.9C179.61 289.513 180.077 289.993 180.664 290.34C181.25 290.673 181.91 290.84 182.644 290.84ZM191.238 292V281.5H192.658V290.76H199.078V281.5H200.498V292H191.238ZM200.858 294.54V291.88L201.218 292H199.078V290.76H202.198V294.54H200.858ZM205.11 292V281.5H206.53V289.84L213.55 281.5H214.81V292H213.39V283.64L206.39 292H205.11ZM225.6 292V289.68L225.54 289.3V285.42C225.54 284.527 225.286 283.84 224.78 283.36C224.286 282.88 223.546 282.64 222.56 282.64C221.88 282.64 221.233 282.753 220.62 282.98C220.006 283.207 219.486 283.507 219.06 283.88L218.42 282.82C218.953 282.367 219.593 282.02 220.34 281.78C221.086 281.527 221.873 281.4 222.7 281.4C224.06 281.4 225.106 281.74 225.84 282.42C226.586 283.087 226.96 284.107 226.96 285.48V292H225.6ZM221.98 292.1C221.193 292.1 220.506 291.973 219.92 291.72C219.346 291.453 218.906 291.093 218.6 290.64C218.293 290.173 218.14 289.64 218.14 289.04C218.14 288.493 218.266 288 218.52 287.56C218.786 287.107 219.213 286.747 219.8 286.48C220.4 286.2 221.2 286.06 222.2 286.06H225.82V287.12H222.24C221.226 287.12 220.52 287.3 220.12 287.66C219.733 288.02 219.54 288.467 219.54 289C219.54 289.6 219.773 290.08 220.24 290.44C220.706 290.8 221.36 290.98 222.2 290.98C223 290.98 223.686 290.8 224.26 290.44C224.846 290.067 225.273 289.533 225.54 288.84L225.86 289.82C225.593 290.513 225.126 291.067 224.46 291.48C223.806 291.893 222.98 292.1 221.98 292.1ZM229.02 291.98L229.12 290.76C229.213 290.773 229.3 290.793 229.38 290.82C229.473 290.833 229.553 290.84 229.62 290.84C230.047 290.84 230.387 290.68 230.64 290.36C230.907 290.04 231.107 289.613 231.24 289.08C231.373 288.547 231.467 287.947 231.52 287.28C231.573 286.6 231.62 285.92 231.66 285.24L231.84 281.5H239.54V292H238.12V282.32L238.48 282.74H232.76L233.1 282.3L232.94 285.34C232.9 286.247 232.827 287.113 232.72 287.94C232.627 288.767 232.473 289.493 232.26 290.12C232.06 290.747 231.78 291.24 231.42 291.6C231.06 291.947 230.6 292.12 230.04 292.12C229.88 292.12 229.713 292.107 229.54 292.08C229.38 292.053 229.207 292.02 229.02 291.98ZM248.297 285.2C249.617 285.213 250.617 285.507 251.297 286.08C251.99 286.653 252.337 287.48 252.337 288.56C252.337 289.68 251.963 290.54 251.217 291.14C250.483 291.74 249.417 292.033 248.017 292.02L243.777 292V281.5H245.197V285.16L248.297 285.2ZM247.937 290.94C248.91 290.953 249.643 290.76 250.137 290.36C250.643 289.947 250.897 289.347 250.897 288.56C250.897 287.773 250.65 287.2 250.157 286.84C249.663 286.467 248.923 286.273 247.937 286.26L245.197 286.22V290.9L247.937 290.94ZM255.246 292V281.5H256.666V286.14H263.286V281.5H264.706V292H263.286V287.36H256.666V292H255.246ZM273.262 292.1C272.249 292.1 271.336 291.873 270.522 291.42C269.722 290.953 269.089 290.32 268.622 289.52C268.156 288.707 267.922 287.78 267.922 286.74C267.922 285.687 268.156 284.76 268.622 283.96C269.089 283.16 269.722 282.533 270.522 282.08C271.322 281.627 272.236 281.4 273.262 281.4C274.302 281.4 275.222 281.627 276.022 282.08C276.836 282.533 277.469 283.16 277.922 283.96C278.389 284.76 278.622 285.687 278.622 286.74C278.622 287.78 278.389 288.707 277.922 289.52C277.469 290.32 276.836 290.953 276.022 291.42C275.209 291.873 274.289 292.1 273.262 292.1ZM273.262 290.84C274.022 290.84 274.696 290.673 275.282 290.34C275.869 289.993 276.329 289.513 276.662 288.9C277.009 288.273 277.182 287.553 277.182 286.74C277.182 285.913 277.009 285.193 276.662 284.58C276.329 283.967 275.869 283.493 275.282 283.16C274.696 282.813 274.029 282.64 273.282 282.64C272.536 282.64 271.869 282.813 271.282 283.16C270.696 283.493 270.229 283.967 269.882 284.58C269.536 285.193 269.362 285.913 269.362 286.74C269.362 287.553 269.536 288.273 269.882 288.9C270.229 289.513 270.696 289.993 271.282 290.34C271.869 290.673 272.529 290.84 273.262 290.84ZM281.857 292V281.5H283.277V289.84L290.297 281.5H291.557V292H290.137V283.64L283.137 292H281.857ZM286.617 279.98C285.737 279.98 285.024 279.76 284.477 279.32C283.944 278.867 283.664 278.22 283.637 277.38H284.657C284.67 277.913 284.857 278.333 285.217 278.64C285.577 278.947 286.044 279.1 286.617 279.1C287.19 279.1 287.657 278.947 288.017 278.64C288.39 278.333 288.584 277.913 288.597 277.38H289.617C289.604 278.22 289.324 278.867 288.777 279.32C288.23 279.76 287.51 279.98 286.617 279.98ZM305.661 292.1C304.621 292.1 303.688 291.873 302.861 291.42C302.048 290.953 301.408 290.32 300.941 289.52C300.474 288.707 300.241 287.78 300.241 286.74C300.241 285.687 300.474 284.76 300.941 283.96C301.408 283.16 302.048 282.533 302.861 282.08C303.688 281.627 304.621 281.4 305.661 281.4C306.554 281.4 307.361 281.573 308.081 281.92C308.801 282.267 309.368 282.787 309.781 283.48L308.721 284.2C308.361 283.667 307.914 283.273 307.381 283.02C306.848 282.767 306.268 282.64 305.641 282.64C304.894 282.64 304.221 282.813 303.621 283.16C303.021 283.493 302.548 283.967 302.201 284.58C301.854 285.193 301.681 285.913 301.681 286.74C301.681 287.567 301.854 288.287 302.201 288.9C302.548 289.513 303.021 289.993 303.621 290.34C304.221 290.673 304.894 290.84 305.641 290.84C306.268 290.84 306.848 290.713 307.381 290.46C307.914 290.207 308.361 289.82 308.721 289.3L309.781 290.02C309.368 290.7 308.801 291.22 308.081 291.58C307.361 291.927 306.554 292.1 305.661 292.1ZM317.055 292.1C315.961 292.1 315.001 291.873 314.175 291.42C313.348 290.953 312.701 290.32 312.235 289.52C311.768 288.707 311.535 287.78 311.535 286.74C311.535 285.7 311.755 284.78 312.195 283.98C312.648 283.18 313.261 282.553 314.035 282.1C314.821 281.633 315.701 281.4 316.675 281.4C317.661 281.4 318.535 281.627 319.295 282.08C320.068 282.52 320.675 283.147 321.115 283.96C321.555 284.76 321.775 285.687 321.775 286.74C321.775 286.807 321.768 286.88 321.755 286.96C321.755 287.027 321.755 287.1 321.755 287.18H312.615V286.12H320.995L320.435 286.54C320.435 285.78 320.268 285.107 319.935 284.52C319.615 283.92 319.175 283.453 318.615 283.12C318.055 282.787 317.408 282.62 316.675 282.62C315.955 282.62 315.308 282.787 314.735 283.12C314.161 283.453 313.715 283.92 313.395 284.52C313.075 285.12 312.915 285.807 312.915 286.58V286.8C312.915 287.6 313.088 288.307 313.435 288.92C313.795 289.52 314.288 289.993 314.915 290.34C315.555 290.673 316.281 290.84 317.095 290.84C317.735 290.84 318.328 290.727 318.875 290.5C319.435 290.273 319.915 289.927 320.315 289.46L321.115 290.38C320.648 290.94 320.061 291.367 319.355 291.66C318.661 291.953 317.895 292.1 317.055 292.1ZM326.649 292V282.36L327.009 282.74H322.669V281.5H332.049V282.74H327.709L328.069 282.36V292H326.649ZM334.302 292V281.5H335.722V289.84L342.742 281.5H344.002V292H342.582V283.64L335.582 292H334.302ZM143.527 321.32V312.74H138.467L138.347 315.08C138.32 315.787 138.274 316.48 138.207 317.16C138.154 317.84 138.054 318.467 137.907 319.04C137.774 319.6 137.58 320.06 137.327 320.42C137.074 320.767 136.747 320.967 136.347 321.02L134.927 320.76C135.34 320.773 135.68 320.627 135.947 320.32C136.214 320 136.42 319.567 136.567 319.02C136.714 318.473 136.82 317.853 136.887 317.16C136.954 316.453 137.007 315.733 137.047 315L137.187 311.5H144.947V321.32H143.527ZM134.487 324.54V320.76H146.587V324.54H145.247V322H135.827V324.54H134.487ZM147.634 321.98L147.734 320.76C147.828 320.773 147.914 320.793 147.994 320.82C148.088 320.833 148.168 320.84 148.234 320.84C148.661 320.84 149.001 320.68 149.254 320.36C149.521 320.04 149.721 319.613 149.854 319.08C149.988 318.547 150.081 317.947 150.134 317.28C150.188 316.6 150.234 315.92 150.274 315.24L150.454 311.5H158.154V322H156.734V312.32L157.094 312.74H151.374L151.714 312.3L151.554 315.34C151.514 316.247 151.441 317.113 151.334 317.94C151.241 318.767 151.088 319.493 150.874 320.12C150.674 320.747 150.394 321.24 150.034 321.6C149.674 321.947 149.214 322.12 148.654 322.12C148.494 322.12 148.328 322.107 148.154 322.08C147.994 322.053 147.821 322.02 147.634 321.98ZM169.171 322V318.22L169.431 318.52H165.871C164.524 318.52 163.471 318.227 162.711 317.64C161.951 317.053 161.571 316.2 161.571 315.08C161.571 313.88 161.978 312.987 162.791 312.4C163.604 311.8 164.691 311.5 166.051 311.5H170.471V322H169.171ZM161.491 322L164.371 317.96H165.851L163.031 322H161.491ZM169.171 317.8V312.32L169.431 312.74H166.091C165.118 312.74 164.358 312.927 163.811 313.3C163.278 313.673 163.011 314.28 163.011 315.12C163.011 316.68 164.004 317.46 165.991 317.46H169.431L169.171 317.8ZM184.554 322.1C183.514 322.1 182.581 321.873 181.754 321.42C180.941 320.953 180.301 320.32 179.834 319.52C179.368 318.707 179.134 317.78 179.134 316.74C179.134 315.687 179.368 314.76 179.834 313.96C180.301 313.16 180.941 312.533 181.754 312.08C182.581 311.627 183.514 311.4 184.554 311.4C185.448 311.4 186.254 311.573 186.974 311.92C187.694 312.267 188.261 312.787 188.674 313.48L187.614 314.2C187.254 313.667 186.808 313.273 186.274 313.02C185.741 312.767 185.161 312.64 184.534 312.64C183.788 312.64 183.114 312.813 182.514 313.16C181.914 313.493 181.441 313.967 181.094 314.58C180.748 315.193 180.574 315.913 180.574 316.74C180.574 317.567 180.748 318.287 181.094 318.9C181.441 319.513 181.914 319.993 182.514 320.34C183.114 320.673 183.788 320.84 184.534 320.84C185.161 320.84 185.741 320.713 186.274 320.46C186.808 320.207 187.254 319.82 187.614 319.3L188.674 320.02C188.261 320.7 187.694 321.22 186.974 321.58C186.254 321.927 185.448 322.1 184.554 322.1ZM191.624 322V311.5H201.064V322H199.644V312.36L200.004 312.74H192.684L193.044 312.36V322H191.624ZM209.62 322.1C208.607 322.1 207.694 321.873 206.88 321.42C206.08 320.953 205.447 320.32 204.98 319.52C204.514 318.707 204.28 317.78 204.28 316.74C204.28 315.687 204.514 314.76 204.98 313.96C205.447 313.16 206.08 312.533 206.88 312.08C207.68 311.627 208.594 311.4 209.62 311.4C210.66 311.4 211.58 311.627 212.38 312.08C213.194 312.533 213.827 313.16 214.28 313.96C214.747 314.76 214.98 315.687 214.98 316.74C214.98 317.78 214.747 318.707 214.28 319.52C213.827 320.32 213.194 320.953 212.38 321.42C211.567 321.873 210.647 322.1 209.62 322.1ZM209.62 320.84C210.38 320.84 211.054 320.673 211.64 320.34C212.227 319.993 212.687 319.513 213.02 318.9C213.367 318.273 213.54 317.553 213.54 316.74C213.54 315.913 213.367 315.193 213.02 314.58C212.687 313.967 212.227 313.493 211.64 313.16C211.054 312.813 210.387 312.64 209.64 312.64C208.894 312.64 208.227 312.813 207.64 313.16C207.054 313.493 206.587 313.967 206.24 314.58C205.894 315.193 205.72 315.913 205.72 316.74C205.72 317.553 205.894 318.273 206.24 318.9C206.587 319.513 207.054 319.993 207.64 320.34C208.227 320.673 208.887 320.84 209.62 320.84ZM223.635 322.1C222.729 322.1 221.909 321.893 221.175 321.48C220.442 321.053 219.855 320.447 219.415 319.66C218.989 318.86 218.775 317.887 218.775 316.74C218.775 315.593 218.989 314.627 219.415 313.84C219.842 313.04 220.422 312.433 221.155 312.02C221.889 311.607 222.715 311.4 223.635 311.4C224.635 311.4 225.529 311.627 226.315 312.08C227.115 312.52 227.742 313.147 228.195 313.96C228.649 314.76 228.875 315.687 228.875 316.74C228.875 317.807 228.649 318.74 228.195 319.54C227.742 320.34 227.115 320.967 226.315 321.42C225.529 321.873 224.635 322.1 223.635 322.1ZM218.215 325.88V311.5H219.575V314.66L219.435 316.76L219.635 318.88V325.88H218.215ZM223.535 320.84C224.282 320.84 224.949 320.673 225.535 320.34C226.122 319.993 226.589 319.513 226.935 318.9C227.282 318.273 227.455 317.553 227.455 316.74C227.455 315.927 227.282 315.213 226.935 314.6C226.589 313.987 226.122 313.507 225.535 313.16C224.949 312.813 224.282 312.64 223.535 312.64C222.789 312.64 222.115 312.813 221.515 313.16C220.929 313.507 220.462 313.987 220.115 314.6C219.782 315.213 219.615 315.927 219.615 316.74C219.615 317.553 219.782 318.273 220.115 318.9C220.462 319.513 220.929 319.993 221.515 320.34C222.115 320.673 222.789 320.84 223.535 320.84ZM233.736 322V312.36L234.096 312.74H229.756V311.5H239.136V312.74H234.796L235.156 312.36V322H233.736ZM245.3 322.1C244.26 322.1 243.327 321.873 242.5 321.42C241.687 320.953 241.047 320.32 240.58 319.52C240.114 318.707 239.88 317.78 239.88 316.74C239.88 315.687 240.114 314.76 240.58 313.96C241.047 313.16 241.687 312.533 242.5 312.08C243.327 311.627 244.26 311.4 245.3 311.4C246.194 311.4 247 311.573 247.72 311.92C248.44 312.267 249.007 312.787 249.42 313.48L248.36 314.2C248 313.667 247.554 313.273 247.02 313.02C246.487 312.767 245.907 312.64 245.28 312.64C244.534 312.64 243.86 312.813 243.26 313.16C242.66 313.493 242.187 313.967 241.84 314.58C241.494 315.193 241.32 315.913 241.32 316.74C241.32 317.567 241.494 318.287 241.84 318.9C242.187 319.513 242.66 319.993 243.26 320.34C243.86 320.673 244.534 320.84 245.28 320.84C245.907 320.84 246.487 320.713 247.02 320.46C247.554 320.207 248 319.82 248.36 319.3L249.42 320.02C249.007 320.7 248.44 321.22 247.72 321.58C247 321.927 246.194 322.1 245.3 322.1ZM252.37 322V311.5H253.81L258.57 319.56H257.97L262.81 311.5H264.13V322H262.83V313.12L263.09 313.24L258.57 320.72H257.93L253.37 313.16L253.67 313.1V322H252.37ZM272.871 322.1C271.777 322.1 270.817 321.873 269.991 321.42C269.164 320.953 268.517 320.32 268.051 319.52C267.584 318.707 267.351 317.78 267.351 316.74C267.351 315.7 267.571 314.78 268.011 313.98C268.464 313.18 269.077 312.553 269.851 312.1C270.637 311.633 271.517 311.4 272.491 311.4C273.477 311.4 274.351 311.627 275.111 312.08C275.884 312.52 276.491 313.147 276.931 313.96C277.371 314.76 277.591 315.687 277.591 316.74C277.591 316.807 277.584 316.88 277.571 316.96C277.571 317.027 277.571 317.1 277.571 317.18H268.431V316.12H276.811L276.251 316.54C276.251 315.78 276.084 315.107 275.751 314.52C275.431 313.92 274.991 313.453 274.431 313.12C273.871 312.787 273.224 312.62 272.491 312.62C271.771 312.62 271.124 312.787 270.551 313.12C269.977 313.453 269.531 313.92 269.211 314.52C268.891 315.12 268.731 315.807 268.731 316.58V316.8C268.731 317.6 268.904 318.307 269.251 318.92C269.611 319.52 270.104 319.993 270.731 320.34C271.371 320.673 272.097 320.84 272.911 320.84C273.551 320.84 274.144 320.727 274.691 320.5C275.251 320.273 275.731 319.927 276.131 319.46L276.931 320.38C276.464 320.94 275.877 321.367 275.171 321.66C274.477 321.953 273.711 322.1 272.871 322.1ZM280.934 322V311.5H282.354V316.14H288.974V311.5H290.394V322H288.974V317.36H282.354V322H280.934ZM298.95 322.1C297.937 322.1 297.024 321.873 296.21 321.42C295.41 320.953 294.777 320.32 294.31 319.52C293.844 318.707 293.61 317.78 293.61 316.74C293.61 315.687 293.844 314.76 294.31 313.96C294.777 313.16 295.41 312.533 296.21 312.08C297.01 311.627 297.924 311.4 298.95 311.4C299.99 311.4 300.91 311.627 301.71 312.08C302.524 312.533 303.157 313.16 303.61 313.96C304.077 314.76 304.31 315.687 304.31 316.74C304.31 317.78 304.077 318.707 303.61 319.52C303.157 320.32 302.524 320.953 301.71 321.42C300.897 321.873 299.977 322.1 298.95 322.1ZM298.95 320.84C299.71 320.84 300.384 320.673 300.97 320.34C301.557 319.993 302.017 319.513 302.35 318.9C302.697 318.273 302.87 317.553 302.87 316.74C302.87 315.913 302.697 315.193 302.35 314.58C302.017 313.967 301.557 313.493 300.97 313.16C300.384 312.813 299.717 312.64 298.97 312.64C298.224 312.64 297.557 312.813 296.97 313.16C296.384 313.493 295.917 313.967 295.57 314.58C295.224 315.193 295.05 315.913 295.05 316.74C295.05 317.553 295.224 318.273 295.57 318.9C295.917 319.513 296.384 319.993 296.97 320.34C297.557 320.673 298.217 320.84 298.95 320.84ZM307.545 322V311.5H312.185C313.372 311.5 314.305 311.727 314.985 312.18C315.678 312.633 316.025 313.3 316.025 314.18C316.025 315.033 315.698 315.693 315.045 316.16C314.392 316.613 313.532 316.84 312.465 316.84L312.745 316.42C313.998 316.42 314.918 316.653 315.505 317.12C316.092 317.587 316.385 318.26 316.385 319.14C316.385 320.047 316.052 320.753 315.385 321.26C314.732 321.753 313.712 322 312.325 322H307.545ZM308.925 320.88H312.265C313.158 320.88 313.832 320.74 314.285 320.46C314.752 320.167 314.985 319.7 314.985 319.06C314.985 318.42 314.778 317.953 314.365 317.66C313.952 317.367 313.298 317.22 312.405 317.22H308.925V320.88ZM308.925 316.16H312.085C312.898 316.16 313.518 316.007 313.945 315.7C314.385 315.393 314.605 314.947 314.605 314.36C314.605 313.773 314.385 313.333 313.945 313.04C313.518 312.747 312.898 312.6 312.085 312.6H308.925V316.16ZM111.778 382V368H113.918L120.038 378.22H118.918L124.938 368H127.078L127.098 382H124.638L124.618 371.86H125.138L120.018 380.4H118.858L113.658 371.86H114.258V382H111.778ZM135.64 382.14C134.547 382.14 133.573 381.907 132.72 381.44C131.867 380.96 131.193 380.307 130.7 379.48C130.207 378.653 129.96 377.713 129.96 376.66C129.96 375.593 130.207 374.653 130.7 373.84C131.193 373.013 131.867 372.367 132.72 371.9C133.573 371.433 134.547 371.2 135.64 371.2C136.747 371.2 137.727 371.433 138.58 371.9C139.447 372.367 140.12 373.007 140.6 373.82C141.093 374.633 141.34 375.58 141.34 376.66C141.34 377.713 141.093 378.653 140.6 379.48C140.12 380.307 139.447 380.96 138.58 381.44C137.727 381.907 136.747 382.14 135.64 382.14ZM135.64 380C136.253 380 136.8 379.867 137.28 379.6C137.76 379.333 138.133 378.947 138.4 378.44C138.68 377.933 138.82 377.34 138.82 376.66C138.82 375.967 138.68 375.373 138.4 374.88C138.133 374.373 137.76 373.987 137.28 373.72C136.8 373.453 136.26 373.32 135.66 373.32C135.047 373.32 134.5 373.453 134.02 373.72C133.553 373.987 133.18 374.373 132.9 374.88C132.62 375.373 132.48 375.967 132.48 376.66C132.48 377.34 132.62 377.933 132.9 378.44C133.18 378.947 133.553 379.333 134.02 379.6C134.5 379.867 135.04 380 135.64 380ZM149.851 382.14C148.944 382.14 148.137 381.94 147.431 381.54C146.724 381.14 146.164 380.54 145.751 379.74C145.351 378.927 145.151 377.9 145.151 376.66C145.151 375.407 145.357 374.38 145.771 373.58C146.197 372.78 146.764 372.187 147.471 371.8C148.191 371.4 148.984 371.2 149.851 371.2C150.904 371.2 151.831 371.427 152.631 371.88C153.444 372.333 154.084 372.967 154.551 373.78C155.031 374.593 155.271 375.553 155.271 376.66C155.271 377.767 155.031 378.727 154.551 379.54C154.084 380.353 153.444 380.993 152.631 381.46C151.831 381.913 150.904 382.14 149.851 382.14ZM143.931 382V367.16H146.431V373.8L146.231 376.64L146.311 379.48V382H143.931ZM149.571 380C150.171 380 150.704 379.867 151.171 379.6C151.651 379.333 152.031 378.947 152.311 378.44C152.591 377.933 152.731 377.34 152.731 376.66C152.731 375.967 152.591 375.373 152.311 374.88C152.031 374.373 151.651 373.987 151.171 373.72C150.704 373.453 150.171 373.32 149.571 373.32C148.971 373.32 148.431 373.453 147.951 373.72C147.471 373.987 147.091 374.373 146.811 374.88C146.531 375.373 146.391 375.967 146.391 376.66C146.391 377.34 146.531 377.933 146.811 378.44C147.091 378.947 147.471 379.333 147.951 379.6C148.431 379.867 148.971 380 149.571 380ZM157.842 382V371.32H160.342V382H157.842ZM159.102 369.56C158.635 369.56 158.248 369.413 157.942 369.12C157.648 368.827 157.502 368.473 157.502 368.06C157.502 367.633 157.648 367.28 157.942 367C158.248 366.707 158.635 366.56 159.102 366.56C159.568 366.56 159.948 366.7 160.242 366.98C160.548 367.247 160.702 367.587 160.702 368C160.702 368.44 160.555 368.813 160.262 369.12C159.968 369.413 159.582 369.56 159.102 369.56ZM163.823 382V367.16H166.323V382H163.823ZM174.824 382.14C173.637 382.14 172.597 381.907 171.704 381.44C170.824 380.96 170.137 380.307 169.644 379.48C169.164 378.653 168.924 377.713 168.924 376.66C168.924 375.593 169.157 374.653 169.624 373.84C170.104 373.013 170.757 372.367 171.584 371.9C172.424 371.433 173.377 371.2 174.444 371.2C175.484 371.2 176.411 371.427 177.224 371.88C178.037 372.333 178.677 372.973 179.144 373.8C179.611 374.627 179.844 375.6 179.844 376.72C179.844 376.827 179.837 376.947 179.824 377.08C179.824 377.213 179.817 377.34 179.804 377.46H170.904V375.8H178.484L177.504 376.32C177.517 375.707 177.391 375.167 177.124 374.7C176.857 374.233 176.491 373.867 176.024 373.6C175.571 373.333 175.044 373.2 174.444 373.2C173.831 373.2 173.291 373.333 172.824 373.6C172.371 373.867 172.011 374.24 171.744 374.72C171.491 375.187 171.364 375.74 171.364 376.38V376.78C171.364 377.42 171.511 377.987 171.804 378.48C172.097 378.973 172.511 379.353 173.044 379.62C173.577 379.887 174.191 380.02 174.884 380.02C175.484 380.02 176.024 379.927 176.504 379.74C176.984 379.553 177.411 379.26 177.784 378.86L179.124 380.4C178.644 380.96 178.037 381.393 177.304 381.7C176.584 381.993 175.757 382.14 174.824 382.14ZM186.433 382L192.733 368H195.293L201.613 382H198.893L193.473 369.38H194.513L189.113 382H186.433ZM189.333 378.76L190.033 376.72H197.593L198.293 378.76H189.333ZM203.593 382V368H209.353C210.593 368 211.653 368.2 212.533 368.6C213.427 369 214.113 369.573 214.593 370.32C215.073 371.067 215.313 371.953 215.313 372.98C215.313 374.007 215.073 374.893 214.593 375.64C214.113 376.387 213.427 376.96 212.533 377.36C211.653 377.76 210.593 377.96 209.353 377.96H205.033L206.193 376.74V382H203.593ZM206.193 377.02L205.033 375.76H209.233C210.38 375.76 211.24 375.52 211.813 375.04C212.4 374.547 212.693 373.86 212.693 372.98C212.693 372.087 212.4 371.4 211.813 370.92C211.24 370.44 210.38 370.2 209.233 370.2H205.033L206.193 368.92V377.02ZM218.11 382V368H223.87C225.11 368 226.17 368.2 227.05 368.6C227.943 369 228.63 369.573 229.11 370.32C229.59 371.067 229.83 371.953 229.83 372.98C229.83 374.007 229.59 374.893 229.11 375.64C228.63 376.387 227.943 376.96 227.05 377.36C226.17 377.76 225.11 377.96 223.87 377.96H219.55L220.71 376.74V382H218.11ZM220.71 377.02L219.55 375.76H223.75C224.896 375.76 225.756 375.52 226.33 375.04C226.916 374.547 227.21 373.86 227.21 372.98C227.21 372.087 226.916 371.4 226.33 370.92C225.756 370.44 224.896 370.2 223.75 370.2H219.55L220.71 368.92V377.02ZM232.117 373.22L233.277 368.78L233.617 370.28C233.15 370.28 232.757 370.133 232.437 369.84C232.13 369.547 231.977 369.153 231.977 368.66C231.977 368.167 232.13 367.773 232.437 367.48C232.757 367.173 233.143 367.02 233.597 367.02C234.063 367.02 234.45 367.173 234.757 367.48C235.063 367.787 235.217 368.18 235.217 368.66C235.217 368.807 235.203 368.96 235.177 369.12C235.163 369.267 235.123 369.44 235.057 369.64C235.003 369.827 234.91 370.073 234.777 370.38L233.737 373.22H232.117ZM240.827 382.14C239.934 382.14 239.074 382.027 238.247 381.8C237.434 381.56 236.787 381.273 236.307 380.94L237.267 379.04C237.747 379.347 238.321 379.6 238.987 379.8C239.654 380 240.321 380.1 240.987 380.1C241.774 380.1 242.341 379.993 242.687 379.78C243.047 379.567 243.227 379.28 243.227 378.92C243.227 378.627 243.107 378.407 242.867 378.26C242.627 378.1 242.314 377.98 241.927 377.9C241.541 377.82 241.107 377.747 240.627 377.68C240.161 377.613 239.687 377.527 239.207 377.42C238.741 377.3 238.314 377.133 237.927 376.92C237.541 376.693 237.227 376.393 236.987 376.02C236.747 375.647 236.627 375.153 236.627 374.54C236.627 373.86 236.821 373.273 237.207 372.78C237.594 372.273 238.134 371.887 238.827 371.62C239.534 371.34 240.367 371.2 241.327 371.2C242.047 371.2 242.774 371.28 243.507 371.44C244.241 371.6 244.847 371.827 245.327 372.12L244.367 374.02C243.861 373.713 243.347 373.507 242.827 373.4C242.321 373.28 241.814 373.22 241.307 373.22C240.547 373.22 239.981 373.333 239.607 373.56C239.247 373.787 239.067 374.073 239.067 374.42C239.067 374.74 239.187 374.98 239.427 375.14C239.667 375.3 239.981 375.427 240.367 375.52C240.754 375.613 241.181 375.693 241.647 375.76C242.127 375.813 242.601 375.9 243.067 376.02C243.534 376.14 243.961 376.307 244.347 376.52C244.747 376.72 245.067 377.007 245.307 377.38C245.547 377.753 245.667 378.24 245.667 378.84C245.667 379.507 245.467 380.087 245.067 380.58C244.681 381.073 244.127 381.46 243.407 381.74C242.687 382.007 241.827 382.14 240.827 382.14ZM261.035 381.32V372.74H255.975L255.855 375.08C255.828 375.787 255.782 376.48 255.715 377.16C255.662 377.84 255.562 378.467 255.415 379.04C255.282 379.6 255.088 380.06 254.835 380.42C254.582 380.767 254.255 380.967 253.855 381.02L252.435 380.76C252.848 380.773 253.188 380.627 253.455 380.32C253.722 380 253.928 379.567 254.075 379.02C254.222 378.473 254.328 377.853 254.395 377.16C254.462 376.453 254.515 375.733 254.555 375L254.695 371.5H262.455V381.32H261.035ZM251.995 384.54V380.76H264.095V384.54H262.755V382H253.335V384.54H251.995ZM265.142 381.98L265.242 380.76C265.336 380.773 265.422 380.793 265.502 380.82C265.596 380.833 265.676 380.84 265.742 380.84C266.169 380.84 266.509 380.68 266.762 380.36C267.029 380.04 267.229 379.613 267.362 379.08C267.496 378.547 267.589 377.947 267.642 377.28C267.696 376.6 267.742 375.92 267.782 375.24L267.962 371.5H275.662V382H274.242V372.32L274.602 372.74H268.882L269.222 372.3L269.062 375.34C269.022 376.247 268.949 377.113 268.842 377.94C268.749 378.767 268.596 379.493 268.382 380.12C268.182 380.747 267.902 381.24 267.542 381.6C267.182 381.947 266.722 382.12 266.162 382.12C266.002 382.12 265.836 382.107 265.662 382.08C265.502 382.053 265.329 382.02 265.142 381.98ZM286.679 382V378.22L286.939 378.52H283.379C282.032 378.52 280.979 378.227 280.219 377.64C279.459 377.053 279.079 376.2 279.079 375.08C279.079 373.88 279.486 372.987 280.299 372.4C281.112 371.8 282.199 371.5 283.559 371.5H287.979V382H286.679ZM278.999 382L281.879 377.96H283.359L280.539 382H278.999ZM286.679 377.8V372.32L286.939 372.74H283.599C282.626 372.74 281.866 372.927 281.319 373.3C280.786 373.673 280.519 374.28 280.519 375.12C280.519 376.68 281.512 377.46 283.499 377.46H286.939L286.679 377.8ZM297.662 382V371.5H302.302C303.489 371.5 304.422 371.727 305.102 372.18C305.796 372.633 306.142 373.3 306.142 374.18C306.142 375.033 305.816 375.693 305.162 376.16C304.509 376.613 303.649 376.84 302.582 376.84L302.862 376.42C304.116 376.42 305.036 376.653 305.622 377.12C306.209 377.587 306.502 378.26 306.502 379.14C306.502 380.047 306.169 380.753 305.502 381.26C304.849 381.753 303.829 382 302.442 382H297.662ZM299.042 380.88H302.382C303.276 380.88 303.949 380.74 304.402 380.46C304.869 380.167 305.102 379.7 305.102 379.06C305.102 378.42 304.896 377.953 304.482 377.66C304.069 377.367 303.416 377.22 302.522 377.22H299.042V380.88ZM299.042 376.16H302.202C303.016 376.16 303.636 376.007 304.062 375.7C304.502 375.393 304.722 374.947 304.722 374.36C304.722 373.773 304.502 373.333 304.062 373.04C303.636 372.747 303.016 372.6 302.202 372.6H299.042V376.16ZM314.43 382.1C313.39 382.1 312.457 381.873 311.63 381.42C310.817 380.953 310.177 380.32 309.71 379.52C309.243 378.707 309.01 377.78 309.01 376.74C309.01 375.687 309.243 374.76 309.71 373.96C310.177 373.16 310.817 372.533 311.63 372.08C312.457 371.627 313.39 371.4 314.43 371.4C315.323 371.4 316.13 371.573 316.85 371.92C317.57 372.267 318.137 372.787 318.55 373.48L317.49 374.2C317.13 373.667 316.683 373.273 316.15 373.02C315.617 372.767 315.037 372.64 314.41 372.64C313.663 372.64 312.99 372.813 312.39 373.16C311.79 373.493 311.317 373.967 310.97 374.58C310.623 375.193 310.45 375.913 310.45 376.74C310.45 377.567 310.623 378.287 310.97 378.9C311.317 379.513 311.79 379.993 312.39 380.34C312.99 380.673 313.663 380.84 314.41 380.84C315.037 380.84 315.617 380.713 316.15 380.46C316.683 380.207 317.13 379.82 317.49 379.3L318.55 380.02C318.137 380.7 317.57 381.22 316.85 381.58C316.13 381.927 315.323 382.1 314.43 382.1ZM325.824 382.1C324.731 382.1 323.771 381.873 322.944 381.42C322.117 380.953 321.471 380.32 321.004 379.52C320.537 378.707 320.304 377.78 320.304 376.74C320.304 375.7 320.524 374.78 320.964 373.98C321.417 373.18 322.031 372.553 322.804 372.1C323.591 371.633 324.471 371.4 325.444 371.4C326.431 371.4 327.304 371.627 328.064 372.08C328.837 372.52 329.444 373.147 329.884 373.96C330.324 374.76 330.544 375.687 330.544 376.74C330.544 376.807 330.537 376.88 330.524 376.96C330.524 377.027 330.524 377.1 330.524 377.18H321.384V376.12H329.764L329.204 376.54C329.204 375.78 329.037 375.107 328.704 374.52C328.384 373.92 327.944 373.453 327.384 373.12C326.824 372.787 326.177 372.62 325.444 372.62C324.724 372.62 324.077 372.787 323.504 373.12C322.931 373.453 322.484 373.92 322.164 374.52C321.844 375.12 321.684 375.807 321.684 376.58V376.8C321.684 377.6 321.857 378.307 322.204 378.92C322.564 379.52 323.057 379.993 323.684 380.34C324.324 380.673 325.051 380.84 325.864 380.84C326.504 380.84 327.097 380.727 327.644 380.5C328.204 380.273 328.684 379.927 329.084 379.46L329.884 380.38C329.417 380.94 328.831 381.367 328.124 381.66C327.431 381.953 326.664 382.1 325.824 382.1ZM331.874 382L336.314 376.24L336.294 376.94L332.074 371.5H333.674L337.134 376L336.534 375.98L339.994 371.5H341.554L337.294 377L337.314 376.24L341.794 382H340.174L336.514 377.2L337.074 377.28L333.474 382H331.874Z" fill="white"/>
</g>
<defs>
<clipPath id="clip0_2010_46">
<rect width="452" height="588" fill="white"/>
</clipPath>
</defs>
</svg>
