<svg width="452" height="588" viewBox="0 0 452 588" fill="none" xmlns="http://www.w3.org/2000/svg">
<g clip-path="url(#clip0_2010_83)">
<rect x="46" y="17" width="343" height="165" rx="20" fill="#0967AD"/>
<rect x="41" y="248" width="354" height="185" rx="20" fill="#0967AD"/>
<path d="M90 182H93V248H90V182Z" fill="#0967AD"/>
<path d="M87 429H90V508H87V429Z" fill="#0967AD"/>
<rect x="343" y="182" width="3" height="66" fill="#0967AD"/>
<rect x="340" y="429" width="3" height="79" fill="#0967AD"/>
<rect y="508" width="1373" height="4" fill="white"/>
<circle cx="88.5" cy="511.5" r="11.5" fill="white"/>
<circle cx="341.5" cy="511.5" r="11.5" fill="white"/>
<path d="M27.1528 571V566.476L41.6088 552.748C42.8221 551.604 43.7235 550.599 44.3128 549.732C44.9021 548.865 45.2835 548.068 45.4568 547.34C45.6648 546.577 45.7688 545.867 45.7688 545.208C45.7688 543.544 45.1968 542.261 44.0528 541.36C42.9088 540.424 41.2275 539.956 39.0088 539.956C37.2408 539.956 35.6288 540.268 34.1728 540.892C32.7515 541.516 31.5208 542.469 30.4808 543.752L25.7488 540.112C27.1701 538.205 29.0768 536.732 31.4688 535.692C33.8955 534.617 36.5995 534.08 39.5808 534.08C42.2155 534.08 44.5035 534.513 46.4448 535.38C48.4208 536.212 49.9288 537.408 50.9688 538.968C52.0435 540.528 52.5808 542.383 52.5808 544.532C52.5808 545.711 52.4248 546.889 52.1128 548.068C51.8008 549.212 51.2115 550.425 50.3448 551.708C49.4781 552.991 48.2128 554.429 46.5488 556.024L34.1208 567.828L32.7168 565.28H53.9848V571H27.1528ZM73.2704 571.52C70.3931 571.52 67.7931 570.792 65.4704 569.336C63.1824 567.88 61.3798 565.765 60.0624 562.992C58.7451 560.184 58.0864 556.787 58.0864 552.8C58.0864 548.813 58.7451 545.433 60.0624 542.66C61.3798 539.852 63.1824 537.72 65.4704 536.264C67.7931 534.808 70.3931 534.08 73.2704 534.08C76.1824 534.08 78.7824 534.808 81.0704 536.264C83.3584 537.72 85.1611 539.852 86.4784 542.66C87.8304 545.433 88.5064 548.813 88.5064 552.8C88.5064 556.787 87.8304 560.184 86.4784 562.992C85.1611 565.765 83.3584 567.88 81.0704 569.336C78.7824 570.792 76.1824 571.52 73.2704 571.52ZM73.2704 565.644C74.9691 565.644 76.4424 565.193 77.6904 564.292C78.9384 563.356 79.9091 561.935 80.6024 560.028C81.3304 558.121 81.6944 555.712 81.6944 552.8C81.6944 549.853 81.3304 547.444 80.6024 545.572C79.9091 543.665 78.9384 542.261 77.6904 541.36C76.4424 540.424 74.9691 539.956 73.2704 539.956C71.6411 539.956 70.1851 540.424 68.9024 541.36C67.6544 542.261 66.6664 543.665 65.9384 545.572C65.2451 547.444 64.8984 549.853 64.8984 552.8C64.8984 555.712 65.2451 558.121 65.9384 560.028C66.6664 561.935 67.6544 563.356 68.9024 564.292C70.1851 565.193 71.6411 565.644 73.2704 565.644ZM92.7559 571V566.476L107.212 552.748C108.425 551.604 109.327 550.599 109.916 549.732C110.505 548.865 110.887 548.068 111.06 547.34C111.268 546.577 111.372 545.867 111.372 545.208C111.372 543.544 110.8 542.261 109.656 541.36C108.512 540.424 106.831 539.956 104.612 539.956C102.844 539.956 101.232 540.268 99.7759 540.892C98.3546 541.516 97.1239 542.469 96.0839 543.752L91.3519 540.112C92.7733 538.205 94.6799 536.732 97.0719 535.692C99.4986 534.617 102.203 534.08 105.184 534.08C107.819 534.08 110.107 534.513 112.048 535.38C114.024 536.212 115.532 537.408 116.572 538.968C117.647 540.528 118.184 542.383 118.184 544.532C118.184 545.711 118.028 546.889 117.716 548.068C117.404 549.212 116.815 550.425 115.948 551.708C115.081 552.991 113.816 554.429 112.152 556.024L99.7239 567.828L98.3199 565.28H119.588V571H92.7559ZM135.13 571.52C132.564 571.52 130.051 571.156 127.59 570.428C125.163 569.665 123.118 568.625 121.454 567.308L124.366 562.056C125.683 563.131 127.278 563.997 129.15 564.656C131.022 565.315 132.98 565.644 135.026 565.644C137.452 565.644 139.342 565.159 140.694 564.188C142.046 563.183 142.722 561.831 142.722 560.132C142.722 558.468 142.098 557.151 140.85 556.18C139.602 555.209 137.591 554.724 134.818 554.724H131.49V550.096L141.89 537.72L142.774 540.268H123.222V534.6H148.026V539.124L137.626 551.5L134.09 549.42H136.118C140.59 549.42 143.935 550.425 146.154 552.436C148.407 554.412 149.534 556.96 149.534 560.08C149.534 562.125 149.014 564.015 147.974 565.748C146.934 567.481 145.339 568.885 143.19 569.96C141.075 571 138.388 571.52 135.13 571.52Z" fill="#0967AD"/>
<path d="M278.02 571V566.476L292.476 552.748C293.689 551.604 294.591 550.599 295.18 549.732C295.769 548.865 296.151 548.068 296.324 547.34C296.532 546.577 296.636 545.867 296.636 545.208C296.636 543.544 296.064 542.261 294.92 541.36C293.776 540.424 292.095 539.956 289.876 539.956C288.108 539.956 286.496 540.268 285.04 540.892C283.619 541.516 282.388 542.469 281.348 543.752L276.616 540.112C278.037 538.205 279.944 536.732 282.336 535.692C284.763 534.617 287.467 534.08 290.448 534.08C293.083 534.08 295.371 534.513 297.312 535.38C299.288 536.212 300.796 537.408 301.836 538.968C302.911 540.528 303.448 542.383 303.448 544.532C303.448 545.711 303.292 546.889 302.98 548.068C302.668 549.212 302.079 550.425 301.212 551.708C300.345 552.991 299.08 554.429 297.416 556.024L284.988 567.828L283.584 565.28H304.852V571H278.02ZM324.138 571.52C321.26 571.52 318.66 570.792 316.338 569.336C314.05 567.88 312.247 565.765 310.93 562.992C309.612 560.184 308.954 556.787 308.954 552.8C308.954 548.813 309.612 545.433 310.93 542.66C312.247 539.852 314.05 537.72 316.338 536.264C318.66 534.808 321.26 534.08 324.138 534.08C327.05 534.08 329.65 534.808 331.938 536.264C334.226 537.72 336.028 539.852 337.346 542.66C338.698 545.433 339.374 548.813 339.374 552.8C339.374 556.787 338.698 560.184 337.346 562.992C336.028 565.765 334.226 567.88 331.938 569.336C329.65 570.792 327.05 571.52 324.138 571.52ZM324.138 565.644C325.836 565.644 327.31 565.193 328.558 564.292C329.806 563.356 330.776 561.935 331.47 560.028C332.198 558.121 332.562 555.712 332.562 552.8C332.562 549.853 332.198 547.444 331.47 545.572C330.776 543.665 329.806 542.261 328.558 541.36C327.31 540.424 325.836 539.956 324.138 539.956C322.508 539.956 321.052 540.424 319.77 541.36C318.522 542.261 317.534 543.665 316.806 545.572C316.112 547.444 315.766 549.853 315.766 552.8C315.766 555.712 316.112 558.121 316.806 560.028C317.534 561.935 318.522 563.356 319.77 564.292C321.052 565.193 322.508 565.644 324.138 565.644ZM343.623 571V566.476L358.079 552.748C359.292 551.604 360.194 550.599 360.783 549.732C361.372 548.865 361.754 548.068 361.927 547.34C362.135 546.577 362.239 545.867 362.239 545.208C362.239 543.544 361.667 542.261 360.523 541.36C359.379 540.424 357.698 539.956 355.479 539.956C353.711 539.956 352.099 540.268 350.643 540.892C349.222 541.516 347.991 542.469 346.951 543.752L342.219 540.112C343.64 538.205 345.547 536.732 347.939 535.692C350.366 534.617 353.07 534.08 356.051 534.08C358.686 534.08 360.974 534.513 362.915 535.38C364.891 536.212 366.399 537.408 367.439 538.968C368.514 540.528 369.051 542.383 369.051 544.532C369.051 545.711 368.895 546.889 368.583 548.068C368.271 549.212 367.682 550.425 366.815 551.708C365.948 552.991 364.683 554.429 363.019 556.024L350.591 567.828L349.187 565.28H370.455V571H343.623ZM373.275 562.732V558.052L391.215 534.6H398.443L380.763 558.052L377.383 557.012H406.243V562.732H373.275ZM393.243 571V562.732L393.451 557.012V549.68H399.795V571H393.243Z" fill="#0967AD"/>
<path d="M76.9651 70V56H88.7451V70H87.2851V56.88L87.6651 57.28H78.0451L78.4251 56.88V70H76.9651ZM97.829 70.1C96.7356 70.1 95.7756 69.8733 94.949 69.42C94.1223 68.9533 93.4756 68.32 93.009 67.52C92.5423 66.7067 92.309 65.78 92.309 64.74C92.309 63.7 92.529 62.78 92.969 61.98C93.4223 61.18 94.0356 60.5533 94.809 60.1C95.5956 59.6333 96.4756 59.4 97.449 59.4C98.4356 59.4 99.309 59.6267 100.069 60.08C100.842 60.52 101.449 61.1467 101.889 61.96C102.329 62.76 102.549 63.6867 102.549 64.74C102.549 64.8067 102.542 64.88 102.529 64.96C102.529 65.0267 102.529 65.1 102.529 65.18H93.389V64.12H101.769L101.209 64.54C101.209 63.78 101.042 63.1067 100.709 62.52C100.389 61.92 99.949 61.4533 99.389 61.12C98.829 60.7867 98.1823 60.62 97.449 60.62C96.729 60.62 96.0823 60.7867 95.509 61.12C94.9356 61.4533 94.489 61.92 94.169 62.52C93.849 63.12 93.689 63.8067 93.689 64.58V64.8C93.689 65.6 93.8623 66.3067 94.209 66.92C94.569 67.52 95.0623 67.9933 95.689 68.34C96.329 68.6733 97.0556 68.84 97.869 68.84C98.509 68.84 99.1023 68.7267 99.649 68.5C100.209 68.2733 100.689 67.9267 101.089 67.46L101.889 68.38C101.422 68.94 100.836 69.3667 100.129 69.66C99.4356 69.9533 98.669 70.1 97.829 70.1ZM111.312 70.1C110.406 70.1 109.586 69.8933 108.852 69.48C108.119 69.0533 107.532 68.4467 107.092 67.66C106.666 66.86 106.452 65.8867 106.452 64.74C106.452 63.5933 106.666 62.6267 107.092 61.84C107.519 61.04 108.099 60.4333 108.832 60.02C109.566 59.6067 110.392 59.4 111.312 59.4C112.312 59.4 113.206 59.6267 113.992 60.08C114.792 60.52 115.419 61.1467 115.872 61.96C116.326 62.76 116.552 63.6867 116.552 64.74C116.552 65.8067 116.326 66.74 115.872 67.54C115.419 68.34 114.792 68.9667 113.992 69.42C113.206 69.8733 112.312 70.1 111.312 70.1ZM105.892 73.88V59.5H107.252V62.66L107.112 64.76L107.312 66.88V73.88H105.892ZM111.212 68.84C111.959 68.84 112.626 68.6733 113.212 68.34C113.799 67.9933 114.266 67.5133 114.612 66.9C114.959 66.2733 115.132 65.5533 115.132 64.74C115.132 63.9267 114.959 63.2133 114.612 62.6C114.266 61.9867 113.799 61.5067 113.212 61.16C112.626 60.8133 111.959 60.64 111.212 60.64C110.466 60.64 109.792 60.8133 109.192 61.16C108.606 61.5067 108.139 61.9867 107.792 62.6C107.459 63.2133 107.292 63.9267 107.292 64.74C107.292 65.5533 107.459 66.2733 107.792 66.9C108.139 67.5133 108.606 67.9933 109.192 68.34C109.792 68.6733 110.466 68.84 111.212 68.84ZM119.803 70V59.5H124.443C125.63 59.5 126.563 59.7267 127.243 60.18C127.937 60.6333 128.283 61.3 128.283 62.18C128.283 63.0333 127.957 63.6933 127.303 64.16C126.65 64.6133 125.79 64.84 124.723 64.84L125.003 64.42C126.257 64.42 127.177 64.6533 127.763 65.12C128.35 65.5867 128.643 66.26 128.643 67.14C128.643 68.0467 128.31 68.7533 127.643 69.26C126.99 69.7533 125.97 70 124.583 70H119.803ZM121.183 68.88H124.523C125.417 68.88 126.09 68.74 126.543 68.46C127.01 68.1667 127.243 67.7 127.243 67.06C127.243 66.42 127.037 65.9533 126.623 65.66C126.21 65.3667 125.557 65.22 124.663 65.22H121.183V68.88ZM121.183 64.16H124.343C125.157 64.16 125.777 64.0067 126.203 63.7C126.643 63.3933 126.863 62.9467 126.863 62.36C126.863 61.7733 126.643 61.3333 126.203 61.04C125.777 60.7467 125.157 60.6 124.343 60.6H121.183V64.16ZM142.411 70V59.5H143.831V70H142.411ZM136.591 63.2C137.911 63.2133 138.918 63.5067 139.611 64.08C140.304 64.6533 140.651 65.48 140.651 66.56C140.651 67.68 140.278 68.54 139.531 69.14C138.784 69.74 137.718 70.0333 136.331 70.02L132.171 70V59.5H133.591V63.16L136.591 63.2ZM136.231 68.94C137.218 68.9533 137.958 68.76 138.451 68.36C138.958 67.9467 139.211 67.3467 139.211 66.56C139.211 65.7733 138.964 65.2 138.471 64.84C137.978 64.4667 137.231 64.2733 136.231 64.26L133.591 64.22V68.9L136.231 68.94ZM152.574 70.1C151.481 70.1 150.521 69.8733 149.694 69.42C148.868 68.9533 148.221 68.32 147.754 67.52C147.288 66.7067 147.054 65.78 147.054 64.74C147.054 63.7 147.274 62.78 147.714 61.98C148.168 61.18 148.781 60.5533 149.554 60.1C150.341 59.6333 151.221 59.4 152.194 59.4C153.181 59.4 154.054 59.6267 154.814 60.08C155.588 60.52 156.194 61.1467 156.634 61.96C157.074 62.76 157.294 63.6867 157.294 64.74C157.294 64.8067 157.288 64.88 157.274 64.96C157.274 65.0267 157.274 65.1 157.274 65.18H148.134V64.12H156.514L155.954 64.54C155.954 63.78 155.788 63.1067 155.454 62.52C155.134 61.92 154.694 61.4533 154.134 61.12C153.574 60.7867 152.928 60.62 152.194 60.62C151.474 60.62 150.828 60.7867 150.254 61.12C149.681 61.4533 149.234 61.92 148.914 62.52C148.594 63.12 148.434 63.8067 148.434 64.58V64.8C148.434 65.6 148.608 66.3067 148.954 66.92C149.314 67.52 149.808 67.9933 150.434 68.34C151.074 68.6733 151.801 68.84 152.614 68.84C153.254 68.84 153.848 68.7267 154.394 68.5C154.954 68.2733 155.434 67.9267 155.834 67.46L156.634 68.38C156.168 68.94 155.581 69.3667 154.874 69.66C154.181 69.9533 153.414 70.1 152.574 70.1ZM165.732 70V59.32H175.972V70H173.492V60.86L174.072 61.44H167.652L168.232 60.86V70H165.732ZM177.985 69.98L178.105 67.88C178.199 67.8933 178.285 67.9067 178.365 67.92C178.445 67.9333 178.519 67.94 178.585 67.94C178.999 67.94 179.319 67.8133 179.545 67.56C179.772 67.3067 179.939 66.9667 180.045 66.54C180.165 66.1 180.245 65.6133 180.285 65.08C180.339 64.5333 180.379 63.9867 180.405 63.44L180.585 59.32H189.225V70H186.725V60.76L187.305 61.44H182.225L182.765 60.74L182.625 63.56C182.585 64.5067 182.505 65.3867 182.385 66.2C182.279 67 182.105 67.7 181.865 68.3C181.639 68.9 181.319 69.3667 180.905 69.7C180.505 70.0333 179.992 70.2 179.365 70.2C179.165 70.2 178.945 70.18 178.705 70.14C178.479 70.1 178.239 70.0467 177.985 69.98ZM199.272 70V67.84L199.132 67.38V63.6C199.132 62.8667 198.912 62.3 198.472 61.9C198.032 61.4867 197.365 61.28 196.472 61.28C195.872 61.28 195.279 61.3733 194.692 61.56C194.119 61.7467 193.632 62.0067 193.232 62.34L192.252 60.52C192.825 60.08 193.505 59.7533 194.292 59.54C195.092 59.3133 195.919 59.2 196.772 59.2C198.319 59.2 199.512 59.5733 200.352 60.32C201.205 61.0533 201.632 62.1933 201.632 63.74V70H199.272ZM195.912 70.14C195.112 70.14 194.412 70.0067 193.812 69.74C193.212 69.46 192.745 69.08 192.412 68.6C192.092 68.1067 191.932 67.5533 191.932 66.94C191.932 66.34 192.072 65.8 192.352 65.32C192.645 64.84 193.119 64.46 193.772 64.18C194.425 63.9 195.292 63.76 196.372 63.76H199.472V65.42H196.552C195.699 65.42 195.125 65.56 194.832 65.84C194.539 66.1067 194.392 66.44 194.392 66.84C194.392 67.2933 194.572 67.6533 194.932 67.92C195.292 68.1867 195.792 68.32 196.432 68.32C197.045 68.32 197.592 68.18 198.072 67.9C198.565 67.62 198.919 67.2067 199.132 66.66L199.552 68.16C199.312 68.7867 198.879 69.2733 198.252 69.62C197.639 69.9667 196.859 70.14 195.912 70.14ZM207.146 70V60.84L207.726 61.44H203.386V59.32H213.386V61.44H209.066L209.646 60.84V70H207.146ZM215.399 70V59.32H217.899V63.66H223.279V59.32H225.779V70H223.279V65.78H217.899V70H215.399ZM240.11 70V59.32H242.61V70H240.11ZM234.53 62.84C235.903 62.84 236.943 63.1467 237.65 63.76C238.37 64.3733 238.73 65.24 238.73 66.36C238.73 67.52 238.33 68.4267 237.53 69.08C236.743 69.72 235.623 70.0333 234.17 70.02L229.33 70V59.32H231.83V62.82L234.53 62.84ZM233.95 68.18C234.683 68.1933 235.243 68.04 235.63 67.72C236.016 67.4 236.21 66.9333 236.21 66.32C236.21 65.7067 236.016 65.2667 235.63 65C235.256 64.72 234.696 64.5733 233.95 64.56L231.83 64.54V68.16L233.95 68.18ZM251.15 70.14C249.964 70.14 248.924 69.9067 248.03 69.44C247.15 68.96 246.464 68.3067 245.97 67.48C245.49 66.6533 245.25 65.7133 245.25 64.66C245.25 63.5933 245.484 62.6533 245.95 61.84C246.43 61.0133 247.084 60.3667 247.91 59.9C248.75 59.4333 249.704 59.2 250.77 59.2C251.81 59.2 252.737 59.4267 253.55 59.88C254.364 60.3333 255.004 60.9733 255.47 61.8C255.937 62.6267 256.17 63.6 256.17 64.72C256.17 64.8267 256.164 64.9467 256.15 65.08C256.15 65.2133 256.144 65.34 256.13 65.46H247.23V63.8H254.81L253.83 64.32C253.844 63.7067 253.717 63.1667 253.45 62.7C253.184 62.2333 252.817 61.8667 252.35 61.6C251.897 61.3333 251.37 61.2 250.77 61.2C250.157 61.2 249.617 61.3333 249.15 61.6C248.697 61.8667 248.337 62.24 248.07 62.72C247.817 63.1867 247.69 63.74 247.69 64.38V64.78C247.69 65.42 247.837 65.9867 248.13 66.48C248.424 66.9733 248.837 67.3533 249.37 67.62C249.904 67.8867 250.517 68.02 251.21 68.02C251.81 68.02 252.35 67.9267 252.83 67.74C253.31 67.5533 253.737 67.26 254.11 66.86L255.45 68.4C254.97 68.96 254.364 69.3933 253.63 69.7C252.91 69.9933 252.084 70.14 251.15 70.14ZM272.872 70L268.552 64.8L269.732 64.1L274.552 70H272.872ZM265.172 70V59.5H266.592V70H265.172ZM266.152 65.32V64.1H269.532V65.32H266.152ZM269.852 64.9L268.532 64.7L272.712 59.5H274.252L269.852 64.9ZM275.073 69.98L275.173 68.76C275.266 68.7733 275.353 68.7933 275.433 68.82C275.526 68.8333 275.606 68.84 275.673 68.84C276.1 68.84 276.44 68.68 276.693 68.36C276.96 68.04 277.16 67.6133 277.293 67.08C277.426 66.5467 277.52 65.9467 277.573 65.28C277.626 64.6 277.673 63.92 277.713 63.24L277.893 59.5H285.593V70H284.173V60.32L284.533 60.74H278.813L279.153 60.3L278.993 63.34C278.953 64.2467 278.88 65.1133 278.773 65.94C278.68 66.7667 278.526 67.4933 278.313 68.12C278.113 68.7467 277.833 69.24 277.473 69.6C277.113 69.9467 276.653 70.12 276.093 70.12C275.933 70.12 275.766 70.1067 275.593 70.08C275.433 70.0533 275.26 70.02 275.073 69.98ZM289.83 70V59.5H291.25V67.84L298.27 59.5H299.53V70H298.11V61.64L291.11 70H289.83ZM308.299 70.1C307.206 70.1 306.246 69.8733 305.419 69.42C304.593 68.9533 303.946 68.32 303.479 67.52C303.013 66.7067 302.779 65.78 302.779 64.74C302.779 63.7 302.999 62.78 303.439 61.98C303.893 61.18 304.506 60.5533 305.279 60.1C306.066 59.6333 306.946 59.4 307.919 59.4C308.906 59.4 309.779 59.6267 310.539 60.08C311.313 60.52 311.919 61.1467 312.359 61.96C312.799 62.76 313.019 63.6867 313.019 64.74C313.019 64.8067 313.013 64.88 312.999 64.96C312.999 65.0267 312.999 65.1 312.999 65.18H303.859V64.12H312.239L311.679 64.54C311.679 63.78 311.513 63.1067 311.179 62.52C310.859 61.92 310.419 61.4533 309.859 61.12C309.299 60.7867 308.653 60.62 307.919 60.62C307.199 60.62 306.553 60.7867 305.979 61.12C305.406 61.4533 304.959 61.92 304.639 62.52C304.319 63.12 304.159 63.8067 304.159 64.58V64.8C304.159 65.6 304.333 66.3067 304.679 66.92C305.039 67.52 305.533 67.9933 306.159 68.34C306.799 68.6733 307.526 68.84 308.339 68.84C308.979 68.84 309.573 68.7267 310.119 68.5C310.679 68.2733 311.159 67.9267 311.559 67.46L312.359 68.38C311.893 68.94 311.306 69.3667 310.599 69.66C309.906 69.9533 309.139 70.1 308.299 70.1ZM316.363 70V59.5H317.783V64.14H324.403V59.5H325.823V70H324.403V65.36H317.783V70H316.363ZM332.059 70V60.36L332.419 60.74H328.079V59.5H337.459V60.74H333.119L333.479 60.36V70H332.059ZM349.952 70V59.5H351.372V70H349.952ZM344.132 63.2C345.452 63.2133 346.458 63.5067 347.152 64.08C347.845 64.6533 348.192 65.48 348.192 66.56C348.192 67.68 347.818 68.54 347.072 69.14C346.325 69.74 345.258 70.0333 343.872 70.02L339.712 70V59.5H341.132V63.16L344.132 63.2ZM343.772 68.94C344.758 68.9533 345.498 68.76 345.992 68.36C346.498 67.9467 346.752 67.3467 346.752 66.56C346.752 65.7733 346.505 65.2 346.012 64.84C345.518 64.4667 344.772 64.2733 343.772 64.26L341.132 64.22V68.9L343.772 68.94ZM147.743 100V98.26L153.303 92.98C153.77 92.54 154.116 92.1533 154.343 91.82C154.57 91.4867 154.716 91.18 154.783 90.9C154.863 90.6067 154.903 90.3333 154.903 90.08C154.903 89.44 154.683 88.9467 154.243 88.6C153.803 88.24 153.156 88.06 152.303 88.06C151.623 88.06 151.003 88.18 150.443 88.42C149.896 88.66 149.423 89.0267 149.023 89.52L147.203 88.12C147.75 87.3867 148.483 86.82 149.403 86.42C150.336 86.0067 151.376 85.8 152.523 85.8C153.536 85.8 154.416 85.9667 155.163 86.3C155.923 86.62 156.503 87.08 156.903 87.68C157.316 88.28 157.523 88.9933 157.523 89.82C157.523 90.2733 157.463 90.7267 157.343 91.18C157.223 91.62 156.996 92.0867 156.663 92.58C156.33 93.0733 155.843 93.6267 155.203 94.24L150.423 98.78L149.883 97.8H158.063V100H147.743ZM165.604 100.2C164.497 100.2 163.497 99.92 162.604 99.36C161.724 98.8 161.03 97.9867 160.524 96.92C160.017 95.84 159.764 94.5333 159.764 93C159.764 91.4667 160.017 90.1667 160.524 89.1C161.03 88.02 161.724 87.2 162.604 86.64C163.497 86.08 164.497 85.8 165.604 85.8C166.724 85.8 167.724 86.08 168.604 86.64C169.484 87.2 170.177 88.02 170.684 89.1C171.204 90.1667 171.464 91.4667 171.464 93C171.464 94.5333 171.204 95.84 170.684 96.92C170.177 97.9867 169.484 98.8 168.604 99.36C167.724 99.92 166.724 100.2 165.604 100.2ZM165.604 97.94C166.257 97.94 166.824 97.7667 167.304 97.42C167.784 97.06 168.157 96.5133 168.424 95.78C168.704 95.0467 168.844 94.12 168.844 93C168.844 91.8667 168.704 90.94 168.424 90.22C168.157 89.4867 167.784 88.9467 167.304 88.6C166.824 88.24 166.257 88.06 165.604 88.06C164.977 88.06 164.417 88.24 163.924 88.6C163.444 88.9467 163.064 89.4867 162.784 90.22C162.517 90.94 162.384 91.8667 162.384 93C162.384 94.12 162.517 95.0467 162.784 95.78C163.064 96.5133 163.444 97.06 163.924 97.42C164.417 97.7667 164.977 97.94 165.604 97.94ZM177.478 97.5V88.5H179.618V97.5H177.478ZM173.938 94V92H183.158V94H173.938ZM196.49 100.1C195.45 100.1 194.516 99.8733 193.69 99.42C192.876 98.9533 192.236 98.32 191.77 97.52C191.303 96.7067 191.07 95.78 191.07 94.74C191.07 93.6867 191.303 92.76 191.77 91.96C192.236 91.16 192.876 90.5333 193.69 90.08C194.516 89.6267 195.45 89.4 196.49 89.4C197.383 89.4 198.19 89.5733 198.91 89.92C199.63 90.2667 200.196 90.7867 200.61 91.48L199.55 92.2C199.19 91.6667 198.743 91.2733 198.21 91.02C197.676 90.7667 197.096 90.64 196.47 90.64C195.723 90.64 195.05 90.8133 194.45 91.16C193.85 91.4933 193.376 91.9667 193.03 92.58C192.683 93.1933 192.51 93.9133 192.51 94.74C192.51 95.5667 192.683 96.2867 193.03 96.9C193.376 97.5133 193.85 97.9933 194.45 98.34C195.05 98.6733 195.723 98.84 196.47 98.84C197.096 98.84 197.676 98.7133 198.21 98.46C198.743 98.2067 199.19 97.82 199.55 97.3L200.61 98.02C200.196 98.7 199.63 99.22 198.91 99.58C198.19 99.9267 197.383 100.1 196.49 100.1ZM207.703 100.1C206.69 100.1 205.777 99.8733 204.963 99.42C204.163 98.9533 203.53 98.32 203.063 97.52C202.597 96.7067 202.363 95.78 202.363 94.74C202.363 93.6867 202.597 92.76 203.063 91.96C203.53 91.16 204.163 90.5333 204.963 90.08C205.763 89.6267 206.677 89.4 207.703 89.4C208.743 89.4 209.663 89.6267 210.463 90.08C211.277 90.5333 211.91 91.16 212.363 91.96C212.83 92.76 213.063 93.6867 213.063 94.74C213.063 95.78 212.83 96.7067 212.363 97.52C211.91 98.32 211.277 98.9533 210.463 99.42C209.65 99.8733 208.73 100.1 207.703 100.1ZM207.703 98.84C208.463 98.84 209.137 98.6733 209.723 98.34C210.31 97.9933 210.77 97.5133 211.103 96.9C211.45 96.2733 211.623 95.5533 211.623 94.74C211.623 93.9133 211.45 93.1933 211.103 92.58C210.77 91.9667 210.31 91.4933 209.723 91.16C209.137 90.8133 208.47 90.64 207.723 90.64C206.977 90.64 206.31 90.8133 205.723 91.16C205.137 91.4933 204.67 91.9667 204.323 92.58C203.977 93.1933 203.803 93.9133 203.803 94.74C203.803 95.5533 203.977 96.2733 204.323 96.9C204.67 97.5133 205.137 97.9933 205.723 98.34C206.31 98.6733 206.97 98.84 207.703 98.84ZM221.018 100.12C220.165 100.12 219.405 99.98 218.738 99.7C218.085 99.42 217.525 98.9933 217.058 98.42C216.591 97.8467 216.238 97.14 215.998 96.3C215.758 95.4467 215.638 94.46 215.638 93.34C215.638 92.34 215.731 91.4667 215.918 90.72C216.105 89.96 216.365 89.3067 216.698 88.76C217.031 88.2133 217.418 87.7533 217.858 87.38C218.311 86.9933 218.798 86.6867 219.318 86.46C219.851 86.22 220.398 86.04 220.958 85.92L225.678 84.82L225.918 86.14L221.478 87.14C221.198 87.2067 220.858 87.3 220.458 87.42C220.071 87.54 219.671 87.72 219.258 87.96C218.858 88.2 218.485 88.5333 218.138 88.96C217.791 89.3867 217.511 89.94 217.298 90.62C217.098 91.2867 216.998 92.12 216.998 93.12C216.998 93.3333 217.005 93.5067 217.018 93.64C217.031 93.76 217.045 93.8933 217.058 94.04C217.085 94.1733 217.105 94.3733 217.118 94.64L216.498 94.12C216.645 93.3067 216.945 92.6 217.398 92C217.851 91.3867 218.418 90.9133 219.098 90.58C219.791 90.2333 220.558 90.06 221.398 90.06C222.371 90.06 223.238 90.2733 223.998 90.7C224.758 91.1133 225.351 91.6933 225.778 92.44C226.218 93.1867 226.438 94.0533 226.438 95.04C226.438 96.0133 226.211 96.8867 225.758 97.66C225.318 98.4333 224.691 99.04 223.878 99.48C223.065 99.9067 222.111 100.12 221.018 100.12ZM221.178 98.94C221.925 98.94 222.585 98.7733 223.158 98.44C223.731 98.0933 224.178 97.6267 224.498 97.04C224.831 96.4533 224.998 95.7933 224.998 95.06C224.998 94.34 224.831 93.7 224.498 93.14C224.178 92.58 223.731 92.14 223.158 91.82C222.585 91.4867 221.918 91.32 221.158 91.32C220.411 91.32 219.751 91.48 219.178 91.8C218.605 92.1067 218.151 92.54 217.818 93.1C217.498 93.66 217.338 94.3067 217.338 95.04C217.338 95.7733 217.498 96.4333 217.818 97.02C218.151 97.6067 218.605 98.0733 219.178 98.42C219.765 98.7667 220.431 98.94 221.178 98.94ZM239.922 100V89.5H241.342V100H239.922ZM234.102 93.2C235.422 93.2133 236.428 93.5067 237.122 94.08C237.815 94.6533 238.162 95.48 238.162 96.56C238.162 97.68 237.788 98.54 237.042 99.14C236.295 99.74 235.228 100.033 233.842 100.02L229.682 100V89.5H231.102V93.16L234.102 93.2ZM233.742 98.94C234.728 98.9533 235.468 98.76 235.962 98.36C236.468 97.9467 236.722 97.3467 236.722 96.56C236.722 95.7733 236.475 95.2 235.982 94.84C235.488 94.4667 234.742 94.2733 233.742 94.26L231.102 94.22V98.9L233.742 98.94ZM247.585 100V90.36L247.945 90.74H243.605V89.5H252.985V90.74H248.645L249.005 90.36V100H247.585ZM255.238 100V89.5H256.658V97.84L263.678 89.5H264.938V100H263.518V91.64L256.518 100H255.238ZM269.208 100V89.5H270.628V97.84L277.648 89.5H278.908V100H277.488V91.64L270.488 100H269.208ZM273.968 87.98C273.088 87.98 272.374 87.76 271.828 87.32C271.294 86.8667 271.014 86.22 270.988 85.38H272.008C272.021 85.9133 272.208 86.3333 272.568 86.64C272.928 86.9467 273.394 87.1 273.968 87.1C274.541 87.1 275.008 86.9467 275.368 86.64C275.741 86.3333 275.934 85.9133 275.948 85.38H276.968C276.954 86.22 276.674 86.8667 276.128 87.32C275.581 87.76 274.861 87.98 273.968 87.98Z" fill="white"/>
<path d="M93.7296 322V308H95.8696L101.99 318.22H100.87L106.89 308H109.03L109.05 322H106.59L106.57 311.86H107.09L101.97 320.4H100.81L95.6096 311.86H96.2096V322H93.7296ZM117.074 322L110.954 308H113.774L119.234 320.66H117.614L123.134 308H125.734L119.634 322H117.074ZM127.411 322V308H133.171C134.411 308 135.471 308.2 136.351 308.6C137.244 309 137.931 309.573 138.411 310.32C138.891 311.067 139.131 311.953 139.131 312.98C139.131 314.007 138.891 314.893 138.411 315.64C137.931 316.387 137.244 316.96 136.351 317.36C135.471 317.76 134.411 317.96 133.171 317.96H128.851L130.011 316.74V322H127.411ZM130.011 317.02L128.851 315.76H133.051C134.198 315.76 135.058 315.52 135.631 315.04C136.218 314.547 136.511 313.86 136.511 312.98C136.511 312.087 136.218 311.4 135.631 310.92C135.058 310.44 134.198 310.2 133.051 310.2H128.851L130.011 308.92V317.02ZM154.897 321.32V312.74H149.837L149.717 315.08C149.69 315.787 149.644 316.48 149.577 317.16C149.524 317.84 149.424 318.467 149.277 319.04C149.144 319.6 148.95 320.06 148.697 320.42C148.444 320.767 148.117 320.967 147.717 321.02L146.297 320.76C146.71 320.773 147.05 320.627 147.317 320.32C147.584 320 147.79 319.567 147.937 319.02C148.084 318.473 148.19 317.853 148.257 317.16C148.324 316.453 148.377 315.733 148.417 315L148.557 311.5H156.317V321.32H154.897ZM145.857 324.54V320.76H157.957V324.54H156.617V322H147.197V324.54H145.857ZM159.004 321.98L159.104 320.76C159.198 320.773 159.284 320.793 159.364 320.82C159.458 320.833 159.538 320.84 159.604 320.84C160.031 320.84 160.371 320.68 160.624 320.36C160.891 320.04 161.091 319.613 161.224 319.08C161.358 318.547 161.451 317.947 161.504 317.28C161.558 316.6 161.604 315.92 161.644 315.24L161.824 311.5H169.524V322H168.104V312.32L168.464 312.74H162.744L163.084 312.3L162.924 315.34C162.884 316.247 162.811 317.113 162.704 317.94C162.611 318.767 162.458 319.493 162.244 320.12C162.044 320.747 161.764 321.24 161.404 321.6C161.044 321.947 160.584 322.12 160.024 322.12C159.864 322.12 159.698 322.107 159.524 322.08C159.364 322.053 159.191 322.02 159.004 321.98ZM180.541 322V318.22L180.801 318.52H177.241C175.894 318.52 174.841 318.227 174.081 317.64C173.321 317.053 172.941 316.2 172.941 315.08C172.941 313.88 173.348 312.987 174.161 312.4C174.974 311.8 176.061 311.5 177.421 311.5H181.841V322H180.541ZM172.861 322L175.741 317.96H177.221L174.401 322H172.861ZM180.541 317.8V312.32L180.801 312.74H177.461C176.488 312.74 175.728 312.927 175.181 313.3C174.648 313.673 174.381 314.28 174.381 315.12C174.381 316.68 175.374 317.46 177.361 317.46H180.801L180.541 317.8ZM195.844 322.1C194.831 322.1 193.918 321.873 193.104 321.42C192.304 320.953 191.671 320.32 191.204 319.52C190.738 318.707 190.504 317.78 190.504 316.74C190.504 315.687 190.738 314.76 191.204 313.96C191.671 313.16 192.304 312.533 193.104 312.08C193.904 311.627 194.818 311.4 195.844 311.4C196.884 311.4 197.804 311.627 198.604 312.08C199.418 312.533 200.051 313.16 200.504 313.96C200.971 314.76 201.204 315.687 201.204 316.74C201.204 317.78 200.971 318.707 200.504 319.52C200.051 320.32 199.418 320.953 198.604 321.42C197.791 321.873 196.871 322.1 195.844 322.1ZM195.844 320.84C196.604 320.84 197.278 320.673 197.864 320.34C198.451 319.993 198.911 319.513 199.244 318.9C199.591 318.273 199.764 317.553 199.764 316.74C199.764 315.913 199.591 315.193 199.244 314.58C198.911 313.967 198.451 313.493 197.864 313.16C197.278 312.813 196.611 312.64 195.864 312.64C195.118 312.64 194.451 312.813 193.864 313.16C193.278 313.493 192.811 313.967 192.464 314.58C192.118 315.193 191.944 315.913 191.944 316.74C191.944 317.553 192.118 318.273 192.464 318.9C192.811 319.513 193.278 319.993 193.864 320.34C194.451 320.673 195.111 320.84 195.844 320.84ZM209.859 322.1C208.952 322.1 208.132 321.893 207.399 321.48C206.666 321.053 206.079 320.447 205.639 319.66C205.212 318.86 204.999 317.887 204.999 316.74C204.999 315.593 205.212 314.627 205.639 313.84C206.066 313.04 206.646 312.433 207.379 312.02C208.112 311.607 208.939 311.4 209.859 311.4C210.859 311.4 211.752 311.627 212.539 312.08C213.339 312.52 213.966 313.147 214.419 313.96C214.872 314.76 215.099 315.687 215.099 316.74C215.099 317.807 214.872 318.74 214.419 319.54C213.966 320.34 213.339 320.967 212.539 321.42C211.752 321.873 210.859 322.1 209.859 322.1ZM204.439 325.88V311.5H205.799V314.66L205.659 316.76L205.859 318.88V325.88H204.439ZM209.759 320.84C210.506 320.84 211.172 320.673 211.759 320.34C212.346 319.993 212.812 319.513 213.159 318.9C213.506 318.273 213.679 317.553 213.679 316.74C213.679 315.927 213.506 315.213 213.159 314.6C212.812 313.987 212.346 313.507 211.759 313.16C211.172 312.813 210.506 312.64 209.759 312.64C209.012 312.64 208.339 312.813 207.739 313.16C207.152 313.507 206.686 313.987 206.339 314.6C206.006 315.213 205.839 315.927 205.839 316.74C205.839 317.553 206.006 318.273 206.339 318.9C206.686 319.513 207.152 319.993 207.739 320.34C208.339 320.673 209.012 320.84 209.759 320.84ZM218.35 322V311.5H225.79V312.74H219.41L219.77 312.38V322H218.35ZM234.562 322V319.68L234.502 319.3V315.42C234.502 314.527 234.249 313.84 233.742 313.36C233.249 312.88 232.509 312.64 231.522 312.64C230.842 312.64 230.196 312.753 229.582 312.98C228.969 313.207 228.449 313.507 228.022 313.88L227.382 312.82C227.916 312.367 228.556 312.02 229.302 311.78C230.049 311.527 230.836 311.4 231.662 311.4C233.022 311.4 234.069 311.74 234.802 312.42C235.549 313.087 235.922 314.107 235.922 315.48V322H234.562ZM230.942 322.1C230.156 322.1 229.469 321.973 228.882 321.72C228.309 321.453 227.869 321.093 227.562 320.64C227.256 320.173 227.102 319.64 227.102 319.04C227.102 318.493 227.229 318 227.482 317.56C227.749 317.107 228.176 316.747 228.762 316.48C229.362 316.2 230.162 316.06 231.162 316.06H234.782V317.12H231.202C230.189 317.12 229.482 317.3 229.082 317.66C228.696 318.02 228.502 318.467 228.502 319C228.502 319.6 228.736 320.08 229.202 320.44C229.669 320.8 230.322 320.98 231.162 320.98C231.962 320.98 232.649 320.8 233.222 320.44C233.809 320.067 234.236 319.533 234.502 318.84L234.822 319.82C234.556 320.513 234.089 321.067 233.422 321.48C232.769 321.893 231.942 322.1 230.942 322.1ZM239.902 322V311.5H241.322V316.14H247.942V311.5H249.362V322H247.942V317.36H241.322V322H239.902ZM253.599 322V311.5H255.019V319.84L262.039 311.5H263.299V322H261.879V313.64L254.879 322H253.599ZM270.173 322.12C269.413 322.12 268.66 322.013 267.913 321.8C267.167 321.587 266.507 321.26 265.933 320.82L266.393 319.76C266.9 320.133 267.487 320.42 268.153 320.62C268.82 320.807 269.48 320.9 270.133 320.9C270.787 320.887 271.353 320.793 271.833 320.62C272.313 320.447 272.687 320.207 272.953 319.9C273.22 319.593 273.353 319.247 273.353 318.86C273.353 318.3 273.1 317.867 272.593 317.56C272.087 317.24 271.393 317.08 270.513 317.08H268.713V316.04H270.413C270.933 316.04 271.393 315.973 271.793 315.84C272.193 315.707 272.5 315.513 272.713 315.26C272.94 315.007 273.053 314.707 273.053 314.36C273.053 313.987 272.92 313.667 272.653 313.4C272.4 313.133 272.047 312.933 271.593 312.8C271.14 312.667 270.627 312.6 270.053 312.6C269.533 312.613 268.993 312.693 268.433 312.84C267.873 312.973 267.32 313.18 266.773 313.46L266.373 312.36C266.987 312.04 267.593 311.8 268.193 311.64C268.807 311.467 269.42 311.38 270.033 311.38C270.873 311.353 271.627 311.453 272.293 311.68C272.973 311.907 273.513 312.233 273.913 312.66C274.313 313.073 274.513 313.573 274.513 314.16C274.513 314.68 274.353 315.133 274.033 315.52C273.713 315.907 273.287 316.207 272.753 316.42C272.22 316.633 271.613 316.74 270.933 316.74L270.993 316.36C272.193 316.36 273.127 316.593 273.793 317.06C274.473 317.527 274.813 318.16 274.813 318.96C274.813 319.587 274.607 320.14 274.193 320.62C273.78 321.087 273.22 321.453 272.513 321.72C271.82 321.987 271.04 322.12 270.173 322.12ZM284.757 322V319.68L284.697 319.3V315.42C284.697 314.527 284.443 313.84 283.937 313.36C283.443 312.88 282.703 312.64 281.717 312.64C281.037 312.64 280.39 312.753 279.777 312.98C279.163 313.207 278.643 313.507 278.217 313.88L277.577 312.82C278.11 312.367 278.75 312.02 279.497 311.78C280.243 311.527 281.03 311.4 281.857 311.4C283.217 311.4 284.263 311.74 284.997 312.42C285.743 313.087 286.117 314.107 286.117 315.48V322H284.757ZM281.137 322.1C280.35 322.1 279.663 321.973 279.077 321.72C278.503 321.453 278.063 321.093 277.757 320.64C277.45 320.173 277.297 319.64 277.297 319.04C277.297 318.493 277.423 318 277.677 317.56C277.943 317.107 278.37 316.747 278.957 316.48C279.557 316.2 280.357 316.06 281.357 316.06H284.977V317.12H281.397C280.383 317.12 279.677 317.3 279.277 317.66C278.89 318.02 278.697 318.467 278.697 319C278.697 319.6 278.93 320.08 279.397 320.44C279.863 320.8 280.517 320.98 281.357 320.98C282.157 320.98 282.843 320.8 283.417 320.44C284.003 320.067 284.43 319.533 284.697 318.84L285.017 319.82C284.75 320.513 284.283 321.067 283.617 321.48C282.963 321.893 282.137 322.1 281.137 322.1ZM292.097 322V312.36L292.457 312.74H288.117V311.5H297.497V312.74H293.157L293.517 312.36V322H292.097ZM303.582 322.1C302.568 322.1 301.655 321.873 300.842 321.42C300.042 320.953 299.408 320.32 298.942 319.52C298.475 318.707 298.242 317.78 298.242 316.74C298.242 315.687 298.475 314.76 298.942 313.96C299.408 313.16 300.042 312.533 300.842 312.08C301.642 311.627 302.555 311.4 303.582 311.4C304.622 311.4 305.542 311.627 306.342 312.08C307.155 312.533 307.788 313.16 308.242 313.96C308.708 314.76 308.942 315.687 308.942 316.74C308.942 317.78 308.708 318.707 308.242 319.52C307.788 320.32 307.155 320.953 306.342 321.42C305.528 321.873 304.608 322.1 303.582 322.1ZM303.582 320.84C304.342 320.84 305.015 320.673 305.602 320.34C306.188 319.993 306.648 319.513 306.982 318.9C307.328 318.273 307.502 317.553 307.502 316.74C307.502 315.913 307.328 315.193 306.982 314.58C306.648 313.967 306.188 313.493 305.602 313.16C305.015 312.813 304.348 312.64 303.602 312.64C302.855 312.64 302.188 312.813 301.602 313.16C301.015 313.493 300.548 313.967 300.202 314.58C299.855 315.193 299.682 315.913 299.682 316.74C299.682 317.553 299.855 318.273 300.202 318.9C300.548 319.513 301.015 319.993 301.602 320.34C302.188 320.673 302.848 320.84 303.582 320.84ZM317.597 322.1C316.69 322.1 315.87 321.893 315.137 321.48C314.403 321.053 313.817 320.447 313.377 319.66C312.95 318.86 312.737 317.887 312.737 316.74C312.737 315.593 312.95 314.627 313.377 313.84C313.803 313.04 314.383 312.433 315.117 312.02C315.85 311.607 316.677 311.4 317.597 311.4C318.597 311.4 319.49 311.627 320.277 312.08C321.077 312.52 321.703 313.147 322.157 313.96C322.61 314.76 322.837 315.687 322.837 316.74C322.837 317.807 322.61 318.74 322.157 319.54C321.703 320.34 321.077 320.967 320.277 321.42C319.49 321.873 318.597 322.1 317.597 322.1ZM312.177 325.88V311.5H313.537V314.66L313.397 316.76L313.597 318.88V325.88H312.177ZM317.497 320.84C318.243 320.84 318.91 320.673 319.497 320.34C320.083 319.993 320.55 319.513 320.897 318.9C321.243 318.273 321.417 317.553 321.417 316.74C321.417 315.927 321.243 315.213 320.897 314.6C320.55 313.987 320.083 313.507 319.497 313.16C318.91 312.813 318.243 312.64 317.497 312.64C316.75 312.64 316.077 312.813 315.477 313.16C314.89 313.507 314.423 313.987 314.077 314.6C313.743 315.213 313.577 315.927 313.577 316.74C313.577 317.553 313.743 318.273 314.077 318.9C314.423 319.513 314.89 319.993 315.477 320.34C316.077 320.673 316.75 320.84 317.497 320.84ZM330.408 322.1C329.394 322.1 328.481 321.873 327.668 321.42C326.868 320.953 326.234 320.32 325.768 319.52C325.301 318.707 325.068 317.78 325.068 316.74C325.068 315.687 325.301 314.76 325.768 313.96C326.234 313.16 326.868 312.533 327.668 312.08C328.468 311.627 329.381 311.4 330.408 311.4C331.448 311.4 332.368 311.627 333.168 312.08C333.981 312.533 334.614 313.16 335.068 313.96C335.534 314.76 335.768 315.687 335.768 316.74C335.768 317.78 335.534 318.707 335.068 319.52C334.614 320.32 333.981 320.953 333.168 321.42C332.354 321.873 331.434 322.1 330.408 322.1ZM330.408 320.84C331.168 320.84 331.841 320.673 332.428 320.34C333.014 319.993 333.474 319.513 333.808 318.9C334.154 318.273 334.328 317.553 334.328 316.74C334.328 315.913 334.154 315.193 333.808 314.58C333.474 313.967 333.014 313.493 332.428 313.16C331.841 312.813 331.174 312.64 330.428 312.64C329.681 312.64 329.014 312.813 328.428 313.16C327.841 313.493 327.374 313.967 327.028 314.58C326.681 315.193 326.508 315.913 326.508 316.74C326.508 317.553 326.681 318.273 327.028 318.9C327.374 319.513 327.841 319.993 328.428 320.34C329.014 320.673 329.674 320.84 330.408 320.84ZM339.002 322V311.5H343.642C344.829 311.5 345.762 311.727 346.442 312.18C347.136 312.633 347.482 313.3 347.482 314.18C347.482 315.033 347.156 315.693 346.502 316.16C345.849 316.613 344.989 316.84 343.922 316.84L344.202 316.42C345.456 316.42 346.376 316.653 346.962 317.12C347.549 317.587 347.842 318.26 347.842 319.14C347.842 320.047 347.509 320.753 346.842 321.26C346.189 321.753 345.169 322 343.782 322H339.002ZM340.382 320.88H343.722C344.616 320.88 345.289 320.74 345.742 320.46C346.209 320.167 346.442 319.7 346.442 319.06C346.442 318.42 346.236 317.953 345.822 317.66C345.409 317.367 344.756 317.22 343.862 317.22H340.382V320.88ZM340.382 316.16H343.542C344.356 316.16 344.976 316.007 345.402 315.7C345.842 315.393 346.062 314.947 346.062 314.36C346.062 313.773 345.842 313.333 345.402 313.04C344.976 312.747 344.356 312.6 343.542 312.6H340.382V316.16ZM116.783 352V339L117.923 340.18H113.823V338H119.383V352H116.783ZM128.2 352.2C127.094 352.2 126.094 351.92 125.2 351.36C124.32 350.8 123.627 349.987 123.12 348.92C122.614 347.84 122.36 346.533 122.36 345C122.36 343.467 122.614 342.167 123.12 341.1C123.627 340.02 124.32 339.2 125.2 338.64C126.094 338.08 127.094 337.8 128.2 337.8C129.32 337.8 130.32 338.08 131.2 338.64C132.08 339.2 132.774 340.02 133.28 341.1C133.8 342.167 134.06 343.467 134.06 345C134.06 346.533 133.8 347.84 133.28 348.92C132.774 349.987 132.08 350.8 131.2 351.36C130.32 351.92 129.32 352.2 128.2 352.2ZM128.2 349.94C128.854 349.94 129.42 349.767 129.9 349.42C130.38 349.06 130.754 348.513 131.02 347.78C131.3 347.047 131.44 346.12 131.44 345C131.44 343.867 131.3 342.94 131.02 342.22C130.754 341.487 130.38 340.947 129.9 340.6C129.42 340.24 128.854 340.06 128.2 340.06C127.574 340.06 127.014 340.24 126.52 340.6C126.04 340.947 125.66 341.487 125.38 342.22C125.114 342.94 124.98 343.867 124.98 345C124.98 346.12 125.114 347.047 125.38 347.78C125.66 348.513 126.04 349.06 126.52 349.42C127.014 349.767 127.574 349.94 128.2 349.94ZM141.858 352.2C140.751 352.2 139.751 351.92 138.858 351.36C137.978 350.8 137.284 349.987 136.778 348.92C136.271 347.84 136.018 346.533 136.018 345C136.018 343.467 136.271 342.167 136.778 341.1C137.284 340.02 137.978 339.2 138.858 338.64C139.751 338.08 140.751 337.8 141.858 337.8C142.978 337.8 143.978 338.08 144.858 338.64C145.738 339.2 146.431 340.02 146.938 341.1C147.458 342.167 147.718 343.467 147.718 345C147.718 346.533 147.458 347.84 146.938 348.92C146.431 349.987 145.738 350.8 144.858 351.36C143.978 351.92 142.978 352.2 141.858 352.2ZM141.858 349.94C142.511 349.94 143.078 349.767 143.558 349.42C144.038 349.06 144.411 348.513 144.678 347.78C144.958 347.047 145.098 346.12 145.098 345C145.098 343.867 144.958 342.94 144.678 342.22C144.411 341.487 144.038 340.947 143.558 340.6C143.078 340.24 142.511 340.06 141.858 340.06C141.231 340.06 140.671 340.24 140.178 340.6C139.698 340.947 139.318 341.487 139.038 342.22C138.771 342.94 138.638 343.867 138.638 345C138.638 346.12 138.771 347.047 139.038 347.78C139.318 348.513 139.698 349.06 140.178 349.42C140.671 349.767 141.231 349.94 141.858 349.94ZM155.515 352.2C154.408 352.2 153.408 351.92 152.515 351.36C151.635 350.8 150.941 349.987 150.435 348.92C149.928 347.84 149.675 346.533 149.675 345C149.675 343.467 149.928 342.167 150.435 341.1C150.941 340.02 151.635 339.2 152.515 338.64C153.408 338.08 154.408 337.8 155.515 337.8C156.635 337.8 157.635 338.08 158.515 338.64C159.395 339.2 160.088 340.02 160.595 341.1C161.115 342.167 161.375 343.467 161.375 345C161.375 346.533 161.115 347.84 160.595 348.92C160.088 349.987 159.395 350.8 158.515 351.36C157.635 351.92 156.635 352.2 155.515 352.2ZM155.515 349.94C156.168 349.94 156.735 349.767 157.215 349.42C157.695 349.06 158.068 348.513 158.335 347.78C158.615 347.047 158.755 346.12 158.755 345C158.755 343.867 158.615 342.94 158.335 342.22C158.068 341.487 157.695 340.947 157.215 340.6C156.735 340.24 156.168 340.06 155.515 340.06C154.888 340.06 154.328 340.24 153.835 340.6C153.355 340.947 152.975 341.487 152.695 342.22C152.428 342.94 152.295 343.867 152.295 345C152.295 346.12 152.428 347.047 152.695 347.78C152.975 348.513 153.355 349.06 153.835 349.42C154.328 349.767 154.888 349.94 155.515 349.94ZM169.906 352V341.5H179.346V352H177.926V342.36L178.286 342.74H170.966L171.326 342.36V352H169.906ZM187.903 352.1C186.889 352.1 185.976 351.873 185.163 351.42C184.363 350.953 183.729 350.32 183.263 349.52C182.796 348.707 182.563 347.78 182.563 346.74C182.563 345.687 182.796 344.76 183.263 343.96C183.729 343.16 184.363 342.533 185.163 342.08C185.963 341.627 186.876 341.4 187.903 341.4C188.943 341.4 189.863 341.627 190.663 342.08C191.476 342.533 192.109 343.16 192.563 343.96C193.029 344.76 193.263 345.687 193.263 346.74C193.263 347.78 193.029 348.707 192.563 349.52C192.109 350.32 191.476 350.953 190.663 351.42C189.849 351.873 188.929 352.1 187.903 352.1ZM187.903 350.84C188.663 350.84 189.336 350.673 189.923 350.34C190.509 349.993 190.969 349.513 191.303 348.9C191.649 348.273 191.823 347.553 191.823 346.74C191.823 345.913 191.649 345.193 191.303 344.58C190.969 343.967 190.509 343.493 189.923 343.16C189.336 342.813 188.669 342.64 187.923 342.64C187.176 342.64 186.509 342.813 185.923 343.16C185.336 343.493 184.869 343.967 184.523 344.58C184.176 345.193 184.003 345.913 184.003 346.74C184.003 347.553 184.176 348.273 184.523 348.9C184.869 349.513 185.336 349.993 185.923 350.34C186.509 350.673 187.169 350.84 187.903 350.84ZM194.519 351.98L194.619 350.76C194.712 350.773 194.799 350.793 194.879 350.82C194.972 350.833 195.052 350.84 195.119 350.84C195.545 350.84 195.885 350.68 196.139 350.36C196.405 350.04 196.605 349.613 196.739 349.08C196.872 348.547 196.965 347.947 197.019 347.28C197.072 346.6 197.119 345.92 197.159 345.24L197.339 341.5H205.039V352H203.619V342.32L203.979 342.74H198.259L198.599 342.3L198.439 345.34C198.399 346.247 198.325 347.113 198.219 347.94C198.125 348.767 197.972 349.493 197.759 350.12C197.559 350.747 197.279 351.24 196.919 351.6C196.559 351.947 196.099 352.12 195.539 352.12C195.379 352.12 195.212 352.107 195.039 352.08C194.879 352.053 194.705 352.02 194.519 351.98ZM213.795 345.2C215.115 345.213 216.115 345.507 216.795 346.08C217.489 346.653 217.835 347.48 217.835 348.56C217.835 349.68 217.462 350.54 216.715 351.14C215.982 351.74 214.915 352.033 213.515 352.02L209.275 352V341.5H210.695V345.16L213.795 345.2ZM213.435 350.94C214.409 350.953 215.142 350.76 215.635 350.36C216.142 349.947 216.395 349.347 216.395 348.56C216.395 347.773 216.149 347.2 215.655 346.84C215.162 346.467 214.422 346.273 213.435 346.26L210.695 346.22V350.9L213.435 350.94ZM223.467 352.12C222.707 352.12 221.954 352.013 221.207 351.8C220.461 351.587 219.801 351.26 219.227 350.82L219.687 349.76C220.194 350.133 220.781 350.42 221.447 350.62C222.114 350.807 222.774 350.9 223.427 350.9C224.081 350.887 224.647 350.793 225.127 350.62C225.607 350.447 225.981 350.207 226.247 349.9C226.514 349.593 226.647 349.247 226.647 348.86C226.647 348.3 226.394 347.867 225.887 347.56C225.381 347.24 224.687 347.08 223.807 347.08H222.007V346.04H223.707C224.227 346.04 224.687 345.973 225.087 345.84C225.487 345.707 225.794 345.513 226.007 345.26C226.234 345.007 226.347 344.707 226.347 344.36C226.347 343.987 226.214 343.667 225.947 343.4C225.694 343.133 225.341 342.933 224.887 342.8C224.434 342.667 223.921 342.6 223.347 342.6C222.827 342.613 222.287 342.693 221.727 342.84C221.167 342.973 220.614 343.18 220.067 343.46L219.667 342.36C220.281 342.04 220.887 341.8 221.487 341.64C222.101 341.467 222.714 341.38 223.327 341.38C224.167 341.353 224.921 341.453 225.587 341.68C226.267 341.907 226.807 342.233 227.207 342.66C227.607 343.073 227.807 343.573 227.807 344.16C227.807 344.68 227.647 345.133 227.327 345.52C227.007 345.907 226.581 346.207 226.047 346.42C225.514 346.633 224.907 346.74 224.227 346.74L224.287 346.36C225.487 346.36 226.421 346.593 227.087 347.06C227.767 347.527 228.107 348.16 228.107 348.96C228.107 349.587 227.901 350.14 227.487 350.62C227.074 351.087 226.514 351.453 225.807 351.72C225.114 351.987 224.334 352.12 223.467 352.12ZM235.851 352.1C234.838 352.1 233.924 351.873 233.111 351.42C232.311 350.953 231.678 350.32 231.211 349.52C230.744 348.707 230.511 347.78 230.511 346.74C230.511 345.687 230.744 344.76 231.211 343.96C231.678 343.16 232.311 342.533 233.111 342.08C233.911 341.627 234.824 341.4 235.851 341.4C236.891 341.4 237.811 341.627 238.611 342.08C239.424 342.533 240.058 343.16 240.511 343.96C240.978 344.76 241.211 345.687 241.211 346.74C241.211 347.78 240.978 348.707 240.511 349.52C240.058 350.32 239.424 350.953 238.611 351.42C237.798 351.873 236.878 352.1 235.851 352.1ZM235.851 350.84C236.611 350.84 237.284 350.673 237.871 350.34C238.458 349.993 238.918 349.513 239.251 348.9C239.598 348.273 239.771 347.553 239.771 346.74C239.771 345.913 239.598 345.193 239.251 344.58C238.918 343.967 238.458 343.493 237.871 343.16C237.284 342.813 236.618 342.64 235.871 342.64C235.124 342.64 234.458 342.813 233.871 343.16C233.284 343.493 232.818 343.967 232.471 344.58C232.124 345.193 231.951 345.913 231.951 346.74C231.951 347.553 232.124 348.273 232.471 348.9C232.818 349.513 233.284 349.993 233.871 350.34C234.458 350.673 235.118 350.84 235.851 350.84ZM244.446 352V341.5H249.086C250.272 341.5 251.206 341.727 251.886 342.18C252.579 342.633 252.926 343.3 252.926 344.18C252.926 345.033 252.599 345.693 251.946 346.16C251.292 346.613 250.432 346.84 249.366 346.84L249.646 346.42C250.899 346.42 251.819 346.653 252.406 347.12C252.992 347.587 253.286 348.26 253.286 349.14C253.286 350.047 252.952 350.753 252.286 351.26C251.632 351.753 250.612 352 249.226 352H244.446ZM245.826 350.88H249.166C250.059 350.88 250.732 350.74 251.186 350.46C251.652 350.167 251.886 349.7 251.886 349.06C251.886 348.42 251.679 347.953 251.266 347.66C250.852 347.367 250.199 347.22 249.306 347.22H245.826V350.88ZM245.826 346.16H248.986C249.799 346.16 250.419 346.007 250.846 345.7C251.286 345.393 251.506 344.947 251.506 344.36C251.506 343.773 251.286 343.333 250.846 343.04C250.419 342.747 249.799 342.6 248.986 342.6H245.826V346.16ZM263.334 352V349.68L263.274 349.3V345.42C263.274 344.527 263.02 343.84 262.514 343.36C262.02 342.88 261.28 342.64 260.294 342.64C259.614 342.64 258.967 342.753 258.354 342.98C257.74 343.207 257.22 343.507 256.794 343.88L256.154 342.82C256.687 342.367 257.327 342.02 258.074 341.78C258.82 341.527 259.607 341.4 260.434 341.4C261.794 341.4 262.84 341.74 263.574 342.42C264.32 343.087 264.694 344.107 264.694 345.48V352H263.334ZM259.714 352.1C258.927 352.1 258.24 351.973 257.654 351.72C257.08 351.453 256.64 351.093 256.334 350.64C256.027 350.173 255.874 349.64 255.874 349.04C255.874 348.493 256 348 256.254 347.56C256.52 347.107 256.947 346.747 257.534 346.48C258.134 346.2 258.934 346.06 259.934 346.06H263.554V347.12H259.974C258.96 347.12 258.254 347.3 257.854 347.66C257.467 348.02 257.274 348.467 257.274 349C257.274 349.6 257.507 350.08 257.974 350.44C258.44 350.8 259.094 350.98 259.934 350.98C260.734 350.98 261.42 350.8 261.994 350.44C262.58 350.067 263.007 349.533 263.274 348.84L263.594 349.82C263.327 350.513 262.86 351.067 262.194 351.48C261.54 351.893 260.714 352.1 259.714 352.1ZM270.674 352V342.36L271.034 342.74H266.694V341.5H276.074V342.74H271.734L272.094 342.36V352H270.674ZM282.339 352.1C281.245 352.1 280.285 351.873 279.459 351.42C278.632 350.953 277.985 350.32 277.519 349.52C277.052 348.707 276.819 347.78 276.819 346.74C276.819 345.7 277.039 344.78 277.479 343.98C277.932 343.18 278.545 342.553 279.319 342.1C280.105 341.633 280.985 341.4 281.959 341.4C282.945 341.4 283.819 341.627 284.579 342.08C285.352 342.52 285.959 343.147 286.399 343.96C286.839 344.76 287.059 345.687 287.059 346.74C287.059 346.807 287.052 346.88 287.039 346.96C287.039 347.027 287.039 347.1 287.039 347.18H277.899V346.12H286.279L285.719 346.54C285.719 345.78 285.552 345.107 285.219 344.52C284.899 343.92 284.459 343.453 283.899 343.12C283.339 342.787 282.692 342.62 281.959 342.62C281.239 342.62 280.592 342.787 280.019 343.12C279.445 343.453 278.999 343.92 278.679 344.52C278.359 345.12 278.199 345.807 278.199 346.58V346.8C278.199 347.6 278.372 348.307 278.719 348.92C279.079 349.52 279.572 349.993 280.199 350.34C280.839 350.673 281.565 350.84 282.379 350.84C283.019 350.84 283.612 350.727 284.159 350.5C284.719 350.273 285.199 349.927 285.599 349.46L286.399 350.38C285.932 350.94 285.345 351.367 284.639 351.66C283.945 351.953 283.179 352.1 282.339 352.1ZM288.267 351.98L288.367 350.76C288.461 350.773 288.547 350.793 288.627 350.82C288.721 350.833 288.801 350.84 288.867 350.84C289.294 350.84 289.634 350.68 289.887 350.36C290.154 350.04 290.354 349.613 290.487 349.08C290.621 348.547 290.714 347.947 290.767 347.28C290.821 346.6 290.867 345.92 290.907 345.24L291.087 341.5H298.787V352H297.367V342.32L297.727 342.74H292.007L292.347 342.3L292.187 345.34C292.147 346.247 292.074 347.113 291.967 347.94C291.874 348.767 291.721 349.493 291.507 350.12C291.307 350.747 291.027 351.24 290.667 351.6C290.307 351.947 289.847 352.12 289.287 352.12C289.127 352.12 288.961 352.107 288.787 352.08C288.627 352.053 288.454 352.02 288.267 351.98ZM307.524 352.1C306.431 352.1 305.471 351.873 304.644 351.42C303.817 350.953 303.171 350.32 302.704 349.52C302.237 348.707 302.004 347.78 302.004 346.74C302.004 345.7 302.224 344.78 302.664 343.98C303.117 343.18 303.731 342.553 304.504 342.1C305.291 341.633 306.171 341.4 307.144 341.4C308.131 341.4 309.004 341.627 309.764 342.08C310.537 342.52 311.144 343.147 311.584 343.96C312.024 344.76 312.244 345.687 312.244 346.74C312.244 346.807 312.237 346.88 312.224 346.96C312.224 347.027 312.224 347.1 312.224 347.18H303.084V346.12H311.464L310.904 346.54C310.904 345.78 310.737 345.107 310.404 344.52C310.084 343.92 309.644 343.453 309.084 343.12C308.524 342.787 307.877 342.62 307.144 342.62C306.424 342.62 305.777 342.787 305.204 343.12C304.631 343.453 304.184 343.92 303.864 344.52C303.544 345.12 303.384 345.807 303.384 346.58V346.8C303.384 347.6 303.557 348.307 303.904 348.92C304.264 349.52 304.757 349.993 305.384 350.34C306.024 350.673 306.751 350.84 307.564 350.84C308.204 350.84 308.797 350.727 309.344 350.5C309.904 350.273 310.384 349.927 310.784 349.46L311.584 350.38C311.117 350.94 310.531 351.367 309.824 351.66C309.131 351.953 308.364 352.1 307.524 352.1ZM315.587 352V341.5H317.007V349.84L324.027 341.5H325.287V352H323.867V343.64L316.867 352H315.587ZM320.347 339.98C319.467 339.98 318.754 339.76 318.207 339.32C317.674 338.867 317.394 338.22 317.367 337.38H318.387C318.401 337.913 318.587 338.333 318.947 338.64C319.307 338.947 319.774 339.1 320.347 339.1C320.921 339.1 321.387 338.947 321.747 338.64C322.121 338.333 322.314 337.913 322.327 337.38H323.347C323.334 338.22 323.054 338.867 322.507 339.32C321.961 339.76 321.241 339.98 320.347 339.98Z" fill="white"/>
</g>
<defs>
<clipPath id="clip0_2010_83">
<rect width="452" height="588" fill="white"/>
</clipPath>
</defs>
</svg>
