<svg width="171" height="162" viewBox="0 0 171 162" fill="none" xmlns="http://www.w3.org/2000/svg">
<g filter="url(#filter0_f_0_988)">
<circle cx="85.5" cy="80.5" r="45.5" fill="#4452FE"/>
</g>
<rect x="46" y="41" width="80" height="80" rx="40" fill="black"/>
<path d="M52.0476 70.1003C51.1435 69.664 50 70.1947 50 71.0506V79.7977C50 80.6536 51.1435 81.1844 52.0476 80.748L61.1087 76.3745C61.9951 75.9466 61.9951 74.9017 61.1087 74.4739L52.0476 70.1003Z" fill="#FADB4A"/>
<path d="M66.2765 79.6667H71.9617C72.8179 79.6667 73.4733 79.5072 73.9278 79.1882C74.3823 78.865 74.6095 78.4238 74.6095 77.8645C74.6095 77.4087 74.4756 77.0504 74.2078 76.7893C73.9399 76.5242 73.5564 76.3523 73.0573 76.2735V76.2549C73.4753 76.1638 73.7999 75.9918 74.0312 75.7391C74.2666 75.4864 74.3843 75.1363 74.3843 74.6888C74.3843 74.1792 74.1794 73.7877 73.7695 73.5143C73.3637 73.2367 72.6657 73.0979 71.6756 73.0979H66.2765V79.6667ZM68.5408 75.6335V74.4713H71.146C71.491 74.4713 71.7283 74.519 71.8582 74.6143C71.9921 74.7054 72.0591 74.8359 72.0591 75.0058C72.0591 75.2129 71.9921 75.3704 71.8582 75.4781C71.7283 75.5817 71.491 75.6335 71.146 75.6335H68.5408ZM68.5408 78.2933V76.9882H71.3287C71.6979 76.9882 71.9495 77.0483 72.0834 77.1684C72.2214 77.2844 72.2904 77.4398 72.2904 77.6345C72.2904 77.8334 72.2214 77.9929 72.0834 78.1131C71.9495 78.2332 71.6979 78.2933 71.3287 78.2933H68.5408ZM75.699 79.6667H78.0182L81.2686 76.4786C81.3944 76.3088 81.4796 76.17 81.5243 76.0623C81.5689 75.9504 81.6277 75.8385 81.7008 75.7267H81.646C81.6501 75.8509 81.6541 75.998 81.6582 76.1679C81.6663 76.3336 81.6704 76.4786 81.6704 76.6029V79.6667H84.0199V73.0979H81.7069L78.4564 76.2363C78.3266 76.4103 78.2333 76.5739 78.1764 76.7272C78.1196 76.8805 78.0628 77.011 78.006 77.1187L77.9877 77.1063C78.0121 76.9986 78.0283 76.837 78.0364 76.6216C78.0446 76.4061 78.0486 76.2363 78.0486 76.112V73.0979H75.699V79.6667ZM92.4137 80.9096H94.6233V77.8955H84.7748V80.9096H86.9844V79.6667H92.4137V80.9096ZM87.9827 74.8691H91.3731V79.6667H93.6859V73.0979H86.0165L85.9372 75.0928C85.905 75.8054 85.842 76.3999 85.7485 76.8764C85.6595 77.3528 85.5255 77.7464 85.3468 78.0571H87.5443C87.662 77.7878 87.7531 77.4709 87.8182 77.1063C87.883 76.7376 87.9276 76.2818 87.9522 75.7391L87.9827 74.8691ZM95.0617 76.4786C95.0617 77.5102 95.4776 78.3326 96.3093 78.9458C97.1414 79.5548 98.2675 79.8593 99.6876 79.8593C100.589 79.8593 101.38 79.7351 102.062 79.4864C102.747 79.2337 103.228 78.8754 103.504 78.4113L101.836 77.3114C101.625 77.531 101.329 77.7277 100.948 77.9018C100.57 78.0716 100.134 78.1565 99.6391 78.1565C98.8884 78.1565 98.3101 78.0302 97.9043 77.7774C97.5026 77.5247 97.3018 77.1436 97.3018 76.634V76.112C97.3018 75.5817 97.4884 75.1881 97.8617 74.9312C98.2391 74.6743 98.7523 74.5459 99.4016 74.5459C100.16 74.5459 100.686 74.6495 100.978 74.8566C101.274 75.0597 101.425 75.331 101.429 75.6708L101.422 75.6459H96.5773V76.9882H103.687V76.1741C103.687 75.1384 103.309 74.3346 102.555 73.7629C101.804 73.1911 100.785 72.9053 99.4989 72.9053C98.2208 72.9053 97.1615 73.2098 96.3218 73.8188C95.4817 74.4278 95.0617 75.2482 95.0617 76.2798V76.4786ZM104.326 76.4786C104.326 77.5392 104.754 78.3679 105.61 78.9645C106.471 79.5569 107.574 79.8531 108.922 79.8531C110.269 79.8531 111.372 79.5569 112.233 78.9645C113.093 78.3679 113.523 77.5392 113.523 76.4786V76.2798C113.523 75.215 113.093 74.3864 112.233 73.794C111.372 73.2015 110.269 72.9053 108.922 72.9053C107.574 72.9053 106.471 73.2015 105.61 73.794C104.754 74.3864 104.326 75.215 104.326 76.2798V76.4786ZM106.694 76.1057C106.694 75.5547 106.895 75.1798 107.296 74.9809C107.698 74.7779 108.24 74.6764 108.922 74.6764C109.603 74.6764 110.145 74.7779 110.547 74.9809C110.949 75.1798 111.149 75.5547 111.149 76.1057V76.6464C111.149 77.2016 110.952 77.5807 110.559 77.7837C110.165 77.9825 109.62 78.082 108.922 78.082C108.224 78.082 107.678 77.9825 107.284 77.7837C106.891 77.5807 106.694 77.2016 106.694 76.6464V76.1057Z" fill="white"/>
<path d="M66.2119 87.7989C66.2119 88.4991 66.5042 89.0169 67.0884 89.3525C67.677 89.684 68.3973 89.8497 69.2495 89.8497C70.0487 89.8497 70.7326 89.7627 71.3005 89.5887C71.8687 89.4147 72.232 89.2055 72.3902 88.961C72.4145 89.0895 72.4512 89.2283 72.4997 89.3774C72.5485 89.5265 72.6032 89.6446 72.6641 89.7316H74.9347V89.6322C74.8249 89.4789 74.7339 89.2801 74.6608 89.0356C74.5915 88.7911 74.5573 88.5384 74.5573 88.2774V85.2323C74.5573 84.4493 74.2144 83.8775 73.5285 83.5171C72.8428 83.1566 71.9072 82.9764 70.7226 82.9764C69.5376 82.9764 68.5614 83.167 67.7944 83.5482C67.0278 83.9293 66.6441 84.441 66.6441 85.0832V85.2447H68.9268V85.0832C68.9268 84.9092 69.0545 84.7704 69.3101 84.6668C69.5698 84.5632 69.9981 84.5114 70.5944 84.5114C71.2073 84.5114 71.6353 84.5777 71.8788 84.7103C72.1226 84.8387 72.2441 85.0065 72.2441 85.2137V85.5182H70.2475C69.0992 85.5223 68.1397 85.7067 67.3685 86.0713C66.5973 86.4358 66.2119 87.0117 66.2119 87.7989ZM68.5434 87.569C68.5434 87.337 68.7138 87.165 69.0545 87.0532C69.3994 86.9413 69.923 86.8854 70.6249 86.8854H72.2441V87.2645C72.2441 87.6 72.0512 87.8611 71.6658 88.0475C71.2846 88.2339 70.7973 88.3271 70.2049 88.3271C69.6248 88.3271 69.2027 88.2546 68.9389 88.1096C68.675 87.9646 68.5434 87.7844 68.5434 87.569ZM76.1155 90.9745H78.4283V88.9796C78.6759 89.2655 79.0554 89.4831 79.5669 89.6322C80.078 89.7813 80.64 89.8559 81.2529 89.8559C82.3364 89.8559 83.217 89.5617 83.8947 88.9735C84.5723 88.3851 84.911 87.5752 84.911 86.5436V86.3447C84.911 85.3048 84.562 84.4928 83.8642 83.9086C83.1703 83.3203 82.2613 83.0261 81.1373 83.0261C80.5243 83.0261 79.9602 83.1173 79.445 83.2996C78.9297 83.4777 78.5686 83.7118 78.3615 84.0018L78.3127 83.1629H76.1155V90.9745ZM78.4283 87.1588V85.6798C78.5907 85.4312 78.8483 85.2219 79.2016 85.0521C79.5544 84.8781 79.9866 84.7911 80.498 84.7911C81.1878 84.7911 81.7013 84.8947 82.0379 85.1018C82.3749 85.3089 82.5431 85.6673 82.5431 86.1769V86.7114C82.5431 87.2209 82.3749 87.5793 82.0379 87.7865C81.7013 87.9936 81.194 88.0972 80.5164 88.0972C80.0253 88.0972 79.589 88.0081 79.2074 87.83C78.8303 87.6477 78.5706 87.424 78.4283 87.1588ZM85.6842 86.5436C85.6842 87.5752 86.1001 88.3976 86.9319 89.0107C87.7637 89.6198 88.8898 89.9243 90.3102 89.9243C91.2112 89.9243 92.0025 89.8 92.6839 89.5514C93.3699 89.2987 93.8509 88.9403 94.1265 88.4763L92.4589 87.3763C92.248 87.5959 91.9516 87.7927 91.5703 87.9667C91.1929 88.1366 90.7565 88.2215 90.2614 88.2215C89.5106 88.2215 88.9323 88.0951 88.5269 87.8424C88.1248 87.5897 87.924 87.2085 87.924 86.6989V86.1769C87.924 85.6466 88.1106 85.253 88.4843 84.9962C88.8614 84.7393 89.3749 84.6108 90.0242 84.6108C90.7829 84.6108 91.3085 84.7144 91.6008 84.9216C91.8968 85.1246 92.0471 85.3959 92.0509 85.7357L92.045 85.7108H87.1999V87.0532H94.3094V86.2391C94.3094 85.2033 93.9319 84.3996 93.177 83.8278C92.4263 83.2561 91.4079 82.9702 90.1215 82.9702C88.8434 82.9702 87.7841 83.2747 86.944 83.8838C86.1039 84.4928 85.6842 85.3131 85.6842 86.3447V86.5436ZM95.2589 83.1629V89.7316H97.572V87.2645H101.388V89.7316H103.702V83.1629H101.388V85.4933H97.572V83.1629H95.2589ZM104.803 87.7989C104.803 88.4991 105.095 89.0169 105.68 89.3525C106.268 89.684 106.988 89.8497 107.841 89.8497C108.64 89.8497 109.324 89.7627 109.892 89.5887C110.46 89.4147 110.823 89.2055 110.981 88.961C111.006 89.0895 111.042 89.2283 111.091 89.3774C111.14 89.5265 111.194 89.6446 111.255 89.7316H113.526V89.6322C113.416 89.4789 113.325 89.2801 113.252 89.0356C113.183 88.7911 113.148 88.5384 113.148 88.2774V85.2323C113.148 84.4493 112.806 83.8775 112.12 83.5171C111.434 83.1566 110.499 82.9764 109.314 82.9764C108.129 82.9764 107.153 83.167 106.386 83.5482C105.619 83.9293 105.236 84.441 105.236 85.0832V85.2447H107.518V85.0832C107.518 84.9092 107.646 84.7704 107.902 84.6668C108.161 84.5632 108.589 84.5114 109.186 84.5114C109.798 84.5114 110.227 84.5777 110.47 84.7103C110.714 84.8387 110.835 85.0065 110.835 85.2137V85.5182H108.839C107.69 85.5223 106.731 85.7067 105.96 86.0713C105.189 86.4358 104.803 87.0117 104.803 87.7989ZM107.135 87.569C107.135 87.337 107.305 87.165 107.646 87.0532C107.991 86.9413 108.514 86.8854 109.216 86.8854H110.835V87.2645C110.835 87.6 110.643 87.8611 110.257 88.0475C109.876 88.2339 109.389 88.3271 108.796 88.3271C108.216 88.3271 107.794 88.2546 107.53 88.1096C107.266 87.9646 107.135 87.7844 107.135 87.569Z" fill="#FADB4A"/>
<path d="M119.194 70.2527C119.194 70.3679 119.163 70.4559 119.101 70.5167C119.04 70.5774 118.945 70.6078 118.815 70.6078C118.673 70.6078 118.564 70.5641 118.485 70.4768C118.407 70.3882 118.368 70.2648 118.368 70.1065V69.8616C118.368 69.7058 118.404 69.5831 118.476 69.4932C118.548 69.4033 118.655 69.3584 118.796 69.3584C118.926 69.3584 119.026 69.3875 119.094 69.4457C119.162 69.5039 119.196 69.5894 119.196 69.702H119.555C119.555 69.5033 119.491 69.3438 119.361 69.2235C119.233 69.102 119.045 69.0412 118.798 69.0412C118.552 69.0412 118.355 69.1185 118.207 69.2729C118.059 69.4273 117.985 69.652 117.985 69.947V70.023C117.985 70.3167 118.059 70.5388 118.207 70.6895C118.354 70.8388 118.54 70.9135 118.764 70.9135C118.98 70.9135 119.165 70.8591 119.321 70.7502C119.476 70.6401 119.553 70.4743 119.553 70.2527H119.194ZM117.526 69.9793C117.526 69.6071 117.65 69.2944 117.898 69.0412C118.146 68.7868 118.444 68.6596 118.794 68.6596C119.142 68.6596 119.439 68.7868 119.687 69.0412C119.936 69.2944 120.061 69.6071 120.061 69.9793C120.061 70.3502 119.936 70.6635 119.687 70.9192C119.439 71.175 119.142 71.3028 118.794 71.3028C118.446 71.3028 118.147 71.175 117.898 70.9192C117.65 70.6635 117.526 70.3502 117.526 69.9793ZM117.232 69.9793C117.232 70.4312 117.384 70.8135 117.69 71.1262C117.994 71.4389 118.362 71.5952 118.792 71.5952C119.222 71.5952 119.589 71.4389 119.893 71.1262C120.2 70.8135 120.353 70.4312 120.353 69.9793C120.353 69.5236 120.2 69.1406 119.893 68.8305C119.589 68.5203 119.222 68.3652 118.792 68.3652C118.362 68.3652 117.994 68.5203 117.69 68.8305C117.384 69.1406 117.232 69.5236 117.232 69.9793Z" fill="white"/>
<defs>
<filter id="filter0_f_0_988" x="0" y="-5" width="171" height="171" filterUnits="userSpaceOnUse" color-interpolation-filters="sRGB">
<feFlood flood-opacity="0" result="BackgroundImageFix"/>
<feBlend mode="normal" in="SourceGraphic" in2="BackgroundImageFix" result="shape"/>
<feGaussianBlur stdDeviation="20" result="effect1_foregroundBlur_0_988"/>
</filter>
</defs>
</svg>
