<svg width="43" height="40" viewBox="0 0 43 40" fill="none" xmlns="http://www.w3.org/2000/svg">
<rect x="0.651367" y="0.5" width="41.1067" height="39" rx="19.5" fill="#F6F7FF"/>
<rect x="0.651367" y="0.5" width="41.1067" height="39" rx="19.5" stroke="#F6F7FF"/>
<path d="M33.3102 14.2088C33.0208 13.1753 32.1648 12.36 31.0756 12.0805C29.1062 11.5791 21.2047 11.5791 21.2047 11.5791C21.2047 11.5791 13.3071 11.5791 11.3338 12.0805C10.2486 12.3561 9.39253 13.1714 9.09913 14.2088C8.57263 16.0844 8.57263 20.0002 8.57263 20.0002C8.57263 20.0002 8.57263 23.916 9.09913 25.7916C9.38851 26.8251 10.2446 27.6404 11.3338 27.9198C13.3071 28.4212 21.2047 28.4212 21.2047 28.4212C21.2047 28.4212 29.1062 28.4212 31.0756 27.9198C32.1607 27.6442 33.0168 26.8289 33.3102 25.7916C33.8367 23.916 33.8367 20.0002 33.8367 20.0002C33.8367 20.0002 33.8367 16.0844 33.3102 14.2088Z" fill="#FF3000"/>
<path d="M18.6807 23.6097L25.2439 20.0002L18.6807 16.3906V23.6097Z" fill="#F6F7FF"/>
</svg>
